{
.appVersion = "1230";
DisplayStrings = (
"/uni0136"
);
copyright = "Copyright 2019 The Tomorrow Project Authors (https://github.com/googlefonts/Tomorrow)";
customParameters = (
{
name = panose;
value = (
0,
0,
4,
0,
0,
0,
0,
0,
0,
0
);
},
{
name = unicodeRanges;
value = (
0,
1,
2,
29
);
},
{
name = codePageRanges;
value = (
1252,
1250,
1257
);
},
{
name = blueScale;
value = 0.037;
},
{
name = glyphOrder;
value = (
.notdef,
CR,
space,
A,
Aacute,
Abreve,
uni1EAE,
uni1EB6,
uni1EB0,
uni1EB2,
uni1EB4,
Acircumflex,
uni1EA4,
uni1EAC,
uni1EA6,
uni1EA8,
uni1EAA,
uni0200,
Adieresis,
uni1EA0,
Agrave,
uni1EA2,
uni0202,
Amacron,
Aogonek,
Aring,
Aringacute,
Atilde,
AE,
AEacute,
B,
C,
Cacute,
Ccaron,
Ccedilla,
Ccircumflex,
Cdotaccent,
D,
uni01C4,
Eth,
Dcaron,
Dcroat,
uni01C5,
E,
Eacute,
Ebreve,
Ecaron,
Ecircumflex,
uni1EBE,
uni1EC6,
uni1EC0,
uni1EC2,
uni1EC4,
uni0204,
Edieresis,
Edotaccent,
uni1EB8,
Egrave,
uni1EBA,
uni0206,
Emacron,
Eogonek,
uni1EBC,
F,
G,
Gbreve,
Gcaron,
Gcircumflex,
uni0122,
Gdotaccent,
H,
Hbar,
Hcircumflex,
I,
Iacute,
Ibreve,
Icircumflex,
uni0208,
Idieresis,
Idotaccent,
uni1ECA,
Igrave,
uni1EC8,
uni020A,
Imacron,
Iogonek,
Itilde,
J,
Jcircumflex,
K,
uni0136,
L,
uni01C7,
Lacute,
Lcaron,
uni013B,
Ldot,
uni01C8,
Lslash,
M,
N,
uni01CA,
Nacute,
Ncaron,
uni0145,
Eng,
uni01CB,
Ntilde,
O,
Oacute,
Obreve,
Ocircumflex,
uni1ED0,
uni1ED8,
uni1ED2,
uni1ED4,
uni1ED6,
uni020C,
Odieresis,
uni022A,
uni0230,
uni1ECC,
Ograve,
uni1ECE,
Ohorn,
uni1EDA,
uni1EE2,
uni1EDC,
uni1EDE,
uni1EE0,
Ohungarumlaut,
uni020E,
Omacron,
uni01EA,
Oslash,
Oslashacute,
Otilde,
uni022C,
OE,
P,
Thorn,
Q,
R,
Racute,
Rcaron,
uni0156,
uni0210,
uni0212,
S,
Sacute,
Scaron,
Scedilla,
Scircumflex,
uni0218,
uni1E9E,
uni018F,
T,
Tbar,
Tcaron,
uni0162,
uni021A,
U,
Uacute,
Ubreve,
Ucircumflex,
uni0214,
Udieresis,
uni1EE4,
Ugrave,
uni1EE6,
Uhorn,
uni1EE8,
uni1EF0,
uni1EEA,
uni1EEC,
uni1EEE,
Uhungarumlaut,
uni0216,
Umacron,
Uogonek,
Uring,
Utilde,
V,
W,
Wacute,
Wcircumflex,
Wdieresis,
Wgrave,
X,
Y,
Yacute,

glyphs = (
{
glyphname = .notdef;
lastChange = "2019-09-04 12:33:25 +0000";
layers = (
{
hints = (
{
horizontal = 1;
place = "{200.16, 45.84}";
type = Stem;
},
{
horizontal = 1;
place = "{373.62, 148.88}";
type = Stem;
},
{
place = "{104.15, 520.23}";
type = Stem;
}
);
layerId = "EE67F182-E529-43D3-8004-363E3BB4E65C";
paths = (
{
closed = 1;
nodes = (
"155.48 89.83 LINE",
"162.41 129.08 LINE",
"241.61 200.16 LINE",
"516.31 200.16 LINE",
"570.14 129.46 LINE",
"563.15 89.83 LINE",
"614.48 89.83 LINE",
"624.38 145.96 LINE",
"546.31 246 LINE",
"227.4 246 LINE",
"114.05 145.96 LINE",
"104.15 89.83 LINE"
);
},
{
closed = 1;
nodes = (
"330.94 373.62 LINE",
"357.19 522.5 LINE",
"309.53 522.5 LINE",
"283.27 373.62 LINE"
);
},
{
closed = 1;
nodes = (
"535.11 373.62 LINE",
"561.36 522.5 LINE",
"513.69 522.5 LINE",
"487.44 373.62 LINE"
);
}
);
width = 684;
}
);
note = .notdef;
},
{
glyphname = A;
lastChange = "2019-09-04 12:33:25 +0000";
layers = (
{
hints = (
{
horizontal = 1;
place = "{204.25, 51.33}";
type = Stem;
},
{
horizontal = 1;
place = "{682.76, 54.24}";
type = Stem;
},
{
place = "{16.66, 613.34}";
type = Stem;
}
);
layerId = "EE67F182-E529-43D3-8004-363E3BB4E65C";
paths = (
{
closed = 1;
nodes = (
"79.53 0 LINE",
"186.06 204.25 LINE",
"538.27 204.25 LINE",
"573.56 0 LINE",
"630 0 LINE",
"496.91 737 LINE",
"405.58 737 LINE",
"16.66 0 LINE"
);
},
{
closed = 1;
nodes = (
"435.63 682.76 LINE",
"455.59 682.76 LINE",
"529.4 255.59 LINE",
"212.83 255.58 LINE"
);
}
);
width = 647;
}
);
leftKerningGroup = A;
note = A;
rightKerningGroup = A;
unicode = 0041;
},
{
glyphname = Aacute;
lastChange = "2019-09-04 12:33:25 +0000";
layers = (
{
hints = (
{
horizontal = 1;
place = "{204.25, 51.33}";
type = Stem;
},
{
horizontal = 1;
place = "{682.76, 54.24}";
type = Stem;
},
{
horizontal = 1;
place = "{794.25, 143.66}";
type = Stem;
},
{
place = "{16.66, 613.34}";
type = Stem;
}
);
layerId = "EE67F182-E529-43D3-8004-363E3BB4E65C";
paths = (
{
closed = 1;
nodes = (
"79.53 0 LINE",
"186.06 204.25 LINE",
"538.27 204.25 LINE",
"573.56 0 LINE",
"630 0 LINE",
"496.91 737 LINE",
"405.58 737 LINE",
"16.66 0 LINE"
);
},
{
closed = 1;
nodes = (
"435.63 682.76 LINE",
"455.59 682.76 LINE",
"529.4 255.59 LINE",
"212.83 255.58 LINE"
);
},
{
closed = 1;
nodes = (
"488.9 794.25 LINE",
"628.35 937.91 LINE",
"551.29 937.91 LINE",
"435.66 794.25 LINE"
);
}
);
width = 647;
}
);
leftKerningGroup = A;
note = Aacute;
rightKerningGroup = A;
unicode = 00C1;
},
{
glyphname = Abreve;
lastChange = "2019-09-04 12:33:25 +0000";
layers = (
{
hints = (
{
horizontal = 1;
place = "{204.25, 51.33}";
type = Stem;
},
{
horizontal = 1;
place = "{682.76, 54.24}";
type = Stem;
},
{
horizontal = 1;
place = "{794.24, 39.92}";
type = Stem;
},
{
place = "{16.66, 613.34}";
type = Stem;
}
);
layerId = "EE67F182-E529-43D3-8004-363E3BB4E65C";
paths = (
{
closed = 1;
nodes = (
"79.53 0 LINE",
"186.06 204.25 LINE",
"538.27 204.25 LINE",
"573.56 0 LINE",
"630 0 LINE",
"496.91 737 LINE",
"405.58 737 LINE",
"16.66 0 LINE"
);
},
{
closed = 1;
nodes = (
"435.63 682.76 LINE",
"455.59 682.76 LINE",
"529.4 255.59 LINE",
"212.83 255.58 LINE"
);
},
{
closed = 1;
nodes = (
"529.85 794.25 LINE",
"589.9 845.18 LINE",
"603.12 919.58 LINE",
"562.33 919.58 LINE",
"552.58 864.58 LINE",
"516.87 834.16 LINE",
"409.04 834.16 LINE",
"384 864.58 LINE",
"393.75 919.58 LINE",
"352.96 919.58 LINE",
"341.44 854.38 LINE",
"391.56 794.22 LINE"
);
}
);
width = 647;
}
);
leftKerningGroup = A;
note = Abreve;
rightKerningGroup = A;
unicode = 0102;
},
{
glyphname = uni1EAE;
lastChange = "2019-09-04 12:33:25 +0000";
layers = (
{
hints = (
{
horizontal = 1;
place = "{204.25, 51.33}";
type = Stem;
},
{
horizontal = 1;
place = "{682.76, 54.24}";
type = Stem;
},
{
horizontal = 1;
place = "{794.24, 39.92}";
type = Stem;
},
{
horizontal = 1;
place = "{943.71, 143.66}";
type = Stem;
},
{
place = "{16.66, 630}";
type = Stem;
}
);
layerId = "EE67F182-E529-43D3-8004-363E3BB4E65C";
paths = (
{
closed = 1;
nodes = (
"79.53 0 LINE",
"186.06 204.25 LINE",
"538.27 204.25 LINE",
"573.56 0 LINE",
"630 0 LINE",
"496.91 737 LINE",
"405.58 737 LINE",
"16.66 0 LINE"
);
},
{
closed = 1;
nodes = (
"435.63 682.76 LINE",
"455.59 682.76 LINE",
"529.4 255.59 LINE",
"212.83 255.58 LINE"
);
},
{
closed = 1;
nodes = (
"529.85 794.25 LINE",
"589.9 845.18 LINE",
"603.12 919.58 LINE",
"562.33 919.58 LINE",
"552.58 864.58 LINE",
"516.87 834.16 LINE",
"409.04 834.16 LINE",
"384 864.58 LINE",
"393.75 919.58 LINE",
"352.96 919.58 LINE",
"341.44 854.38 LINE",
"391.56 794.22 LINE"
);
},
{
closed = 1;
nodes = (
"507.22 943.71 LINE",
"646.66 1087.37 LINE",
"569.61 1087.37 LINE",
"453.98 943.71 LINE"
);
}
);
width = 647;
}
);
leftKerningGroup = A;
note = uni1EAE;
rightKerningGroup = A;
unicode = 1EAE;
},
{
glyphname = uni1EB6;
lastChange = "2019-09-04 12:33:25 +0000";
layers = (
{
hints = (
{
horizontal = 1;
place = "{-167.96, 110.71}";
type = Stem;
},
{
horizontal = 1;
place = "{204.25, 51.33}";
type = Stem;
},
{
horizontal = 1;
place = "{682.76, 54.24}";
type = Stem;
},
{
horizontal = 1;
place = "{794.24, 39.92}";
type = Stem;
},
{
place = "{16.66, 613.34}";
type = Stem;
}
);
layerId = "EE67F182-E529-43D3-8004-363E3BB4E65C";
paths = (
{
closed = 1;
nodes = (
"79.53 0 LINE",
"186.06 204.25 LINE",
"538.27 204.25 LINE",
"573.56 0 LINE",
"630 0 LINE",
"496.91 737 LINE",
"405.58 737 LINE",
"16.66 0 LINE"
);
},
{
closed = 1;
nodes = (
"328.48 -167.95 LINE",
"348.02 -57.24 LINE",
"293.02 -57.24 LINE",
"273.48 -167.95 LINE"
);
},
{
closed = 1;
nodes = (
"435.63 682.76 LINE",
"455.59 682.76 LINE",
"529.4 255.59 LINE",
"212.83 255.58 LINE"
);
},
{
closed = 1;
nodes = (
"529.85 794.25 LINE",
"589.9 845.18 LINE",
"603.12 919.58 LINE",
"562.33 919.58 LINE",
"552.58 864.58 LINE",
"516.87 834.16 LINE",
"409.04 834.16 LINE",
"384 864.58 LINE",
"393.75 919.58 LINE",
"352.96 919.58 LINE",
"341.44 854.38 LINE",
"391.56 794.22 LINE"
);
}
);
width = 647;
}
);
leftKerningGroup = A;
note = uni1EB6;
rightKerningGroup = A;
unicode = 1EB6;
},
{
glyphname = uni1EB0;
lastChange = "2019-09-04 12:33:25 +0000";
layers = (
{
hints = (
{
horizontal = 1;
place = "{204.25, 51.33}";
type = Stem;
},
{
horizontal = 1;
place = "{682.76, 54.24}";
type = Stem;
},
{
horizontal = 1;
place = "{794.24, 39.92}";
type = Stem;
},
{
horizontal = 1;
place = "{943.57, 143.67}";
type = Stem;
},
{
place = "{16.66, 613.34}";
type = Stem;
}
);
layerId = "EE67F182-E529-43D3-8004-363E3BB4E65C";
paths = (
{
closed = 1;
nodes = (
"79.53 0 LINE",
"186.06 204.25 LINE",
"538.27 204.25 LINE",
"573.56 0 LINE",
"630 0 LINE",
"496.91 737 LINE",
"405.58 737 LINE",
"16.66 0 LINE"
);
},
{
closed = 1;
nodes = (
"435.63 682.76 LINE",
"455.59 682.76 LINE",
"529.4 255.59 LINE",
"212.83 255.58 LINE"
);
},
{
closed = 1;
nodes = (
"529.85 794.25 LINE",
"589.9 845.18 LINE",
"603.12 919.58 LINE",
"562.33 919.58 LINE",
"552.58 864.58 LINE",
"516.87 834.16 LINE",
"409.04 834.16 LINE",
"384 864.58 LINE",
"393.75 919.58 LINE",
"352.96 919.58 LINE",
"341.44 854.38 LINE",
"391.56 794.22 LINE"
);
},
{
closed = 1;
nodes = (
"494.88 943.57 LINE",
"430 1087.24 LINE",
"361.36 1087.24 LINE",
"448.8 943.57 LINE"
);
}
);
width = 647;
}
);
leftKerningGroup = A;
note = uni1EB0;
rightKerningGroup = A;
unicode = 1EB0;
},
{
glyphname = uni1EB2;
lastChange = "2019-09-04 12:33:25 +0000";
layers = (
{
hints = (
{
horizontal = 1;
place = "{204.25, 51.33}";
type = Stem;
},
{
horizontal = 1;
place = "{682.76, 54.24}";
type = Stem;
},
{
horizontal = 1;
place = "{794.24, 39.92}";
type = Stem;
},
{
horizontal = 1;
place = "{1103.12, 38.09}";
type = Stem;
},
{
place = "{463.84, 39.24}";
type = Stem;
}
);
layerId = "EE67F182-E529-43D3-8004-363E3BB4E65C";
paths = (
{
closed = 1;
nodes = (
"79.53 0 LINE",
"186.06 204.25 LINE",
"538.27 204.25 LINE",
"573.56 0 LINE",
"630 0 LINE",
"496.91 737 LINE",
"405.58 737 LINE",
"16.66 0 LINE"
);
},
{
closed = 1;
nodes = (
"435.63 682.76 LINE",
"455.59 682.76 LINE",
"529.4 255.59 LINE",
"212.83 255.58 LINE"
);
},
{
closed = 1;
nodes = (
"529.85 794.25 LINE",
"589.9 845.18 LINE",
"603.12 919.58 LINE",
"562.33 919.58 LINE",
"552.58 864.58 LINE",
"516.87 834.16 LINE",
"409.04 834.16 LINE",
"384 864.58 LINE",
"393.75 919.58 LINE",
"352.96 919.58 LINE",
"341.44 854.38 LINE",
"391.56 794.22 LINE"
);
},
{
closed = 1;
nodes = (
"500.68 943.71 LINE",
"505.48 970.4 LINE",
"585.34 1032.44 LINE",
"596.76 1097.14 LINE",
"561.9 1141.21 LINE",
"473.7 1141.21 LINE",
"426.64 1099.8 LINE",
"452.68 1069 LINE",
"491.6 1103.12 LINE",
"538.63 1103.12 LINE",
"551.52 1086.66 LINE",
"545.51 1052.83 LINE",
"468.05 991.25 LINE",
"459.64 943.71 LINE"
);
}
);
width = 647;
}
);
leftKerningGroup = A;
note = uni1EB2;
rightKerningGroup = A;
unicode = 1EB2;
},
{
glyphname = uni1EB4;
lastChange = "2019-09-04 12:33:25 +0000";
layers = (
{
hints = (
{
horizontal = 1;
place = "{204.25, 51.33}";
type = Stem;
},
{
horizontal = 1;
place = "{682.76, 54.24}";
type = Stem;
},
{
horizontal = 1;
place = "{794.24, 39.92}";
type = Stem;
},
{
horizontal = 1;
place = "{943.66, 39.21}";
type = Stem;
},
{
horizontal = 1;
place = "{1017, 39.21}";
type = Stem;
},
{
place = "{16.66, 637.9}";
type = Stem;
}
);
layerId = "EE67F182-E529-43D3-8004-363E3BB4E65C";
paths = (
{
closed = 1;
nodes = (
"79.53 0 LINE",
"186.06 204.25 LINE",
"538.27 204.25 LINE",
"573.56 0 LINE",
"630 0 LINE",
"496.91 737 LINE",
"405.58 737 LINE",
"16.66 0 LINE"
);
},
{
closed = 1;
nodes = (
"435.63 682.76 LINE",
"455.59 682.76 LINE",
"529.4 255.59 LINE",
"212.83 255.58 LINE"
);
},
{
closed = 1;
nodes = (
"529.85 794.25 LINE",
"589.9 845.18 LINE",
"603.12 919.58 LINE",
"562.33 919.58 LINE",
"552.58 864.58 LINE",
"516.87 834.16 LINE",
"409.04 834.16 LINE",
"384 864.58 LINE",
"393.75 919.58 LINE",
"352.96 919.58 LINE",
"341.44 854.38 LINE",
"391.56 794.22 LINE"
);
},
{
closed = 1;
nodes = (
"584.3 943.66 LINE",
"642.96 994.65 LINE",
"654.56 1055.08 LINE",
"620.29 1055.08 LINE",
"611.83 1019.12 LINE",
"567.29 982.87 LINE",
"530.29 982.87 LINE",
"468.96 1056.21 LINE",
"384.28 1056.21 LINE",
"325.48 1004.75 LINE",
"313.87 944.75 LINE",
"348.25 944.75 LINE",
"356.79 980.62 LINE",
"401.29 1017 LINE",
"446.69 1017 LINE",
"507.95 943.66 LINE"
);
}
);
width = 647;
}
);
leftKerningGroup = A;
note = uni1EB4;
rightKerningGroup = A;
unicode = 1EB4;
},
{
glyphname = Acircumflex;
lastChange = "2019-09-04 12:33:25 +0000";
layers = (
{
hints = (
{
horizontal = 1;
place = "{204.25, 51.33}";
type = Stem;
},
{
horizontal = 1;
place = "{682.76, 54.24}";
type = Stem;
},
{
horizontal = 1;
place = "{895.37, 38.21}";
type = Stem;
},
{
place = "{16.66, 613.34}";
type = Stem;
}
);
layerId = "EE67F182-E529-43D3-8004-363E3BB4E65C";
paths = (
{
closed = 1;
nodes = (
"79.53 0 LINE",
"186.06 204.25 LINE",
"538.27 204.25 LINE",
"573.56 0 LINE",
"630 0 LINE",
"496.91 737 LINE",
"405.58 737 LINE",
"16.66 0 LINE"
);
},
{
closed = 1;
nodes = (
"435.63 682.76 LINE",
"455.59 682.76 LINE",
"529.4 255.59 LINE",
"212.83 255.58 LINE"
);
},
{
closed = 1;
nodes = (
"367.08 794.25 LINE",
"471.87 895.37 LINE",
"483.54 895.37 LINE",
"552.66 794.25 LINE",
"598.97 794.25 LINE",
"516.08 933.58 LINE",
"441.83 933.58 LINE",
"315.75 794.25 LINE"
);
}
);
width = 647;
}
);
leftKerningGroup = A;
note = Acircumflex;
rightKerningGroup = A;
unicode = 00C2;
},
{
glyphname = uni1EA4;
lastChange = "2019-09-04 12:33:25 +0000";
layers = (
{
hints = (
{
horizontal = 1;
place = "{204.25, 51.33}";
type = Stem;
},
{
horizontal = 1;
place = "{682.76, 54.24}";
type = Stem;
},
{
horizontal = 1;
place = "{865.39, 143.67}";
type = Stem;
},
{
place = "{16.66, 775.56}";
type = Stem;
},
{
horizontal = 1;
place = "{895.37, 38.21}";
type = Stem;
}
);
layerId = "EE67F182-E529-43D3-8004-363E3BB4E65C";
paths = (
{
closed = 1;
nodes = (
"79.53 0 LINE",
"186.06 204.25 LINE",
"538.27 204.25 LINE",
"573.56 0 LINE",
"630 0 LINE",
"496.91 737 LINE",
"405.58 737 LINE",
"16.66 0 LINE"
);
},
{
closed = 1;
nodes = (
"435.63 682.76 LINE",
"455.59 682.76 LINE",
"529.4 255.59 LINE",
"212.83 255.58 LINE"
);
},
{
closed = 1;
nodes = (
"367.08 794.25 LINE",
"471.87 895.37 LINE",
"483.54 895.37 LINE",
"552.66 794.25 LINE",
"598.97 794.25 LINE",
"516.08 933.58 LINE",
"441.83 933.58 LINE",
"315.75 794.25 LINE"
);
},
{
closed = 1;
nodes = (
"652.78 865.39 LINE",
"792.22 1009.06 LINE",
"715.17 1009.06 LINE",
"599.54 865.39 LINE"
);
}
);
width = 647;
}
);
leftKerningGroup = A;
note = uni1EA4;
rightKerningGroup = A;
unicode = 1EA4;
},
{
glyphname = uni1EAC;
lastChange = "2019-09-04 12:33:25 +0000";
layers = (
{
hints = (
{
horizontal = 1;
place = "{-167.96, 110.71}";
type = Stem;
},
{
horizontal = 1;
place = "{204.25, 51.33}";
type = Stem;
},
{
horizontal = 1;
place = "{682.76, 54.24}";
type = Stem;
},
{
horizontal = 1;
place = "{895.37, 38.21}";
type = Stem;
},
{
place = "{16.66, 613.34}";
type = Stem;
}
);
layerId = "EE67F182-E529-43D3-8004-363E3BB4E65C";
paths = (
{
closed = 1;
nodes = (
"79.53 0 LINE",
"186.06 204.25 LINE",
"538.27 204.25 LINE",
"573.56 0 LINE",
"630 0 LINE",
"496.91 737 LINE",
"405.58 737 LINE",
"16.66 0 LINE"
);
},
{
closed = 1;
nodes = (
"328.48 -167.95 LINE",
"348.02 -57.24 LINE",
"293.02 -57.24 LINE",
"273.48 -167.95 LINE"
);
},
{
closed = 1;
nodes = (
"435.63 682.76 LINE",
"455.59 682.76 LINE",
"529.4 255.59 LINE",
"212.83 255.58 LINE"
);
},
{
closed = 1;
nodes = (
"367.08 794.25 LINE",
"471.87 895.37 LINE",
"483.54 895.37 LINE",
"552.66 794.25 LINE",
"598.97 794.25 LINE",
"516.08 933.58 LINE",
"441.83 933.58 LINE",
"315.75 794.25 LINE"
);
}
);
width = 647;
}
);
leftKerningGroup = A;
note = uni1EAC;
rightKerningGroup = A;
unicode = 1EAC;
},
{
glyphname = uni1EA6;
lastChange = "2019-09-04 12:33:25 +0000";
layers = (
{
hints = (
{
horizontal = 1;
place = "{204.25, 51.33}";
type = Stem;
},
{
horizontal = 1;
place = "{682.76, 54.24}";
type = Stem;
},
{
horizontal = 1;
place = "{865.38, 143.66}";
type = Stem;
},
{
place = "{16.66, 613.34}";
type = Stem;
},
{
horizontal = 1;
place = "{895.37, 38.21}";
type = Stem;
}
);
layerId = "EE67F182-E529-43D3-8004-363E3BB4E65C";
paths = (
{
closed = 1;
nodes = (
"79.53 0 LINE",
"186.06 204.25 LINE",
"538.27 204.25 LINE",
"573.56 0 LINE",
"630 0 LINE",
"496.91 737 LINE",
"405.58 737 LINE",
"16.66 0 LINE"
);
},
{
closed = 1;
nodes = (
"435.63 682.76 LINE",
"455.59 682.76 LINE",
"529.4 255.59 LINE",
"212.83 255.58 LINE"
);
},
{
closed = 1;
nodes = (
"332.84 865.38 LINE",
"267.96 1009.04 LINE",
"199.32 1009.04 LINE",
"286.76 865.38 LINE"
);
},
{
closed = 1;
nodes = (
"367.08 794.25 LINE",
"471.87 895.37 LINE",
"483.54 895.37 LINE",
"552.66 794.25 LINE",
"598.97 794.25 LINE",
"516.08 933.58 LINE",
"441.83 933.58 LINE",
"315.75 794.25 LINE"
);
}
);
width = 647;
}
);
leftKerningGroup = A;
note = uni1EA6;
rightKerningGroup = A;
unicode = 1EA6;
},
{
glyphname = uni1EA8;
lastChange = "2019-09-04 12:33:25 +0000";
layers = (
{
hints = (
{
horizontal = 1;
place = "{204.25, 51.33}";
type = Stem;
},
{
horizontal = 1;
place = "{682.76, 54.24}";
type = Stem;
},
{
horizontal = 1;
place = "{895.37, 38.21}";
type = Stem;
},
{
horizontal = 1;
place = "{1024.83, 38.08}";
type = Stem;
},
{
place = "{16.66, 708.58}";
type = Stem;
},
{
place = "{592.33, 39.23}";
type = Stem;
}
);
layerId = "EE67F182-E529-43D3-8004-363E3BB4E65C";
paths = (
{
closed = 1;
nodes = (
"79.53 0 LINE",
"186.06 204.25 LINE",
"538.27 204.25 LINE",
"573.56 0 LINE",
"630 0 LINE",
"496.91 737 LINE",
"405.58 737 LINE",
"16.66 0 LINE"
);
},
{
closed = 1;
nodes = (
"435.63 682.76 LINE",
"455.59 682.76 LINE",
"529.4 255.59 LINE",
"212.83 255.58 LINE"
);
},
{
closed = 1;
nodes = (
"367.08 794.25 LINE",
"471.87 895.37 LINE",
"483.54 895.37 LINE",
"552.66 794.25 LINE",
"598.97 794.25 LINE",
"516.08 933.58 LINE",
"441.83 933.58 LINE",
"315.75 794.25 LINE"
);
},
{
closed = 1;
nodes = (
"629.16 865.41 LINE",
"633.97 892.11 LINE",
"713.83 954.15 LINE",
"725.24 1018.85 LINE",
"690.38 1062.91 LINE",
"602.19 1062.91 LINE",
"555.13 1021.51 LINE",
"581.16 990.71 LINE",
"620.08 1024.83 LINE",
"667.11 1024.83 LINE",
"680.01 1008.37 LINE",
"674 974.54 LINE",
"596.54 912.96 LINE",
"588.12 865.41 LINE"
);
}
);
width = 647;
}
);
leftKerningGroup = A;
note = uni1EA8;
rightKerningGroup = A;
unicode = 1EA8;
},
{
glyphname = uni1EAA;
lastChange = "2019-09-04 12:33:25 +0000";
layers = (
{
hints = (
{
horizontal = 1;
place = "{204.25, 51.33}";
type = Stem;
},
{
horizontal = 1;
place = "{682.76, 54.24}";
type = Stem;
},
{
horizontal = 1;
place = "{957.54, 39.21}";
type = Stem;
},
{
horizontal = 1;
place = "{1030.87, 39.21}";
type = Stem;
},
{
place = "{16.66, 645.23}";
type = Stem;
},
{
horizontal = 1;
place = "{895.37, 38.21}";
type = Stem;
}
);
layerId = "EE67F182-E529-43D3-8004-363E3BB4E65C";
paths = (
{
closed = 1;
nodes = (
"79.53 0 LINE",
"186.06 204.25 LINE",
"538.27 204.25 LINE",
"573.56 0 LINE",
"630 0 LINE",
"496.91 737 LINE",
"405.58 737 LINE",
"16.66 0 LINE"
);
},
{
closed = 1;
nodes = (
"435.63 682.76 LINE",
"455.59 682.76 LINE",
"529.4 255.59 LINE",
"212.83 255.58 LINE"
);
},
{
closed = 1;
nodes = (
"367.08 794.25 LINE",
"471.87 895.37 LINE",
"483.54 895.37 LINE",
"552.66 794.25 LINE",
"598.97 794.25 LINE",
"516.08 933.58 LINE",
"441.83 933.58 LINE",
"315.75 794.25 LINE"
);
},
{
closed = 1;
nodes = (
"591.63 957.54 LINE",
"650.29 1008.53 LINE",
"661.89 1068.96 LINE",
"627.62 1068.96 LINE",
"619.16 1033 LINE",
"574.62 996.75 LINE",
"537.62 996.75 LINE",
"476.29 1070.08 LINE",
"391.62 1070.08 LINE",
"332.82 1018.62 LINE",
"321.2 958.62 LINE",
"355.58 958.62 LINE",
"364.12 994.5 LINE",
"408.62 1030.87 LINE",
"454.02 1030.87 LINE",
"515.29 957.54 LINE"
);
}
);
width = 647;
}
);
leftKerningGroup = A;
note = uni1EAA;
rightKerningGroup = A;
unicode = 1EAA;
},
{
glyphname = uni0200;
lastChange = "2019-09-04 12:33:25 +0000";
layers = (
{
hints = (
{
horizontal = 1;
place = "{204.25, 51.33}";
type = Stem;
},
{
horizontal = 1;
place = "{682.76, 54.24}";
type = Stem;
},
{
horizontal = 1;
place = "{794.25, 143.66}";
type = Stem;
},
{
place = "{16.66, 613.34}";
type = Stem;
}
);
layerId = "EE67F182-E529-43D3-8004-363E3BB4E65C";
paths = (
{
closed = 1;
nodes = (
"79.53 0 LINE",
"186.06 204.25 LINE",
"538.27 204.25 LINE",
"573.56 0 LINE",
"630 0 LINE",
"496.91 737 LINE",
"405.58 737 LINE",
"16.66 0 LINE"
);
},
{
closed = 1;
nodes = (
"435.63 682.76 LINE",
"455.59 682.76 LINE",
"529.4 255.59 LINE",
"212.83 255.58 LINE"
);
},
{
closed = 1;
nodes = (
"400.14 794.25 LINE",
"335.27 937.91 LINE",
"266.62 937.91 LINE",
"354.06 794.25 LINE"
);
},
{
closed = 1;
nodes = (
"538.25 794.25 LINE",
"473.37 937.91 LINE",
"404.73 937.91 LINE",
"492.16 794.25 LINE"
);
}
);
width = 647;
}
);
leftKerningGroup = A;
note = uni0200;
rightKerningGroup = A;
unicode = 0200;
},
{
glyphname = Adieresis;
lastChange = "2019-09-04 12:33:25 +0000";
layers = (
{
hints = (
{
horizontal = 1;
place = "{204.25, 51.33}";
type = Stem;
},
{
horizontal = 1;
place = "{682.76, 54.24}";
type = Stem;
},
{
horizontal = 1;
place = "{794.25, 110.83}";
type = Stem;
},
{
place = "{16.66, 622.84}";
type = Stem;
}
);
layerId = "EE67F182-E529-43D3-8004-363E3BB4E65C";
paths = (
{
closed = 1;
nodes = (
"79.53 0 LINE",
"186.06 204.25 LINE",
"538.27 204.25 LINE",
"573.56 0 LINE",
"630 0 LINE",
"496.91 737 LINE",
"405.58 737 LINE",
"16.66 0 LINE"
);
},
{
closed = 1;
nodes = (
"435.63 682.76 LINE",
"455.59 682.76 LINE",
"529.4 255.59 LINE",
"212.83 255.58 LINE"
);
},
{
closed = 1;
nodes = (
"354.12 794.25 LINE",
"373.66 905.08 LINE",
"318.66 905.08 LINE",
"299.12 794.25 LINE"
);
},
{
closed = 1;
nodes = (
"619.96 794.25 LINE",
"639.5 905.08 LINE",
"584.5 905.08 LINE",
"564.96 794.25 LINE"
);
}
);
width = 647;
}
);
leftKerningGroup = A;
note = Adieresis;
rightKerningGroup = A;
unicode = 00C4;
},
{
glyphname = uni1EA0;
lastChange = "2019-09-04 12:33:25 +0000";
layers = (
{
hints = (
{
horizontal = 1;
place = "{-167.96, 110.71}";
type = Stem;
},
{
horizontal = 1;
place = "{204.25, 51.33}";
type = Stem;
},
{
horizontal = 1;
place = "{682.76, 54.24}";
type = Stem;
},
{
place = "{16.66, 613.34}";
type = Stem;
}
);
layerId = "EE67F182-E529-43D3-8004-363E3BB4E65C";
paths = (
{
closed = 1;
nodes = (
"79.53 0 LINE",
"186.06 204.25 LINE",
"538.27 204.25 LINE",
"573.56 0 LINE",
"630 0 LINE",
"496.91 737 LINE",
"405.58 737 LINE",
"16.66 0 LINE"
);
},
{
closed = 1;
nodes = (
"328.48 -167.95 LINE",
"348.02 -57.24 LINE",
"293.02 -57.24 LINE",
"273.48 -167.95 LINE"
);
},
{
closed = 1;
nodes = (
"435.63 682.76 LINE",
"455.59 682.76 LINE",
"529.4 255.59 LINE",
"212.83 255.58 LINE"
);
}
);
width = 647;
}
);
leftKerningGroup = A;
note = uni1EA0;
rightKerningGroup = A;
unicode = 1EA0;
},
{
glyphname = Agrave;
lastChange = "2019-09-04 12:33:25 +0000";
layers = (
{
hints = (
{
horizontal = 1;
place = "{204.25, 51.33}";
type = Stem;
},
{
horizontal = 1;
place = "{682.76, 54.24}";
type = Stem;
},
{
horizontal = 1;
place = "{794.25, 143.66}";
type = Stem;
},
{
place = "{16.66, 613.34}";
type = Stem;
}
);
layerId = "EE67F182-E529-43D3-8004-363E3BB4E65C";
paths = (
{
closed = 1;
nodes = (
"79.53 0 LINE",
"186.06 204.25 LINE",
"538.27 204.25 LINE",
"573.56 0 LINE",
"630 0 LINE",
"496.91 737 LINE",
"405.58 737 LINE",
"16.66 0 LINE"
);
},
{
closed = 1;
nodes = (
"435.63 682.76 LINE",
"455.59 682.76 LINE",
"529.4 255.59 LINE",
"212.83 255.58 LINE"
);
},
{
closed = 1;
nodes = (
"467.65 794.25 LINE",
"402.77 937.91 LINE",
"334.13 937.91 LINE",
"421.57 794.25 LINE"
);
}
);
width = 647;
}
);
leftKerningGroup = A;
note = Agrave;
rightKerningGroup = A;
unicode = 00C0;
},
{
glyphname = uni1EA2;
lastChange = "2019-09-04 12:33:25 +0000";
layers = (
{
hints = (
{
horizontal = 1;
place = "{204.25, 51.33}";
type = Stem;
},
{
horizontal = 1;
place = "{682.76, 54.24}";
type = Stem;
},
{
horizontal = 1;
place = "{953.66, 38.09}";
type = Stem;
},
{
place = "{442.25, 39.23}";
type = Stem;
}
);
layerId = "EE67F182-E529-43D3-8004-363E3BB4E65C";
paths = (
{
closed = 1;
nodes = (
"79.53 0 LINE",
"186.06 204.25 LINE",
"538.27 204.25 LINE",
"573.56 0 LINE",
"630 0 LINE",
"496.91 737 LINE",
"405.58 737 LINE",
"16.66 0 LINE"
);
},
{
closed = 1;
nodes = (
"435.63 682.76 LINE",
"455.59 682.76 LINE",
"529.4 255.59 LINE",
"212.83 255.58 LINE"
);
},
{
closed = 1;
nodes = (
"479.08 794.25 LINE",
"483.88 820.94 LINE",
"563.74 882.98 LINE",
"575.16 947.69 LINE",
"540.3 991.75 LINE",
"452.11 991.75 LINE",
"405.05 950.35 LINE",
"431.08 919.54 LINE",
"470 953.66 LINE",
"517.03 953.66 LINE",
"529.92 937.21 LINE",
"523.91 903.37 LINE",
"446.46 841.79 LINE",
"438.04 794.25 LINE"
);
}
);
width = 647;
}
);
leftKerningGroup = A;
note = uni1EA2;
rightKerningGroup = A;
unicode = 1EA2;
},
{
glyphname = uni0202;
lastChange = "2019-09-04 12:33:25 +0000";
layers = (
{
hints = (
{
horizontal = 1;
place = "{204.25, 51.33}";
type = Stem;
},
{
horizontal = 1;
place = "{682.76, 54.24}";
type = Stem;
},
{
horizontal = 1;
place = "{879.62, 39.96}";
type = Stem;
},
{
place = "{16.66, 613.34}";
type = Stem;
}
);
layerId = "EE67F182-E529-43D3-8004-363E3BB4E65C";
paths = (
{
closed = 1;
nodes = (
"79.53 0 LINE",
"186.06 204.25 LINE",
"538.27 204.25 LINE",
"573.56 0 LINE",
"630 0 LINE",
"496.91 737 LINE",
"405.58 737 LINE",
"16.66 0 LINE"
);
},
{
closed = 1;
nodes = (
"435.63 682.76 LINE",
"455.59 682.76 LINE",
"529.4 255.59 LINE",
"212.83 255.58 LINE"
);
},
{
closed = 1;
nodes = (
"376.25 794.25 LINE",
"386 849.25 LINE",
"421.71 879.62 LINE",
"529.54 879.62 LINE",
"554.58 849.25 LINE",
"544.83 794.25 LINE",
"585.62 794.25 LINE",
"597.1 858.75 LINE",
"547.04 919.58 LINE",
"408.74 919.58 LINE",
"348.61 868.5 LINE",
"335.46 794.25 LINE"
);
}
);
width = 647;
}
);
leftKerningGroup = A;
note = uni0202;
rightKerningGroup = A;
unicode = 0202;
},
{
glyphname = Amacron;
lastChange = "2019-09-04 12:33:25 +0000";
layers = (
{
hints = (
{
horizontal = 1;
place = "{204.25, 51.33}";
type = Stem;
},
{
horizontal = 1;
place = "{682.76, 54.24}";
type = Stem;
},
{
horizontal = 1;
place = "{794.25, 43.96}";
type = Stem;
},
{
place = "{16.66, 613.34}";
type = Stem;
}
);
layerId = "EE67F182-E529-43D3-8004-363E3BB4E65C";
paths = (
{
closed = 1;
nodes = (
"79.53 0 LINE",
"186.06 204.25 LINE",
"538.27 204.25 LINE",
"573.56 0 LINE",
"630 0 LINE",
"496.91 737 LINE",
"405.58 737 LINE",
"16.66 0 LINE"
);
},
{
closed = 1;
nodes = (
"435.63 682.76 LINE",
"455.59 682.76 LINE",
"529.4 255.59 LINE",
"212.83 255.58 LINE"
);
},
{
closed = 1;
nodes = (
"621.62 794.25 LINE",
"629.46 838.21 LINE",
"308.62 838.21 LINE",
"300.79 794.25 LINE"
);
}
);
width = 647;
}
);
leftKerningGroup = A;
note = Amacron;
rightKerningGroup = A;
unicode = 0100;
},
{
glyphname = Aogonek;
lastChange = "2019-09-04 12:33:25 +0000";
layers = (
{
hints = (
{
horizontal = 1;
place = "{-149.63, 41.88}";
type = Stem;
},
{
horizontal = 1;
place = "{204.25, 51.33}";
type = Stem;
},
{
horizontal = 1;
place = "{682.76, 54.24}";
type = Stem;
},
{
place = "{16.66, 613.34}";
type = Stem;
}
);
layerId = "EE67F182-E529-43D3-8004-363E3BB4E65C";
paths = (
{
closed = 1;
nodes = (
"590.43 -149.63 LINE",
"597.81 -107.75 LINE",
"574.69 -107.75 LINE",
"550.36 -77 LINE",
"555.72 -46.64 LINE",
"630 0 LINE",
"496.91 737 LINE",
"405.58 737 LINE",
"16.66 0 LINE",
"79.53 0 LINE",
"186.06 204.25 LINE",
"538.27 204.25 LINE",
"573.56 0 LINE",
"517.12 -33 LINE",
"506.8 -91.53 LINE",
"553.96 -149.63 LINE"
);
},
{
closed = 1;
nodes = (
"435.63 682.76 LINE",
"455.59 682.76 LINE",
"529.4 255.59 LINE",
"212.83 255.58 LINE"
);
}
);
width = 591;
}
);
leftKerningGroup = A;
note = Aogonek;
rightKerningGroup = A;
unicode = 0104;
},
{
glyphname = Aring;
lastChange = "2019-09-04 12:33:25 +0000";
layers = (
{
hints = (
{
horizontal = 1;
place = "{204.25, 51.33}";
type = Stem;
},
{
horizontal = 1;
place = "{682.76, 54.24}";
type = Stem;
},
{
horizontal = 1;
place = "{794.25, 35.54}";
type = Stem;
},
{
horizontal = 1;
place = "{940.5, 35.54}";
type = Stem;
},
{
place = "{16.66, 613.34}";
type = Stem;
}
);
layerId = "EE67F182-E529-43D3-8004-363E3BB4E65C";
paths = (
{
closed = 1;
nodes = (
"79.53 0 LINE",
"186.06 204.25 LINE",
"538.27 204.25 LINE",
"573.56 0 LINE",
"630 0 LINE",
"496.91 737 LINE",
"405.58 737 LINE",
"16.66 0 LINE"
);
},
{
closed = 1;
nodes = (
"435.63 682.76 LINE",
"455.59 682.76 LINE",
"529.4 255.59 LINE",
"212.83 255.58 LINE"
);
},
{
closed = 1;
nodes = (
"502.28 794.25 LINE",
"561.61 844.79 LINE",
"574.21 916.2 LINE",
"525.07 976.04 LINE",
"442.08 976.04 LINE",
"382.95 925.55 LINE",
"370.34 854.18 LINE",
"419.68 794.25 LINE"
);
},
{
closed = 1;
nodes = (
"412.75 862 LINE",
"420.91 908.21 LINE",
"459 940.5 LINE",
"505.16 940.5 LINE",
"531.75 908.21 LINE",
"523.58 862 LINE",
"485.62 829.79 LINE",
"439.46 829.79 LINE"
);
}
);
width = 647;
}
);
leftKerningGroup = A;
note = Aring;
rightKerningGroup = A;
unicode = 00C5;
},
{
glyphname = Aringacute;
lastChange = "2019-09-04 12:33:25 +0000";
layers = (
{
hints = (
{
horizontal = 1;
place = "{204.25, 51.33}";
type = Stem;
},
{
horizontal = 1;
place = "{682.76, 54.24}";
type = Stem;
},
{
horizontal = 1;
place = "{794.25, 35.54}";
type = Stem;
},
{
horizontal = 1;
place = "{940.5, 35.54}";
type = Stem;
},
{
horizontal = 1;
place = "{1000.78, 143.66}";
type = Stem;
},
{
place = "{16.66, 640.07}";
type = Stem;
}
);
layerId = "EE67F182-E529-43D3-8004-363E3BB4E65C";
paths = (
{
closed = 1;
nodes = (
"79.53 0 LINE",
"186.06 204.25 LINE",
"538.27 204.25 LINE",
"573.56 0 LINE",
"630 0 LINE",
"496.91 737 LINE",
"405.58 737 LINE",
"16.66 0 LINE"
);
},
{
closed = 1;
nodes = (
"435.63 682.76 LINE",
"455.59 682.76 LINE",
"529.4 255.59 LINE",
"212.83 255.58 LINE"
);
},
{
closed = 1;
nodes = (
"502.28 794.25 LINE",
"561.61 844.79 LINE",
"574.21 916.2 LINE",
"525.07 976.04 LINE",
"442.08 976.04 LINE",
"382.95 925.55 LINE",
"370.34 854.18 LINE",
"419.68 794.25 LINE"
);
},
{
closed = 1;
nodes = (
"412.75 862 LINE",
"420.91 908.21 LINE",
"459 940.5 LINE",
"505.16 940.5 LINE",
"531.75 908.21 LINE",
"523.58 862 LINE",
"485.62 829.79 LINE",
"439.46 829.79 LINE"
);
},
{
closed = 1;
nodes = (
"517.29 1000.78 LINE",
"656.73 1144.44 LINE",
"579.68 1144.44 LINE",
"464.05 1000.78 LINE"
);
}
);
width = 647;
}
);
leftKerningGroup = A;
note = Aringacute;
rightKerningGroup = A;
unicode = 01FA;
},
{
glyphname = Atilde;
lastChange = "2019-09-04 12:33:25 +0000";
layers = (
{
hints = (
{
horizontal = 1;
place = "{204.25, 51.33}";
type = Stem;
},
{
horizontal = 1;
place = "{682.76, 54.24}";
type = Stem;
},
{
horizontal = 1;
place = "{794.25, 39.21}";
type = Stem;
},
{
horizontal = 1;
place = "{867.58, 39.21}";
type = Stem;
},
{
place = "{16.66, 626.69}";
type = Stem;
}
);
layerId = "EE67F182-E529-43D3-8004-363E3BB4E65C";
paths = (
{
closed = 1;
nodes = (
"79.53 0 LINE",
"186.06 204.25 LINE",
"538.27 204.25 LINE",
"573.56 0 LINE",
"630 0 LINE",
"496.91 737 LINE",
"405.58 737 LINE",
"16.66 0 LINE"
);
},
{
closed = 1;
nodes = (
"435.63 682.76 LINE",
"455.59 682.76 LINE",
"529.4 255.59 LINE",
"212.83 255.58 LINE"
);
},
{
closed = 1;
nodes = (
"573.09 794.25 LINE",
"631.75 845.23 LINE",
"643.35 905.66 LINE",
"609.08 905.66 LINE",
"600.62 869.71 LINE",
"556.08 833.46 LINE",
"519.08 833.46 LINE",
"457.75 906.79 LINE",
"373.08 906.79 LINE",
"314.28 855.33 LINE",
"302.66 795.33 LINE",
"337.04 795.33 LINE",
"345.58 831.21 LINE",
"390.08 867.58 LINE",
"435.48 867.58 LINE",
"496.75 794.25 LINE"
);
}
);
width = 647;
}
);
leftKerningGroup = A;
note = Atilde;
rightKerningGroup = A;
unicode = 00C3;
},
{
glyphname = AE;
lastChange = "2019-09-04 12:33:25 +0000";
layers = (
{
hints = (
{
horizontal = 1;
place = "{0, 52.79}";
type = Stem;
},
{
horizontal = 1;
place = "{204.25, 51.33}";
type = Stem;
},
{
horizontal = 1;
place = "{362.62, 52.79}";
type = Stem;
},
{
horizontal = 1;
place = "{684.21, 52.79}";
type = Stem;
},
{
place = "{16.66, 1007.17}";
type = Stem;
}
);
layerId = "EE67F182-E529-43D3-8004-363E3BB4E65C";
paths = (
{
closed = 1;
nodes = (
"79.53 0 LINE",
"186.06 204.25 LINE",
"538.27 204.25 LINE",
"573.56 0 LINE",
"893.83 0 LINE",
"903.16 52.79 LINE",
"620.46 52.79 LINE",
"564.52 362.62 LINE",
"907.16 362.62 LINE",
"916.46 415.41 LINE",
"554.98 415.41 LINE",
"506.45 684.21 LINE",
"1014.5 684.21 LINE",
"1023.83 737 LINE",
"405.58 737 LINE",
"16.66 0 LINE"
);
},
{
closed = 1;
nodes = (
"435.63 682.76 LINE",
"455.59 682.76 LINE",
"529.4 255.59 LINE",
"212.83 255.58 LINE"
);
}
);
width = 947;
}
);
leftKerningGroup = A;
note = AE;
rightKerningGroup = AE;
unicode = 00C6;
},
{
glyphname = AEacute;
lastChange = "2019-09-04 12:33:25 +0000";
layers = (
{
hints = (
{
horizontal = 1;
place = "{0, 52.79}";
type = Stem;
},
{
horizontal = 1;
place = "{204.25, 51.33}";
type = Stem;
},
{
horizontal = 1;
place = "{362.62, 52.79}";
type = Stem;
},
{
horizontal = 1;
place = "{684.21, 52.79}";
type = Stem;
},
{
horizontal = 1;
place = "{794.25, 143.66}";
type = Stem;
},
{
place = "{16.66, 1007.17}";
type = Stem;
}
);
layerId = "EE67F182-E529-43D3-8004-363E3BB4E65C";
paths = (
{
closed = 1;
nodes = (
"79.53 0 LINE",
"186.06 204.25 LINE",
"538.27 204.25 LINE",
"573.56 0 LINE",
"893.83 0 LINE",
"903.16 52.79 LINE",
"620.46 52.79 LINE",
"564.52 362.62 LINE",
"907.16 362.62 LINE",
"916.46 415.41 LINE",
"554.98 415.41 LINE",
"506.45 684.21 LINE",
"1014.5 684.21 LINE",
"1023.83 737 LINE",
"405.58 737 LINE",
"16.66 0 LINE"
);
},
{
closed = 1;
nodes = (
"435.63 682.76 LINE",
"455.59 682.76 LINE",
"529.4 255.59 LINE",
"212.83 255.58 LINE"
);
},
{
closed = 1;
nodes = (
"488.9 794.25 LINE",
"628.35 937.91 LINE",
"551.29 937.91 LINE",
"435.66 794.25 LINE"
);
}
);
width = 947;
}
);
leftKerningGroup = A;
note = AEacute;
rightKerningGroup = AE;
unicode = 01FC;
},
{
glyphname = B;
lastChange = "2019-09-04 12:33:25 +0000";
layers = (
{
hints = (
{
horizontal = 1;
place = "{0, 51.38}";
type = Stem;
},
{
horizontal = 1;
place = "{363.42, 51.29}";
type = Stem;
},
{
horizontal = 1;
place = "{685.71, 51.31}";
type = Stem;
},
{
place = "{93.33, 576.4}";
type = Stem;
}
);
layerId = "EE67F182-E529-43D3-8004-363E3BB4E65C";
paths = (
{
closed = 1;
nodes = (
"505.39 0 LINE",
"618.56 96.82 LINE",
"654.75 302.16 LINE",
"582.12 395.58 LINE",
"640.37 465.66 LINE",
"669.73 632.07 LINE",
"584.15 737.04 LINE",
"223.28 737 LINE",
"93.33 0 LINE"
);
},
{
closed = 1;
nodes = (
"214.16 363.38 LINE",
"537 363.46 LINE",
"595.79 287.62 LINE",
"565.83 117.33 LINE",
"488.87 51.41 LINE",
"159.14 51.34 LINE"
);
},
{
closed = 1;
nodes = (
"270.99 685.67 LINE",
"557.5 685.75 LINE",
"610.96 619.66 LINE",
"586.37 479.66 LINE",
"532.41 414.71 LINE",
"223.22 414.71 LINE"
);
}
);
width = 672;
}
);
leftKerningGroup = B;
note = B;
rightKerningGroup = B;
unicode = 0042;
},
{
glyphname = C;
lastChange = "2019-09-04 12:33:25 +0000";
layers = (
{
hints = (
{
horizontal = 1;
place = "{-0.04, 51.33}";
type = Stem;
},
{
horizontal = 1;
place = "{685.62, 51.36}";
type = Stem;
},
{
place = "{95.63, 609.77}";
type = Stem;
}
);
layerId = "EE67F182-E529-43D3-8004-363E3BB4E65C";
paths = (
{
closed = 1;
nodes = (
"627.18 100.84 LINE",
"593.88 141.91 LINE",
"487.63 51.33 LINE",
"207.88 51.25 LINE",
"154.38 117.33 LINE",
"242.75 619.66 LINE",
"319.75 685.58 LINE",
"592.92 685.66 LINE",
"665.38 597.33 LINE",
"705.4 631.61 LINE",
"619.57 736.96 LINE",
"298.12 737 LINE",
"191 645.38 LINE",
"95.63 105.02 LINE",
"181.35 0 LINE",
"509.3 -0.09 LINE"
);
}
);
width = 644;
}
);
leftKerningGroup = C;
note = C;
rightKerningGroup = C;
unicode = 0043;
},
{
glyphname = Cacute;
lastChange = "2019-09-04 12:33:25 +0000";
layers = (
{
hints = (
{
horizontal = 1;
place = "{-0.04, 51.33}";
type = Stem;
},
{
horizontal = 1;
place = "{685.62, 51.36}";
type = Stem;
},
{
horizontal = 1;
place = "{794.25, 143.66}";
type = Stem;
},
{
place = "{95.63, 609.77}";
type = Stem;
}
);
layerId = "EE67F182-E529-43D3-8004-363E3BB4E65C";
paths = (
{
closed = 1;
nodes = (
"627.18 100.84 LINE",
"593.88 141.91 LINE",
"487.63 51.33 LINE",
"207.88 51.25 LINE",
"154.38 117.33 LINE",
"242.75 619.66 LINE",
"319.75 685.58 LINE",
"592.92 685.66 LINE",
"665.38 597.33 LINE",
"705.4 631.61 LINE",
"619.57 736.96 LINE",
"298.12 737 LINE",
"191 645.38 LINE",
"95.63 105.02 LINE",
"181.35 0 LINE",
"509.3 -0.09 LINE"
);
},
{
closed = 1;
nodes = (
"496.7 794.25 LINE",
"636.14 937.91 LINE",
"559.09 937.91 LINE",
"443.46 794.25 LINE"
);
}
);
width = 644;
}
);
leftKerningGroup = C;
note = Cacute;
rightKerningGroup = C;
unicode = 0106;
},
{
glyphname = Ccaron;
lastChange = "2019-09-04 12:33:25 +0000";
layers = (
{
hints = (
{
horizontal = 1;
place = "{-0.04, 51.33}";
type = Stem;
},
{
horizontal = 1;
place = "{685.62, 51.36}";
type = Stem;
},
{
horizontal = 1;
place = "{794.24, 38.21}";
type = Stem;
},
{
place = "{95.63, 609.77}";
type = Stem;
}
);
layerId = "EE67F182-E529-43D3-8004-363E3BB4E65C";
paths = (
{
closed = 1;
nodes = (
"627.18 100.84 LINE",
"593.88 141.91 LINE",
"487.63 51.33 LINE",
"207.88 51.25 LINE",
"154.38 117.33 LINE",
"242.75 619.66 LINE",
"319.75 685.58 LINE",
"592.92 685.66 LINE",
"665.38 597.33 LINE",
"705.4 631.61 LINE",
"619.57 736.96 LINE",
"298.12 737 LINE",
"191 645.38 LINE",
"95.63 105.02 LINE",
"181.35 0 LINE",
"509.3 -0.09 LINE"
);
},
{
closed = 1;
nodes = (
"502.64 794.24 LINE",
"628.72 933.58 LINE",
"577.39 933.58 LINE",
"472.59 832.45 LINE",
"460.93 832.45 LINE",
"391.8 933.58 LINE",
"345.5 933.58 LINE",
"428.38 794.24 LINE"
);
}
);
width = 644;
}
);
leftKerningGroup = C;
note = Ccaron;
rightKerningGroup = C;
unicode = 010C;
},
{
glyphname = Ccedilla;
lastChange = "2019-09-04 12:33:25 +0000";
layers = (
{
hints = (
{
horizontal = 1;
place = "{-0.02, 51.31}";
type = Stem;
},
{
horizontal = 1;
place = "{685.62, 51.36}";
type = Stem;
},
{
place = "{95.63, 609.77}";
type = Stem;
}
);
layerId = "EE67F182-E529-43D3-8004-363E3BB4E65C";
paths = (
{
closed = 1;
nodes = (
"313.74 -129.79 LINE",
"375.94 -0.05 LINE",
"509.3 -0.09 LINE",
"627.18 100.84 LINE",
"593.88 141.91 LINE",
"487.63 51.33 LINE",
"207.88 51.25 LINE",
"154.38 117.33 LINE",
"242.75 619.66 LINE",
"319.75 685.58 LINE",
"592.92 685.66 LINE",
"665.38 597.33 LINE",
"705.4 631.61 LINE",
"619.57 736.96 LINE",
"298.12 737 LINE",
"191 645.38 LINE",
"95.63 105.02 LINE",
"181.35 0 LINE",
"322.74 -0.04 LINE",
"268.34 -129.79 LINE"
);
}
);
width = 644;
}
);
leftKerningGroup = C;
note = Ccedilla;
rightKerningGroup = C;
unicode = 00C7;
},
{
glyphname = Ccircumflex;
lastChange = "2019-09-04 12:33:25 +0000";
layers = (
{
hints = (
{
horizontal = 1;
place = "{-0.04, 51.33}";
type = Stem;
},
{
horizontal = 1;
place = "{685.62, 51.36}";
type = Stem;
},
{
horizontal = 1;
place = "{895.37, 38.21}";
type = Stem;
},
{
place = "{95.63, 609.77}";
type = Stem;
}
);
layerId = "EE67F182-E529-43D3-8004-363E3BB4E65C";
paths = (
{
closed = 1;
nodes = (
"627.18 100.84 LINE",
"593.88 141.91 LINE",
"487.63 51.33 LINE",
"207.88 51.25 LINE",
"154.38 117.33 LINE",
"242.75 619.66 LINE",
"319.75 685.58 LINE",
"592.92 685.66 LINE",
"665.38 597.33 LINE",
"705.4 631.61 LINE",
"619.57 736.96 LINE",
"298.12 737 LINE",
"191 645.38 LINE",
"95.63 105.02 LINE",
"181.35 0 LINE",
"509.3 -0.09 LINE"
);
},
{
closed = 1;
nodes = (
"374.88 794.25 LINE",
"479.67 895.37 LINE",
"491.34 895.37 LINE",
"560.46 794.25 LINE",
"606.76 794.25 LINE",
"523.88 933.58 LINE",
"449.63 933.58 LINE",
"323.55 794.25 LINE"
);
}
);
width = 644;
}
);
leftKerningGroup = C;
note = Ccircumflex;
rightKerningGroup = C;
unicode = 0108;
},
{
glyphname = Cdotaccent;
lastChange = "2019-09-04 12:33:25 +0000";
layers = (
{
hints = (
{
horizontal = 1;
place = "{-0.04, 51.33}";
type = Stem;
},
{
horizontal = 1;
place = "{685.62, 51.36}";
type = Stem;
},
{
horizontal = 1;
place = "{794.25, 110.71}";
type = Stem;
},
{
place = "{95.63, 609.77}";
type = Stem;
}
);
layerId = "EE67F182-E529-43D3-8004-363E3BB4E65C";
paths = (
{
closed = 1;
nodes = (
"627.18 100.84 LINE",
"593.88 141.91 LINE",
"487.63 51.33 LINE",
"207.88 51.25 LINE",
"154.38 117.33 LINE",
"242.75 619.66 LINE",
"319.75 685.58 LINE",
"592.92 685.66 LINE",
"665.38 597.33 LINE",
"705.4 631.61 LINE",
"619.57 736.96 LINE",
"298.12 737 LINE",
"191 645.38 LINE",
"95.63 105.02 LINE",
"181.35 0 LINE",
"509.3 -0.09 LINE"
);
},
{
closed = 1;
nodes = (
"496.5 794.25 LINE",
"516.05 904.96 LINE",
"461.05 904.96 LINE",
"441.5 794.25 LINE"
);
}
);
width = 644;
}
);
leftKerningGroup = C;
note = Cdotaccent;
rightKerningGroup = C;
unicode = 010A;
},
{
glyphname = D;
lastChange = "2019-09-04 12:33:25 +0000";
layers = (
{
hints = (
{
horizontal = 1;
place = "{-0.02, 51.35}";
type = Stem;
},
{
horizontal = 1;
place = "{685.66, 51.32}";
type = Stem;
},
{
place = "{93.33, 628.44}";
type = Stem;
}
);
layerId = "EE67F182-E529-43D3-8004-363E3BB4E65C";
paths = (
{
closed = 1;
nodes = (
"646.4 147.95 LINE",
"721.77 576.02 LINE",
"593.23 736.96 LINE",
"280.04 736.99 LINE",
"280.04 736.99 LINE",
"223.28 736.99 LINE",
"93.33 -0.01 LINE",
"476.56 -0.05 LINE"
);
},
{
closed = 1;
nodes = (
"270.99 685.65 LINE",
"566.46 685.65 LINE",
"663.21 563.57 LINE",
"594.41 173.49 LINE",
"454.66 51.32 LINE",
"159.14 51.32 LINE"
);
}
);
width = 690;
}
);
leftKerningGroup = B;
note = D;
rightKerningGroup = D;
unicode = 0044;
},
{
glyphname = uni01C4;
lastChange = "2019-09-04 12:33:25 +0000";
layers = (
{
hints = (
{
horizontal = 1;
place = "{0, 52.79}";
type = Stem;
},
{
horizontal = 1;
place = "{684.21, 52.79}";
type = Stem;
},
{
horizontal = 1;
place = "{794.24, 38.21}";
type = Stem;
},
{
place = "{93.33, 1321.75}";
type = Stem;
}
);
layerId = "EE67F182-E529-43D3-8004-363E3BB4E65C";
paths = (
{
closed = 1;
nodes = (
"646.4 147.96 LINE",
"721.77 576.03 LINE",
"593.23 736.96 LINE",
"223.28 737 LINE",
"93.33 0 LINE",
"476.56 -0.04 LINE"
);
},
{
closed = 1;
nodes = (
"270.99 685.66 LINE",
"566.46 685.66 LINE",
"663.21 563.58 LINE",
"594.41 173.5 LINE",
"454.66 51.33 LINE",
"159.14 51.33 LINE"
);
},
{
closed = 1;
nodes = (
"1294.66 0 LINE",
"1303.96 52.79 LINE",
"873.04 52.79 LINE",
"876.83 74.04 LINE",
"1402.28 665.9 LINE",
"1415.08 737 LINE",
"943.16 737 LINE",
"933.83 684.21 LINE",
"1331.41 684.21 LINE",
"1327.66 662.96 LINE",
"806.76 76.77 LINE",
"793.33 0 LINE"
);
},
{
closed = 1;
nodes = (
"1225.13 794.24 LINE",
"1351.21 933.58 LINE",
"1299.88 933.58 LINE",
"1195.09 832.45 LINE",
"1183.42 832.45 LINE",
"1114.3 933.58 LINE",
"1067.99 933.58 LINE",
"1150.88 794.24 LINE"
);
}
);
width = 1378;
}
);
note = uni01C4;
unicode = 01C4;
},
{
glyphname = Eth;
lastChange = "2019-09-04 12:33:25 +0000";
layers = (
{
hints = (
{
horizontal = 1;
place = "{-0.02, 51.35}";
type = Stem;
},
{
horizontal = 1;
place = "{350.16, 47.67}";
type = Stem;
},
{
horizontal = 1;
place = "{685.66, 51.32}";
type = Stem;
},
{
place = "{78.21, 643.56}";
type = Stem;
}
);
layerId = "EE67F182-E529-43D3-8004-363E3BB4E65C";
paths = (
{
closed = 1;
nodes = (
"646.4 147.95 LINE",
"721.77 576.02 LINE",
"593.23 736.96 LINE",
"280.04 736.99 LINE",
"280.04 736.99 LINE",
"223.28 736.99 LINE",
"163.48 397.82 LINE",
"86.58 397.82 LINE",
"78.21 350.15 LINE",
"155.07 350.15 LINE",
"93.33 -0.01 LINE",
"476.56 -0.05 LINE"
);
},
{
closed = 1;
nodes = (
"211.83 350.15 LINE",
"365.37 350.15 LINE",
"373.75 397.82 LINE",
"220.24 397.82 LINE",
"270.99 685.65 LINE",
"566.46 685.65 LINE",
"663.21 563.57 LINE",
"594.41 173.49 LINE",
"454.66 51.32 LINE",
"159.14 51.32 LINE"
);
}
);
width = 690;
}
);
note = Eth;
rightKerningGroup = D;
unicode = 00D0;
},
{
glyphname = Dcaron;
lastChange = "2019-09-04 12:33:25 +0000";
layers = (
{
hints = (
{
horizontal = 1;
place = "{-0.02, 51.35}";
type = Stem;
},
{
horizontal = 1;
place = "{685.66, 51.32}";
type = Stem;
},
{
horizontal = 1;
place = "{794.24, 38.21}";
type = Stem;
},
{
place = "{93.33, 628.44}";
type = Stem;
}
);
layerId = "EE67F182-E529-43D3-8004-363E3BB4E65C";
paths = (
{
closed = 1;
nodes = (
"646.4 147.95 LINE",
"721.77 576.02 LINE",
"593.23 736.96 LINE",
"280.04 736.99 LINE",
"280.04 736.99 LINE",
"223.28 736.99 LINE",
"93.33 -0.01 LINE",
"476.56 -0.05 LINE"
);
},
{
closed = 1;
nodes = (
"270.99 685.65 LINE",
"566.46 685.65 LINE",
"663.21 563.57 LINE",
"594.41 173.49 LINE",
"454.66 51.32 LINE",
"159.14 51.32 LINE"
);
},
{
closed = 1;
nodes = (
"489.46 794.24 LINE",
"615.54 933.58 LINE",
"564.21 933.58 LINE",
"459.42 832.45 LINE",
"447.75 832.45 LINE",
"378.63 933.58 LINE",
"332.33 933.58 LINE",
"415.21 794.24 LINE"
);
}
);
width = 690;
}
);
note = Dcaron;
rightKerningGroup = D;
unicode = 010E;
},
{
glyphname = Dcroat;
lastChange = "2019-09-04 12:33:25 +0000";
layers = (
{
hints = (
{
horizontal = 1;
place = "{-0.02, 51.35}";
type = Stem;
},
{
horizontal = 1;
place = "{350.16, 47.67}";
type = Stem;
},
{
horizontal = 1;
place = "{685.66, 51.32}";
type = Stem;
},
{
place = "{78.21, 643.56}";
type = Stem;
}
);
layerId = "EE67F182-E529-43D3-8004-363E3BB4E65C";
paths = (
{
closed = 1;
nodes = (
"646.4 147.95 LINE",
"721.77 576.02 LINE",
"593.23 736.96 LINE",
"280.04 736.99 LINE",
"280.04 736.99 LINE",
"223.28 736.99 LINE",
"163.48 397.82 LINE",
"86.58 397.82 LINE",
"78.21 350.15 LINE",
"155.07 350.15 LINE",
"93.33 -0.01 LINE",
"476.56 -0.05 LINE"
);
},
{
closed = 1;
nodes = (
"211.83 350.15 LINE",
"365.37 350.15 LINE",
"373.75 397.82 LINE",
"220.24 397.82 LINE",
"270.99 685.65 LINE",
"566.46 685.65 LINE",
"663.21 563.57 LINE",
"594.41 173.49 LINE",
"454.66 51.32 LINE",
"159.14 51.32 LINE"
);
}
);
width = 690;
}
);
note = Dcroat;
rightKerningGroup = D;
unicode = 0110;
},
{
glyphname = uni01C5;
lastChange = "2019-09-04 12:33:25 +0000";
layers = (
{
hints = (
{
horizontal = 1;
place = "{0, 47.66}";
type = Stem;
},
{
horizontal = 1;
place = "{474.83, 47.67}";
type = Stem;
},
{
horizontal = 1;
place = "{579.74, 38.21}";
type = Stem;
},
{
horizontal = 1;
place = "{685.66, 51.32}";
type = Stem;
},
{
place = "{93.33, 1181.38}";
type = Stem;
},
{
horizontal = 1;
place = "{-0.02, 51.35}";
type = Stem;
}
);
layerId = "EE67F182-E529-43D3-8004-363E3BB4E65C";
paths = (
{
closed = 1;
nodes = (
"646.4 147.96 LINE",
"721.77 576.03 LINE",
"593.23 736.96 LINE",
"223.28 737 LINE",
"93.33 0 LINE",
"476.56 -0.04 LINE"
);
},
{
closed = 1;
nodes = (
"270.99 685.66 LINE",
"566.46 685.66 LINE",
"663.21 563.58 LINE",
"594.41 173.5 LINE",
"454.66 51.33 LINE",
"159.14 51.33 LINE"
);
},
{
closed = 1;
nodes = (
"1192.79 0 LINE",
"1201.21 47.66 LINE",
"845.06 47.66 LINE",
"849.27 48.75 LINE",
"1261.78 449.45 LINE",
"1274.71 522.5 LINE",
"900.71 522.5 LINE",
"892.29 474.83 LINE",
"1218.25 474.83 LINE",
"1214.12 474.12 LINE",
"795.41 68.54 LINE",
"783.29 0 LINE"
);
},
{
closed = 1;
nodes = (
"1131.3 579.74 LINE",
"1257.38 719.08 LINE",
"1206.05 719.08 LINE",
"1101.25 617.95 LINE",
"1089.59 617.95 LINE",
"1020.46 719.08 LINE",
"974.16 719.08 LINE",
"1057.04 579.74 LINE"
);
}
);
width = 1249;
}
);
note = uni01C5;
unicode = 01C5;
},
{
glyphname = E;
lastChange = "2019-09-04 12:33:25 +0000";
layers = (
{
hints = (
{
horizontal = 1;
place = "{0, 52.79}";
type = Stem;
},
{
horizontal = 1;
place = "{362.62, 52.79}";
type = Stem;
},
{
horizontal = 1;
place = "{684.21, 52.79}";
type = Stem;
},
{
place = "{93.33, 598.58}";
type = Stem;
}
);
layerId = "EE67F182-E529-43D3-8004-363E3BB4E65C";
paths = (
{
closed = 1;
nodes = (
"561.91 0 LINE",
"571.21 52.79 LINE",
"159.4 52.79 LINE",
"214.03 362.62 LINE",
"575.25 362.62 LINE",
"584.54 415.41 LINE",
"223.34 415.41 LINE",
"270.74 684.21 LINE",
"682.58 684.21 LINE",
"691.91 737 LINE",
"223.28 737 LINE",
"93.33 0 LINE"
);
}
);
width = 615;
}
);
note = E;
rightKerningGroup = AE;
unicode = 0045;
},
{
glyphname = Eacute;
lastChange = "2019-09-04 12:33:25 +0000";
layers = (
{
hints = (
{
horizontal = 1;
place = "{0, 52.79}";
type = Stem;
},
{
horizontal = 1;
place = "{362.62, 52.79}";
type = Stem;
},
{
horizontal = 1;
place = "{684.21, 52.79}";
type = Stem;
},
{
horizontal = 1;
place = "{794.25, 143.66}";
type = Stem;
},
{
place = "{93.33, 598.58}";
type = Stem;
}
);
layerId = "EE67F182-E529-43D3-8004-363E3BB4E65C";
paths = (
{
closed = 1;
nodes = (
"561.91 0 LINE",
"571.21 52.79 LINE",
"159.4 52.79 LINE",
"214.03 362.62 LINE",
"575.25 362.62 LINE",
"584.54 415.41 LINE",
"223.34 415.41 LINE",
"270.74 684.21 LINE",
"682.58 684.21 LINE",
"691.91 737 LINE",
"223.28 737 LINE",
"93.33 0 LINE"
);
},
{
closed = 1;
nodes = (
"495.32 794.25 LINE",
"634.76 937.91 LINE",
"557.71 937.91 LINE",
"442.08 794.25 LINE"
);
}
);
width = 615;
}
);
note = Eacute;
rightKerningGroup = AE;
unicode = 00C9;
},
{
glyphname = Ebreve;
lastChange = "2019-09-04 12:33:25 +0000";
layers = (
{
hints = (
{
horizontal = 1;
place = "{0, 52.79}";
type = Stem;
},
{
horizontal = 1;
place = "{362.62, 52.79}";
type = Stem;
},
{
horizontal = 1;
place = "{684.21, 52.79}";
type = Stem;
},
{
horizontal = 1;
place = "{794.24, 39.92}";
type = Stem;
},
{
place = "{93.33, 598.58}";
type = Stem;
}
);
layerId = "EE67F182-E529-43D3-8004-363E3BB4E65C";
paths = (
{
closed = 1;
nodes = (
"561.91 0 LINE",
"571.21 52.79 LINE",
"159.4 52.79 LINE",
"214.03 362.62 LINE",
"575.25 362.62 LINE",
"584.54 415.41 LINE",
"223.34 415.41 LINE",
"270.74 684.21 LINE",
"682.58 684.21 LINE",
"691.91 737 LINE",
"223.28 737 LINE",
"93.33 0 LINE"
);
},
{
closed = 1;
nodes = (
"536.27 794.25 LINE",
"596.32 845.18 LINE",
"609.54 919.58 LINE",
"568.75 919.58 LINE",
"559 864.58 LINE",
"523.29 834.16 LINE",
"415.46 834.16 LINE",
"390.41 864.58 LINE",
"400.16 919.58 LINE",
"359.37 919.58 LINE",
"347.85 854.38 LINE",
"397.98 794.22 LINE"
);
}
);
width = 615;
}
);
note = Ebreve;
rightKerningGroup = AE;
unicode = 0114;
},
{
glyphname = Ecaron;
lastChange = "2019-09-04 12:33:25 +0000";
layers = (
{
hints = (
{
horizontal = 1;
place = "{0, 52.79}";
type = Stem;
},
{
horizontal = 1;
place = "{362.62, 52.79}";
type = Stem;
},
{
horizontal = 1;
place = "{684.21, 52.79}";
type = Stem;
},
{
horizontal = 1;
place = "{794.24, 38.21}";
type = Stem;
},
{
place = "{93.33, 598.58}";
type = Stem;
}
);
layerId = "EE67F182-E529-43D3-8004-363E3BB4E65C";
paths = (
{
closed = 1;
nodes = (
"561.91 0 LINE",
"571.21 52.79 LINE",
"159.4 52.79 LINE",
"214.03 362.62 LINE",
"575.25 362.62 LINE",
"584.54 415.41 LINE",
"223.34 415.41 LINE",
"270.74 684.21 LINE",
"682.58 684.21 LINE",
"691.91 737 LINE",
"223.28 737 LINE",
"93.33 0 LINE"
);
},
{
closed = 1;
nodes = (
"501.25 794.24 LINE",
"627.34 933.58 LINE",
"576 933.58 LINE",
"471.21 832.45 LINE",
"459.55 832.45 LINE",
"390.42 933.58 LINE",
"344.12 933.58 LINE",
"427 794.24 LINE"
);
}
);
width = 615;
}
);
note = Ecaron;
rightKerningGroup = AE;
unicode = 011A;
},
{
glyphname = Ecircumflex;
lastChange = "2019-09-04 12:33:25 +0000";
layers = (
{
hints = (
{
horizontal = 1;
place = "{0, 52.79}";
type = Stem;
},
{
horizontal = 1;
place = "{362.62, 52.79}";
type = Stem;
},
{
horizontal = 1;
place = "{684.21, 52.79}";
type = Stem;
},
{
horizontal = 1;
place = "{895.37, 38.21}";
type = Stem;
},
{
place = "{93.33, 598.58}";
type = Stem;
}
);
layerId = "EE67F182-E529-43D3-8004-363E3BB4E65C";
paths = (
{
closed = 1;
nodes = (
"561.91 0 LINE",
"571.21 52.79 LINE",
"159.4 52.79 LINE",
"214.03 362.62 LINE",
"575.25 362.62 LINE",
"584.54 415.41 LINE",
"223.34 415.41 LINE",
"270.74 684.21 LINE",
"682.58 684.21 LINE",
"691.91 737 LINE",
"223.28 737 LINE",
"93.33 0 LINE"
);
},
{
closed = 1;
nodes = (
"373.5 794.25 LINE",
"478.29 895.37 LINE",
"489.96 895.37 LINE",
"559.08 794.25 LINE",
"605.38 794.25 LINE",
"522.5 933.58 LINE",
"448.25 933.58 LINE",
"322.17 794.25 LINE"
);
}
);
width = 615;
}
);
note = Ecircumflex;
rightKerningGroup = AE;
unicode = 00CA;
},
{
glyphname = uni1EBE;
lastChange = "2019-09-04 12:33:25 +0000";
layers = (
{
hints = (
{
horizontal = 1;
place = "{0, 52.79}";
type = Stem;
},
{
horizontal = 1;
place = "{362.62, 52.79}";
type = Stem;
},
{
horizontal = 1;
place = "{684.21, 52.79}";
type = Stem;
},
{
horizontal = 1;
place = "{865.39, 143.67}";
type = Stem;
},
{
place = "{93.33, 705.31}";
type = Stem;
},
{
horizontal = 1;
place = "{895.37, 38.21}";
type = Stem;
}
);
layerId = "EE67F182-E529-43D3-8004-363E3BB4E65C";
paths = (
{
closed = 1;
nodes = (
"561.91 0 LINE",
"571.21 52.79 LINE",
"159.4 52.79 LINE",
"214.03 362.62 LINE",
"575.25 362.62 LINE",
"584.54 415.41 LINE",
"223.34 415.41 LINE",
"270.74 684.21 LINE",
"682.58 684.21 LINE",
"691.91 737 LINE",
"223.28 737 LINE",
"93.33 0 LINE"
);
},
{
closed = 1;
nodes = (
"373.5 794.25 LINE",
"478.29 895.37 LINE",
"489.96 895.37 LINE",
"559.08 794.25 LINE",
"605.38 794.25 LINE",
"522.5 933.58 LINE",
"448.25 933.58 LINE",
"322.17 794.25 LINE"
);
},
{
closed = 1;
nodes = (
"659.2 865.39 LINE",
"798.64 1009.06 LINE",
"721.58 1009.06 LINE",
"605.96 865.39 LINE"
);
}
);
width = 615;
}
);
note = uni1EBE;
rightKerningGroup = AE;
unicode = 1EBE;
},
{
glyphname = uni1EC6;
lastChange = "2019-09-04 12:33:25 +0000";
layers = (
{
hints = (
{
horizontal = 1;
place = "{-167.96, 110.71}";
type = Stem;
},
{
horizontal = 1;
place = "{0, 52.79}";
type = Stem;
},
{
horizontal = 1;
place = "{362.62, 52.79}";
type = Stem;
},
{
horizontal = 1;
place = "{684.21, 52.79}";
type = Stem;
},
{
horizontal = 1;
place = "{895.37, 38.21}";
type = Stem;
},
{
place = "{93.33, 598.58}";
type = Stem;
}
);
layerId = "EE67F182-E529-43D3-8004-363E3BB4E65C";
paths = (
{
closed = 1;
nodes = (
"561.91 0 LINE",
"571.21 52.79 LINE",
"159.4 52.79 LINE",
"214.03 362.62 LINE",
"575.25 362.62 LINE",
"584.54 415.41 LINE",
"223.34 415.41 LINE",
"270.74 684.21 LINE",
"682.58 684.21 LINE",
"691.91 737 LINE",
"223.28 737 LINE",
"93.33 0 LINE"
);
},
{
closed = 1;
nodes = (
"321.23 -167.96 LINE",
"340.77 -57.25 LINE",
"285.77 -57.25 LINE",
"266.23 -167.96 LINE"
);
},
{
closed = 1;
nodes = (
"373.5 794.25 LINE",
"478.29 895.37 LINE",
"489.96 895.37 LINE",
"559.08 794.25 LINE",
"605.38 794.25 LINE",
"522.5 933.58 LINE",
"448.25 933.58 LINE",
"322.17 794.25 LINE"
);
}
);
width = 615;
}
);
note = uni1EC6;
rightKerningGroup = AE;
unicode = 1EC6;
},
{
glyphname = uni1EC0;
lastChange = "2019-09-04 12:33:25 +0000";
layers = (
{
hints = (
{
horizontal = 1;
place = "{0, 52.79}";
type = Stem;
},
{
horizontal = 1;
place = "{362.62, 52.79}";
type = Stem;
},
{
horizontal = 1;
place = "{684.21, 52.79}";
type = Stem;
},
{
horizontal = 1;
place = "{865.38, 143.66}";
type = Stem;
},
{
place = "{93.33, 598.58}";
type = Stem;
},
{
horizontal = 1;
place = "{895.37, 38.21}";
type = Stem;
}
);
layerId = "EE67F182-E529-43D3-8004-363E3BB4E65C";
paths = (
{
closed = 1;
nodes = (
"561.91 0 LINE",
"571.21 52.79 LINE",
"159.4 52.79 LINE",
"214.03 362.62 LINE",
"575.25 362.62 LINE",
"584.54 415.41 LINE",
"223.34 415.41 LINE",
"270.74 684.21 LINE",
"682.58 684.21 LINE",
"691.91 737 LINE",
"223.28 737 LINE",
"93.33 0 LINE"
);
},
{
closed = 1;
nodes = (
"339.25 865.38 LINE",
"274.38 1009.04 LINE",
"205.74 1009.04 LINE",
"293.17 865.38 LINE"
);
},
{
closed = 1;
nodes = (
"373.5 794.25 LINE",
"478.29 895.37 LINE",
"489.96 895.37 LINE",
"559.08 794.25 LINE",
"605.38 794.25 LINE",
"522.5 933.58 LINE",
"448.25 933.58 LINE",
"322.17 794.25 LINE"
);
}
);
width = 615;
}
);
leftKerningGroup = B;
note = uni1EC0;
rightKerningGroup = AE;
unicode = 1EC0;
},
{
glyphname = uni1EC2;
lastChange = "2019-09-04 12:33:25 +0000";
layers = (
{
hints = (
{
horizontal = 1;
place = "{0, 52.79}";
type = Stem;
},
{
horizontal = 1;
place = "{362.62, 52.79}";
type = Stem;
},
{
horizontal = 1;
place = "{684.21, 52.79}";
type = Stem;
},
{
horizontal = 1;
place = "{895.37, 38.21}";
type = Stem;
},
{
horizontal = 1;
place = "{1024.83, 38.08}";
type = Stem;
},
{
place = "{93.33, 638.33}";
type = Stem;
},
{
place = "{598.75, 39.23}";
type = Stem;
}
);
layerId = "EE67F182-E529-43D3-8004-363E3BB4E65C";
paths = (
{
closed = 1;
nodes = (
"561.91 0 LINE",
"571.21 52.79 LINE",
"159.4 52.79 LINE",
"214.03 362.62 LINE",
"575.25 362.62 LINE",
"584.54 415.41 LINE",
"223.34 415.41 LINE",
"270.74 684.21 LINE",
"682.58 684.21 LINE",
"691.91 737 LINE",
"223.28 737 LINE",
"93.33 0 LINE"
);
},
{
closed = 1;
nodes = (
"373.5 794.25 LINE",
"478.29 895.37 LINE",
"489.96 895.37 LINE",
"559.08 794.25 LINE",
"605.38 794.25 LINE",
"522.5 933.58 LINE",
"448.25 933.58 LINE",
"322.17 794.25 LINE"
);
},
{
closed = 1;
nodes = (
"635.58 865.41 LINE",
"640.38 892.11 LINE",
"720.24 954.15 LINE",
"731.66 1018.85 LINE",
"696.8 1062.91 LINE",
"608.61 1062.91 LINE",
"561.55 1021.51 LINE",
"587.58 990.71 LINE",
"626.5 1024.83 LINE",
"673.53 1024.83 LINE",
"686.43 1008.37 LINE",
"680.41 974.54 LINE",
"602.96 912.96 LINE",
"594.54 865.41 LINE"
);
}
);
width = 615;
}
);
note = uni1EC2;
rightKerningGroup = AE;
unicode = 1EC2;
},
{
glyphname = uni1EC4;
lastChange = "2019-09-04 12:33:25 +0000";
layers = (
{
hints = (
{
horizontal = 1;
place = "{0, 52.79}";
type = Stem;
},
{
horizontal = 1;
place = "{362.62, 52.79}";
type = Stem;
},
{
horizontal = 1;
place = "{684.21, 52.79}";
type = Stem;
},
{
horizontal = 1;
place = "{957.54, 39.21}";
type = Stem;
},
{
horizontal = 1;
place = "{1030.87, 39.21}";
type = Stem;
},
{
place = "{93.33, 598.58}";
type = Stem;
},
{
horizontal = 1;
place = "{895.37, 38.21}";
type = Stem;
}
);
layerId = "EE67F182-E529-43D3-8004-363E3BB4E65C";
paths = (
{
closed = 1;
nodes = (
"561.91 0 LINE",
"571.21 52.79 LINE",
"159.4 52.79 LINE",
"214.03 362.62 LINE",
"575.25 362.62 LINE",
"584.54 415.41 LINE",
"223.34 415.41 LINE",
"270.74 684.21 LINE",
"682.58 684.21 LINE",
"691.91 737 LINE",
"223.28 737 LINE",
"93.33 0 LINE"
);
},
{
closed = 1;
nodes = (
"373.5 794.25 LINE",
"478.29 895.37 LINE",
"489.96 895.37 LINE",
"559.08 794.25 LINE",
"605.38 794.25 LINE",
"522.5 933.58 LINE",
"448.25 933.58 LINE",
"322.17 794.25 LINE"
);
},
{
closed = 1;
nodes = (
"598.05 957.54 LINE",
"656.71 1008.53 LINE",
"668.31 1068.96 LINE",
"634.04 1068.96 LINE",
"625.58 1033 LINE",
"581.04 996.75 LINE",
"544.04 996.75 LINE",
"482.71 1070.08 LINE",
"398.03 1070.08 LINE",
"339.23 1018.62 LINE",
"327.62 958.62 LINE",
"362 958.62 LINE",
"370.54 994.5 LINE",
"415.04 1030.87 LINE",
"460.44 1030.87 LINE",
"521.7 957.54 LINE"
);
}
);
width = 615;
}
);
note = uni1EC4;
rightKerningGroup = AE;
unicode = 1EC4;
},
{
glyphname = uni0204;
lastChange = "2019-09-04 12:33:25 +0000";
layers = (
{
hints = (
{
horizontal = 1;
place = "{0, 52.79}";
type = Stem;
},
{
horizontal = 1;
place = "{362.62, 52.79}";
type = Stem;
},
{
horizontal = 1;
place = "{684.21, 52.79}";
type = Stem;
},
{
horizontal = 1;
place = "{794.25, 143.66}";
type = Stem;
},
{
place = "{93.33, 598.58}";
type = Stem;
}
);
layerId = "EE67F182-E529-43D3-8004-363E3BB4E65C";
paths = (
{
closed = 1;
nodes = (
"561.91 0 LINE",
"571.21 52.79 LINE",
"159.4 52.79 LINE",
"214.03 362.62 LINE",
"575.25 362.62 LINE",
"584.54 415.41 LINE",
"223.34 415.41 LINE",
"270.74 684.21 LINE",
"682.58 684.21 LINE",
"691.91 737 LINE",
"223.28 737 LINE",
"93.33 0 LINE"
);
},
{
closed = 1;
nodes = (
"406.56 794.25 LINE",
"341.68 937.91 LINE",
"273.04 937.91 LINE",
"360.48 794.25 LINE"
);
},
{
closed = 1;
nodes = (
"544.66 794.25 LINE",
"479.79 937.91 LINE",
"411.14 937.91 LINE",
"498.58 794.25 LINE"
);
}
);
width = 615;
}
);
leftKerningGroup = B;
note = uni0204;
rightKerningGroup = AE;
unicode = 0204;
},
{
glyphname = Edieresis;
lastChange = "2019-09-04 12:33:25 +0000";
layers = (
{
hints = (
{
horizontal = 1;
place = "{0, 52.79}";
type = Stem;
},
{
horizontal = 1;
place = "{362.62, 52.79}";
type = Stem;
},
{
horizontal = 1;
place = "{684.21, 52.79}";
type = Stem;
},
{
horizontal = 1;
place = "{794.25, 110.83}";
type = Stem;
},
{
place = "{93.33, 598.58}";
type = Stem;
}
);
layerId = "EE67F182-E529-43D3-8004-363E3BB4E65C";
paths = (
{
closed = 1;
nodes = (
"561.91 0 LINE",
"571.21 52.79 LINE",
"159.4 52.79 LINE",
"214.03 362.62 LINE",
"575.25 362.62 LINE",
"584.54 415.41 LINE",
"223.34 415.41 LINE",
"270.74 684.21 LINE",
"682.58 684.21 LINE",
"691.91 737 LINE",
"223.28 737 LINE",
"93.33 0 LINE"
);
},
{
closed = 1;
nodes = (
"360.54 794.25 LINE",
"380.08 905.08 LINE",
"325.08 905.08 LINE",
"305.54 794.25 LINE"
);
},
{
closed = 1;
nodes = (
"626.37 794.25 LINE",
"645.91 905.08 LINE",
"590.91 905.08 LINE",
"571.37 794.25 LINE"
);
}
);
width = 615;
}
);
note = Edieresis;
rightKerningGroup = AE;
unicode = 00CB;
},
{
glyphname = Edotaccent;
lastChange = "2019-09-04 12:33:25 +0000";
layers = (
{
hints = (
{
horizontal = 1;
place = "{0, 52.79}";
type = Stem;
},
{
horizontal = 1;
place = "{362.62, 52.79}";
type = Stem;
},
{
horizontal = 1;
place = "{684.21, 52.79}";
type = Stem;
},
{
horizontal = 1;
place = "{794.25, 110.71}";
type = Stem;
},
{
place = "{93.33, 598.58}";
type = Stem;
}
);
layerId = "EE67F182-E529-43D3-8004-363E3BB4E65C";
paths = (
{
closed = 1;
nodes = (
"561.91 0 LINE",
"571.21 52.79 LINE",
"159.4 52.79 LINE",
"214.03 362.62 LINE",
"575.25 362.62 LINE",
"584.54 415.41 LINE",
"223.34 415.41 LINE",
"270.74 684.21 LINE",
"682.58 684.21 LINE",
"691.91 737 LINE",
"223.28 737 LINE",
"93.33 0 LINE"
);
},
{
closed = 1;
nodes = (
"495.12 794.25 LINE",
"514.66 904.96 LINE",
"459.66 904.96 LINE",
"440.12 794.25 LINE"
);
}
);
width = 615;
}
);
note = Edotaccent;
rightKerningGroup = AE;
unicode = 0116;
},
{
glyphname = uni1EB8;
lastChange = "2019-09-04 12:33:25 +0000";
layers = (
{
hints = (
{
horizontal = 1;
place = "{-167.96, 110.71}";
type = Stem;
},
{
horizontal = 1;
place = "{0, 52.79}";
type = Stem;
},
{
horizontal = 1;
place = "{362.62, 52.79}";
type = Stem;
},
{
horizontal = 1;
place = "{684.21, 52.79}";
type = Stem;
},
{
place = "{93.33, 598.58}";
type = Stem;
}
);
layerId = "EE67F182-E529-43D3-8004-363E3BB4E65C";
paths = (
{
closed = 1;
nodes = (
"561.91 0 LINE",
"571.21 52.79 LINE",
"159.4 52.79 LINE",
"214.03 362.62 LINE",
"575.25 362.62 LINE",
"584.54 415.41 LINE",
"223.34 415.41 LINE",
"270.74 684.21 LINE",
"682.58 684.21 LINE",
"691.91 737 LINE",
"223.28 737 LINE",
"93.33 0 LINE"
);
},
{
closed = 1;
nodes = (
"321.23 -167.96 LINE",
"340.77 -57.25 LINE",
"285.77 -57.25 LINE",
"266.23 -167.96 LINE"
);
}
);
width = 615;
}
);
note = uni1EB8;
rightKerningGroup = AE;
unicode = 1EB8;
},
{
glyphname = Egrave;
lastChange = "2019-09-04 12:33:25 +0000";
layers = (
{
hints = (
{
horizontal = 1;
place = "{0, 52.79}";
type = Stem;
},
{
horizontal = 1;
place = "{362.62, 52.79}";
type = Stem;
},
{
horizontal = 1;
place = "{684.21, 52.79}";
type = Stem;
},
{
horizontal = 1;
place = "{794.25, 143.66}";
type = Stem;
},
{
place = "{93.33, 598.58}";
type = Stem;
}
);
layerId = "EE67F182-E529-43D3-8004-363E3BB4E65C";
paths = (
{
closed = 1;
nodes = (
"561.91 0 LINE",
"571.21 52.79 LINE",
"159.4 52.79 LINE",
"214.03 362.62 LINE",
"575.25 362.62 LINE",
"584.54 415.41 LINE",
"223.34 415.41 LINE",
"270.74 684.21 LINE",
"682.58 684.21 LINE",
"691.91 737 LINE",
"223.28 737 LINE",
"93.33 0 LINE"
);
},
{
closed = 1;
nodes = (
"474.06 794.25 LINE",
"409.19 937.91 LINE",
"340.55 937.91 LINE",
"427.98 794.25 LINE"
);
}
);
width = 615;
}
);
note = Egrave;
rightKerningGroup = AE;
unicode = 00C8;
},
{
glyphname = uni1EBA;
lastChange = "2019-09-04 12:33:25 +0000";
layers = (
{
hints = (
{
horizontal = 1;
place = "{0, 52.79}";
type = Stem;
},
{
horizontal = 1;
place = "{362.62, 52.79}";
type = Stem;
},
{
horizontal = 1;
place = "{684.21, 52.79}";
type = Stem;
},
{
horizontal = 1;
place = "{953.66, 38.09}";
type = Stem;
},
{
place = "{448.66, 39.24}";
type = Stem;
}
);
layerId = "EE67F182-E529-43D3-8004-363E3BB4E65C";
paths = (
{
closed = 1;
nodes = (
"561.91 0 LINE",
"571.21 52.79 LINE",
"159.4 52.79 LINE",
"214.03 362.62 LINE",
"575.25 362.62 LINE",
"584.54 415.41 LINE",
"223.34 415.41 LINE",
"270.74 684.21 LINE",
"682.58 684.21 LINE",
"691.91 737 LINE",
"223.28 737 LINE",
"93.33 0 LINE"
);
},
{
closed = 1;
nodes = (
"485.5 794.25 LINE",
"490.3 820.94 LINE",
"570.16 882.98 LINE",
"581.58 947.69 LINE",
"546.71 991.75 LINE",
"458.52 991.75 LINE",
"411.46 950.35 LINE",
"437.5 919.54 LINE",
"476.41 953.66 LINE",
"523.44 953.66 LINE",
"536.34 937.21 LINE",
"530.33 903.37 LINE",
"452.87 841.79 LINE",
"444.46 794.25 LINE"
);
}
);
width = 615;
}
);
note = uni1EBA;
rightKerningGroup = AE;
unicode = 1EBA;
},
{
glyphname = uni0206;
lastChange = "2019-09-04 12:33:25 +0000";
layers = (
{
hints = (
{
horizontal = 1;
place = "{0, 52.79}";
type = Stem;
},
{
horizontal = 1;
place = "{362.62, 52.79}";
type = Stem;
},
{
horizontal = 1;
place = "{684.21, 52.79}";
type = Stem;
},
{
horizontal = 1;
place = "{879.62, 39.96}";
type = Stem;
},
{
place = "{93.33, 598.58}";
type = Stem;
}
);
layerId = "EE67F182-E529-43D3-8004-363E3BB4E65C";
paths = (
{
closed = 1;
nodes = (
"561.91 0 LINE",
"571.21 52.79 LINE",
"159.4 52.79 LINE",
"214.03 362.62 LINE",
"575.25 362.62 LINE",
"584.54 415.41 LINE",
"223.34 415.41 LINE",
"270.74 684.21 LINE",
"682.58 684.21 LINE",
"691.91 737 LINE",
"223.28 737 LINE",
"93.33 0 LINE"
);
},
{
closed = 1;
nodes = (
"382.66 794.25 LINE",
"392.41 849.25 LINE",
"428.12 879.62 LINE",
"535.96 879.62 LINE",
"561 849.25 LINE",
"551.25 794.25 LINE",
"592.04 794.25 LINE",
"603.51 858.75 LINE",
"553.46 919.58 LINE",
"415.16 919.58 LINE",
"355.03 868.5 LINE",
"341.87 794.25 LINE"
);
}
);
width = 615;
}
);
note = uni0206;
rightKerningGroup = AE;
unicode = 0206;
},
{
glyphname = Emacron;
lastChange = "2019-09-04 12:33:25 +0000";
layers = (
{
hints = (
{
horizontal = 1;
place = "{0, 52.79}";
type = Stem;
},
{
horizontal = 1;
place = "{362.62, 52.79}";
type = Stem;
},
{
horizontal = 1;
place = "{684.21, 52.79}";
type = Stem;
},
{
horizontal = 1;
place = "{794.25, 43.96}";
type = Stem;
},
{
place = "{93.33, 598.58}";
type = Stem;
}
);
layerId = "EE67F182-E529-43D3-8004-363E3BB4E65C";
paths = (
{
closed = 1;
nodes = (
"561.91 0 LINE",
"571.21 52.79 LINE",
"159.4 52.79 LINE",
"214.03 362.62 LINE",
"575.25 362.62 LINE",
"584.54 415.41 LINE",
"223.34 415.41 LINE",
"270.74 684.21 LINE",
"682.58 684.21 LINE",
"691.91 737 LINE",
"223.28 737 LINE",
"93.33 0 LINE"
);
},
{
closed = 1;
nodes = (
"628.04 794.25 LINE",
"635.87 838.21 LINE",
"315.04 838.21 LINE",
"307.21 794.25 LINE"
);
}
);
width = 615;
}
);
note = Emacron;
rightKerningGroup = AE;
unicode = 0112;
},
{
glyphname = Eogonek;
lastChange = "2019-09-04 12:33:25 +0000";
layers = (
{
hints = (
{
horizontal = 1;
place = "{-149.63, 41.79}";
type = Stem;
},
{
horizontal = 1;
place = "{0, 52.79}";
type = Stem;
},
{
horizontal = 1;
place = "{362.62, 52.79}";
type = Stem;
},
{
horizontal = 1;
place = "{684.21, 52.79}";
type = Stem;
},
{
place = "{93.33, 598.58}";
type = Stem;
}
);
layerId = "EE67F182-E529-43D3-8004-363E3BB4E65C";
paths = (
{
closed = 1;
nodes = (
"535.5 -149.63 LINE",
"542.87 -107.84 LINE",
"517.58 -107.84 LINE",
"494.29 -79.59 LINE",
"501.12 -41.25 LINE",
"561.91 0 LINE",
"571.21 52.79 LINE",
"159.4 52.79 LINE",
"214.03 362.62 LINE",
"575.25 362.62 LINE",
"584.54 415.41 LINE",
"223.34 415.41 LINE",
"270.74 684.21 LINE",
"682.58 684.21 LINE",
"691.91 737 LINE",
"223.28 737 LINE",
"93.33 0 LINE",
"506.87 0 LINE",
"463.05 -29.71 LINE",
"452.17 -91.96 LINE",
"499.52 -149.63 LINE"
);
}
);
width = 615;
}
);
note = Eogonek;
rightKerningGroup = AE;
unicode = 0118;
},
{
glyphname = uni1EBC;
lastChange = "2019-09-04 12:33:25 +0000";
layers = (
{
hints = (
{
horizontal = 1;
place = "{0, 52.79}";
type = Stem;
},
{
horizontal = 1;
place = "{362.62, 52.79}";
type = Stem;
},
{
horizontal = 1;
place = "{684.21, 52.79}";
type = Stem;
},
{
horizontal = 1;
place = "{794.25, 39.21}";
type = Stem;
},
{
horizontal = 1;
place = "{867.58, 39.21}";
type = Stem;
},
{
place = "{93.33, 598.58}";
type = Stem;
}
);
layerId = "EE67F182-E529-43D3-8004-363E3BB4E65C";
paths = (
{
closed = 1;
nodes = (
"561.92 0 LINE",
"571.22 52.79 LINE",
"159.41 52.79 LINE",
"214.04 362.62 LINE",
"575.26 362.62 LINE",
"584.55 415.41 LINE",
"223.35 415.41 LINE",
"270.75 684.21 LINE",
"682.59 684.21 LINE",
"691.92 737 LINE",
"223.29 737 LINE",
"93.34 0 LINE"
);
},
{
closed = 1;
nodes = (
"579.51 794.25 LINE",
"638.17 845.23 LINE",
"649.77 905.66 LINE",
"615.5 905.66 LINE",
"607.04 869.71 LINE",
"562.5 833.46 LINE",
"525.5 833.46 LINE",
"464.18 906.79 LINE",
"379.5 906.79 LINE",
"320.7 855.33 LINE",
"309.09 795.33 LINE",
"343.47 795.33 LINE",
"352 831.21 LINE",
"396.5 867.58 LINE",
"441.9 867.58 LINE",
"503.16 794.25 LINE"
);
}
);
width = 615;
}
);
note = uni1EBC;
rightKerningGroup = AE;
unicode = 1EBC;
},
{
glyphname = F;
lastChange = "2019-09-04 12:33:25 +0000";
layers = (
{
hints = (
{
horizontal = 1;
place = "{347.25, 52.79}";
type = Stem;
},
{
horizontal = 1;
place = "{684.21, 52.79}";
type = Stem;
},
{
place = "{93.33, 587.58}";
type = Stem;
}
);
layerId = "EE67F182-E529-43D3-8004-363E3BB4E65C";
paths = (
{
closed = 1;
nodes = (
"150.09 0 LINE",
"211.32 347.25 LINE",
"562.29 347.25 LINE",
"571.62 400.04 LINE",
"220.63 400.04 LINE",
"270.74 684.21 LINE",
"671.58 684.21 LINE",
"680.91 737 LINE",
"223.28 737 LINE",
"93.33 0 LINE"
);
}
);
width = 571;
}
);
note = F;
rightKerningGroup = F;
unicode = 0046;
},
{
glyphname = G;
lastChange = "2019-09-04 12:33:25 +0000";
layers = (
{
hints = (
{
horizontal = 1;
place = "{0, 51.29}";
type = Stem;
},
{
horizontal = 1;
place = "{318.25, 51.33}";
type = Stem;
},
{
horizontal = 1;
place = "{685.62, 51.36}";
type = Stem;
},
{
place = "{95.63, 625.52}";
type = Stem;
}
);
layerId = "EE67F182-E529-43D3-8004-363E3BB4E65C";
paths = (
{
closed = 1;
nodes = (
"466.13 0 LINE",
"578.93 94.46 LINE",
"562.25 0 LINE",
"611.38 0 LINE",
"676.59 369.58 LINE",
"456.17 369.58 LINE",
"447.13 318.25 LINE",
"618.42 318.25 LINE",
"591.54 165.96 LINE",
"455.21 51.33 LINE",
"207.88 51.25 LINE",
"154.38 117.33 LINE",
"242.75 619.66 LINE",
"319.75 685.58 LINE",
"608.67 685.66 LINE",
"681.09 597.33 LINE",
"721.15 631.63 LINE",
"635.32 736.96 LINE",
"298.12 737 LINE",
"190.89 645.29 LINE",
"95.63 105.02 LINE",
"181.35 0 LINE"
);
}
);
width = 702;
}
);
leftKerningGroup = C;
note = G;
rightKerningGroup = G;
unicode = 0047;
},
{
glyphname = Gbreve;
lastChange = "2019-09-04 12:33:25 +0000";
layers = (
{
hints = (
{
horizontal = 1;
place = "{0, 51.29}";
type = Stem;
},
{
horizontal = 1;
place = "{318.25, 51.33}";
type = Stem;
},
{
horizontal = 1;
place = "{685.62, 51.36}";
type = Stem;
},
{
horizontal = 1;
place = "{794.24, 39.92}";
type = Stem;
},
{
place = "{95.63, 625.52}";
type = Stem;
}
);
layerId = "EE67F182-E529-43D3-8004-363E3BB4E65C";
paths = (
{
closed = 1;
nodes = (
"466.13 0 LINE",
"578.93 94.46 LINE",
"562.25 0 LINE",
"611.38 0 LINE",
"676.59 369.58 LINE",
"456.17 369.58 LINE",
"447.13 318.25 LINE",
"618.42 318.25 LINE",
"591.54 165.96 LINE",
"455.21 51.33 LINE",
"207.88 51.25 LINE",
"154.38 117.33 LINE",
"242.75 619.66 LINE",
"319.75 685.58 LINE",
"608.67 685.66 LINE",
"681.09 597.33 LINE",
"721.15 631.63 LINE",
"635.32 736.96 LINE",
"298.12 737 LINE",
"190.89 645.29 LINE",
"95.63 105.02 LINE",
"181.35 0 LINE"
);
},
{
closed = 1;
nodes = (
"546.36 794.25 LINE",
"606.41 845.18 LINE",
"619.63 919.58 LINE",
"578.84 919.58 LINE",
"569.09 864.58 LINE",
"533.38 834.16 LINE",
"425.55 834.16 LINE",
"400.5 864.58 LINE",
"410.25 919.58 LINE",
"369.46 919.58 LINE",
"357.94 854.38 LINE",
"408.07 794.22 LINE"
);
}
);
width = 702;
}
);
leftKerningGroup = C;
note = Gbreve;
rightKerningGroup = G;
unicode = 011E;
},
{
glyphname = Gcaron;
lastChange = "2019-09-04 12:33:25 +0000";
layers = (
{
hints = (
{
horizontal = 1;
place = "{0, 51.29}";
type = Stem;
},
{
horizontal = 1;
place = "{318.25, 51.33}";
type = Stem;
},
{
horizontal = 1;
place = "{685.62, 51.36}";
type = Stem;
},
{
horizontal = 1;
place = "{794.24, 38.21}";
type = Stem;
},
{
place = "{95.63, 625.52}";
type = Stem;
}
);
layerId = "EE67F182-E529-43D3-8004-363E3BB4E65C";
paths = (
{
closed = 1;
nodes = (
"466.13 0 LINE",
"578.93 94.46 LINE",
"562.25 0 LINE",
"611.38 0 LINE",
"676.59 369.58 LINE",
"456.17 369.58 LINE",
"447.13 318.25 LINE",
"618.42 318.25 LINE",
"591.54 165.96 LINE",
"455.21 51.33 LINE",
"207.88 51.25 LINE",
"154.38 117.33 LINE",
"242.75 619.66 LINE",
"319.75 685.58 LINE",
"608.67 685.66 LINE",
"681.09 597.33 LINE",
"721.15 631.63 LINE",
"635.32 736.96 LINE",
"298.12 737 LINE",
"190.89 645.29 LINE",
"95.63 105.02 LINE",
"181.35 0 LINE"
);
},
{
closed = 1;
nodes = (
"511.34 794.24 LINE",
"637.43 933.58 LINE",
"586.09 933.58 LINE",
"481.3 832.45 LINE",
"469.64 832.45 LINE",
"400.51 933.58 LINE",
"354.21 933.58 LINE",
"437.09 794.24 LINE"
);
}
);
width = 702;
}
);
leftKerningGroup = C;
note = Gcaron;
rightKerningGroup = G;
unicode = 01E6;
},
{
glyphname = Gcircumflex;
lastChange = "2019-09-04 12:33:25 +0000";
layers = (
{
hints = (
{
horizontal = 1;
place = "{0, 51.29}";
type = Stem;
},
{
horizontal = 1;
place = "{318.25, 51.33}";
type = Stem;
},
{
horizontal = 1;
place = "{685.62, 51.36}";
type = Stem;
},
{
horizontal = 1;
place = "{895.37, 38.21}";
type = Stem;
},
{
place = "{95.63, 625.52}";
type = Stem;
}
);
layerId = "EE67F182-E529-43D3-8004-363E3BB4E65C";
paths = (
{
closed = 1;
nodes = (
"466.13 0 LINE",
"578.93 94.46 LINE",
"562.25 0 LINE",
"611.38 0 LINE",
"676.59 369.58 LINE",
"456.17 369.58 LINE",
"447.13 318.25 LINE",
"618.42 318.25 LINE",
"591.54 165.96 LINE",
"455.21 51.33 LINE",
"207.88 51.25 LINE",
"154.38 117.33 LINE",
"242.75 619.66 LINE",
"319.75 685.58 LINE",
"608.67 685.66 LINE",
"681.09 597.33 LINE",
"721.15 631.63 LINE",
"635.32 736.96 LINE",
"298.12 737 LINE",
"190.89 645.29 LINE",
"95.63 105.02 LINE",
"181.35 0 LINE"
);
},
{
closed = 1;
nodes = (
"383.59 794.25 LINE",
"488.38 895.37 LINE",
"500.05 895.37 LINE",
"569.17 794.25 LINE",
"615.47 794.25 LINE",
"532.59 933.58 LINE",
"458.34 933.58 LINE",
"332.26 794.25 LINE"
);
}
);
width = 702;
}
);
leftKerningGroup = C;
note = Gcircumflex;
rightKerningGroup = G;
unicode = 011C;
},
{
glyphname = uni0122;
lastChange = "2019-09-04 12:33:25 +0000";
layers = (
{
hints = (
{
horizontal = 1;
place = "{-224.42, 167.17}";
type = Stem;
},
{
horizontal = 1;
place = "{0, 51.29}";
type = Stem;
},
{
horizontal = 1;
place = "{318.25, 51.33}";
type = Stem;
},
{
horizontal = 1;
place = "{685.62, 51.36}";
type = Stem;
},
{
place = "{95.63, 625.52}";
type = Stem;
}
);
layerId = "EE67F182-E529-43D3-8004-363E3BB4E65C";
paths = (
{
closed = 1;
nodes = (
"466.13 0 LINE",
"578.93 94.46 LINE",
"562.25 0 LINE",
"611.38 0 LINE",
"676.59 369.58 LINE",
"456.17 369.58 LINE",
"447.13 318.25 LINE",
"618.42 318.25 LINE",
"591.54 165.96 LINE",
"455.21 51.33 LINE",
"207.88 51.25 LINE",
"154.38 117.33 LINE",
"242.75 619.66 LINE",
"319.75 685.58 LINE",
"608.67 685.66 LINE",
"681.09 597.33 LINE",
"721.15 631.63 LINE",
"635.32 736.96 LINE",
"298.12 737 LINE",
"190.89 645.29 LINE",
"95.63 105.02 LINE",
"181.35 0 LINE"
);
},
{
closed = 1;
nodes = (
"261.21 -224.42 LINE",
"354.52 -57.25 LINE",
"292.59 -57.25 LINE",
"224.59 -224.42 LINE"
);
}
);
width = 702;
}
);
leftKerningGroup = C;
note = uni0122;
rightKerningGroup = G;
unicode = 0122;
},
{
glyphname = Gdotaccent;
lastChange = "2019-09-04 12:33:25 +0000";
layers = (
{
hints = (
{
horizontal = 1;
place = "{0, 51.29}";
type = Stem;
},
{
horizontal = 1;
place = "{318.25, 51.33}";
type = Stem;
},
{
horizontal = 1;
place = "{685.62, 51.36}";
type = Stem;
},
{
horizontal = 1;
place = "{794.25, 110.71}";
type = Stem;
},
{
place = "{95.63, 625.52}";
type = Stem;
}
);
layerId = "EE67F182-E529-43D3-8004-363E3BB4E65C";
paths = (
{
closed = 1;
nodes = (
"466.13 0 LINE",
"578.93 94.46 LINE",
"562.25 0 LINE",
"611.38 0 LINE",
"676.59 369.58 LINE",
"456.17 369.58 LINE",
"447.13 318.25 LINE",
"618.42 318.25 LINE",
"591.54 165.96 LINE",
"455.21 51.33 LINE",
"207.88 51.25 LINE",
"154.38 117.33 LINE",
"242.75 619.66 LINE",
"319.75 685.58 LINE",
"608.67 685.66 LINE",
"681.09 597.33 LINE",
"721.15 631.63 LINE",
"635.32 736.96 LINE",
"298.12 737 LINE",
"190.89 645.29 LINE",
"95.63 105.02 LINE",
"181.35 0 LINE"
);
},
{
closed = 1;
nodes = (
"505.21 794.25 LINE",
"524.75 904.96 LINE",
"469.75 904.96 LINE",
"450.21 794.25 LINE"
);
}
);
width = 702;
}
);
leftKerningGroup = C;
note = Gdotaccent;
rightKerningGroup = G;
unicode = 0120;
},
{
glyphname = H;
lastChange = "2019-09-04 12:33:25 +0000";
layers = (
{
hints = (
{
horizontal = 1;
place = "{363.37, 51.34}";
type = Stem;
},
{
place = "{93.33, 651.26}";
type = Stem;
}
);
layerId = "EE67F182-E529-43D3-8004-363E3BB4E65C";
paths = (
{
closed = 1;
nodes = (
"150.09 0 LINE",
"214.16 363.37 LINE",
"621.95 363.37 LINE",
"557.87 0 LINE",
"614.63 0 LINE",
"744.59 737 LINE",
"687.83 737 LINE",
"631 414.71 LINE",
"223.22 414.71 LINE",
"280.04 737 LINE",
"223.28 737 LINE",
"93.33 0 LINE"
);
}
);
width = 708;
}
);
leftKerningGroup = B;
note = H;
rightKerningGroup = H;
unicode = 0048;
},
{
glyphname = Hbar;
lastChange = "2019-09-04 12:33:25 +0000";
layers = (
{
hints = (
{
horizontal = 1;
place = "{363.37, 51.34}";
type = Stem;
},
{
horizontal = 1;
place = "{559.25, 47.66}";
type = Stem;
},
{
place = "{93.16, 699.63}";
type = Stem;
}
);
layerId = "EE67F182-E529-43D3-8004-363E3BB4E65C";
paths = (
{
closed = 1;
nodes = (
"149.92 0 LINE",
"214 363.37 LINE",
"621.78 363.37 LINE",
"557.71 0 LINE",
"614.47 0 LINE",
"713.08 559.25 LINE",
"784.37 559.25 LINE",
"792.79 606.91 LINE",
"721.48 606.91 LINE",
"744.42 737 LINE",
"687.66 737 LINE",
"664.72 606.91 LINE",
"256.94 606.91 LINE",
"279.88 737 LINE",
"223.12 737 LINE",
"200.18 606.91 LINE",
"127.71 606.91 LINE",
"119.29 559.25 LINE",
"191.78 559.25 LINE",
"93.16 0 LINE"
);
},
{
closed = 1;
nodes = (
"248.54 559.25 LINE",
"656.32 559.25 LINE",
"630.83 414.71 LINE",
"223.05 414.71 LINE"
);
}
);
width = 707;
}
);
note = Hbar;
unicode = 0126;
},
{
glyphname = Hcircumflex;
lastChange = "2019-09-04 12:33:25 +0000";
layers = (
{
hints = (
{
horizontal = 1;
place = "{363.37, 51.34}";
type = Stem;
},
{
horizontal = 1;
place = "{895.37, 38.21}";
type = Stem;
},
{
place = "{93.33, 651.26}";
type = Stem;
}
);
layerId = "EE67F182-E529-43D3-8004-363E3BB4E65C";
paths = (
{
closed = 1;
nodes = (
"150.09 0 LINE",
"214.16 363.37 LINE",
"621.95 363.37 LINE",
"557.87 0 LINE",
"614.63 0 LINE",
"744.59 737 LINE",
"687.83 737 LINE",
"631 414.71 LINE",
"223.22 414.71 LINE",
"280.04 737 LINE",
"223.28 737 LINE",
"93.33 0 LINE"
);
},
{
closed = 1;
nodes = (
"398.08 794.25 LINE",
"502.87 895.37 LINE",
"514.54 895.37 LINE",
"583.66 794.25 LINE",
"629.97 794.25 LINE",
"547.08 933.58 LINE",
"472.83 933.58 LINE",
"346.75 794.25 LINE"
);
}
);
width = 708;
}
);
leftKerningGroup = B;
note = Hcircumflex;
rightKerningGroup = H;
unicode = 0124;
},
{
glyphname = I;
lastChange = "2019-09-04 12:33:25 +0000";
layers = (
{
hints = (
{
horizontal = 1;
place = "{0, 52.79}";
type = Stem;
},
{
horizontal = 1;
place = "{684.21, 52.79}";
type = Stem;
},
{
place = "{63.33, 397.67}";
type = Stem;
}
);
layerId = "EE67F182-E529-43D3-8004-363E3BB4E65C";
paths = (
{
closed = 1;
nodes = (
"331 0 LINE",
"340.29 52.79 LINE",
"234.98 52.79 LINE",
"346.32 684.21 LINE",
"451.66 684.21 LINE",
"461 737 LINE",
"193.33 737 LINE",
"184 684.21 LINE",
"289.56 684.21 LINE",
"178.22 52.79 LINE",
"72.62 52.79 LINE",
"63.33 0 LINE"
);
}
);
width = 394;
}
);
leftKerningGroup = B;
note = I;
rightKerningGroup = H;
unicode = 0049;
},
{
glyphname = Iacute;
lastChange = "2019-09-04 12:33:25 +0000";
layers = (
{
hints = (
{
horizontal = 1;
place = "{0, 52.79}";
type = Stem;
},
{
horizontal = 1;
place = "{684.21, 52.79}";
type = Stem;
},
{
horizontal = 1;
place = "{794.25, 143.66}";
type = Stem;
},
{
place = "{63.33, 441.02}";
type = Stem;
}
);
layerId = "EE67F182-E529-43D3-8004-363E3BB4E65C";
paths = (
{
closed = 1;
nodes = (
"331 0 LINE",
"340.29 52.79 LINE",
"234.98 52.79 LINE",
"346.32 684.21 LINE",
"451.66 684.21 LINE",
"461 737 LINE",
"193.33 737 LINE",
"184 684.21 LINE",
"289.56 684.21 LINE",
"178.22 52.79 LINE",
"72.62 52.79 LINE",
"63.33 0 LINE"
);
},
{
closed = 1;
nodes = (
"364.91 794.25 LINE",
"504.35 937.91 LINE",
"427.29 937.91 LINE",
"311.67 794.25 LINE"
);
}
);
width = 394;
}
);
leftKerningGroup = B;
note = Iacute;
rightKerningGroup = H;
unicode = 00CD;
},
{
glyphname = Ibreve;
lastChange = "2019-09-04 12:33:25 +0000";
layers = (
{
hints = (
{
horizontal = 1;
place = "{0, 52.79}";
type = Stem;
},
{
horizontal = 1;
place = "{684.21, 52.79}";
type = Stem;
},
{
horizontal = 1;
place = "{794.24, 39.92}";
type = Stem;
},
{
place = "{63.33, 415.8}";
type = Stem;
}
);
layerId = "EE67F182-E529-43D3-8004-363E3BB4E65C";
paths = (
{
closed = 1;
nodes = (
"331 0 LINE",
"340.29 52.79 LINE",
"234.98 52.79 LINE",
"346.32 684.21 LINE",
"451.66 684.21 LINE",
"461 737 LINE",
"193.33 737 LINE",
"184 684.21 LINE",
"289.56 684.21 LINE",
"178.22 52.79 LINE",
"72.62 52.79 LINE",
"63.33 0 LINE"
);
},
{
closed = 1;
nodes = (
"405.85 794.25 LINE",
"465.9 845.18 LINE",
"479.13 919.58 LINE",
"438.33 919.58 LINE",
"428.58 864.58 LINE",
"392.88 834.16 LINE",
"285.04 834.16 LINE",
"260 864.58 LINE",
"269.75 919.58 LINE",
"228.96 919.58 LINE",
"217.44 854.38 LINE",
"267.56 794.22 LINE"
);
}
);
width = 394;
}
);
leftKerningGroup = B;
note = Ibreve;
rightKerningGroup = H;
unicode = 012C;
},
{
glyphname = Icircumflex;
lastChange = "2019-09-04 12:33:25 +0000";
layers = (
{
hints = (
{
horizontal = 1;
place = "{0, 52.79}";
type = Stem;
},
{
horizontal = 1;
place = "{684.21, 52.79}";
type = Stem;
},
{
horizontal = 1;
place = "{895.37, 38.21}";
type = Stem;
},
{
place = "{63.33, 411.64}";
type = Stem;
}
);
layerId = "EE67F182-E529-43D3-8004-363E3BB4E65C";
paths = (
{
closed = 1;
nodes = (
"331 0 LINE",
"340.29 52.79 LINE",
"234.98 52.79 LINE",
"346.32 684.21 LINE",
"451.66 684.21 LINE",
"461 737 LINE",
"193.33 737 LINE",
"184 684.21 LINE",
"289.56 684.21 LINE",
"178.22 52.79 LINE",
"72.62 52.79 LINE",
"63.33 0 LINE"
);
},
{
closed = 1;
nodes = (
"243.08 794.25 LINE",
"347.88 895.37 LINE",
"359.54 895.37 LINE",
"428.67 794.25 LINE",
"474.97 794.25 LINE",
"392.09 933.58 LINE",
"317.83 933.58 LINE",
"191.75 794.25 LINE"
);
}
);
width = 394;
}
);
leftKerningGroup = B;
note = Icircumflex;
rightKerningGroup = H;
unicode = 00CE;
},
{
glyphname = uni0208;
lastChange = "2019-09-04 12:33:25 +0000";
layers = (
{
hints = (
{
horizontal = 1;
place = "{0, 52.79}";
type = Stem;
},
{
horizontal = 1;
place = "{684.21, 52.79}";
type = Stem;
},
{
horizontal = 1;
place = "{794.25, 143.66}";
type = Stem;
},
{
place = "{63.33, 397.67}";
type = Stem;
}
);
layerId = "EE67F182-E529-43D3-8004-363E3BB4E65C";
paths = (
{
closed = 1;
nodes = (
"331 0 LINE",
"340.29 52.79 LINE",
"234.98 52.79 LINE",
"346.32 684.21 LINE",
"451.66 684.21 LINE",
"461 737 LINE",
"193.33 737 LINE",
"184 684.21 LINE",
"289.56 684.21 LINE",
"178.22 52.79 LINE",
"72.62 52.79 LINE",
"63.33 0 LINE"
);
},
{
closed = 1;
nodes = (
"276.15 794.25 LINE",
"211.27 937.91 LINE",
"142.63 937.91 LINE",
"230.06 794.25 LINE"
);
},
{
closed = 1;
nodes = (
"414.25 794.25 LINE",
"349.37 937.91 LINE",
"280.73 937.91 LINE",
"368.17 794.25 LINE"
);
}
);
width = 394;
}
);
leftKerningGroup = B;
note = uni0208;
rightKerningGroup = H;
unicode = 0208;
},
{
glyphname = Idieresis;
lastChange = "2019-09-04 12:33:25 +0000";
layers = (
{
hints = (
{
horizontal = 1;
place = "{0, 52.79}";
type = Stem;
},
{
horizontal = 1;
place = "{684.21, 52.79}";
type = Stem;
},
{
horizontal = 1;
place = "{794.25, 110.83}";
type = Stem;
},
{
place = "{63.33, 452.17}";
type = Stem;
}
);
layerId = "EE67F182-E529-43D3-8004-363E3BB4E65C";
paths = (
{
closed = 1;
nodes = (
"331 0 LINE",
"340.29 52.79 LINE",
"234.98 52.79 LINE",
"346.32 684.21 LINE",
"451.66 684.21 LINE",
"461 737 LINE",
"193.33 737 LINE",
"184 684.21 LINE",
"289.56 684.21 LINE",
"178.22 52.79 LINE",
"72.62 52.79 LINE",
"63.33 0 LINE"
);
},
{
closed = 1;
nodes = (
"230.13 794.25 LINE",
"249.67 905.08 LINE",
"194.67 905.08 LINE",
"175.13 794.25 LINE"
);
},
{
closed = 1;
nodes = (
"495.96 794.25 LINE",
"515.5 905.08 LINE",
"460.5 905.08 LINE",
"440.96 794.25 LINE"
);
}
);
width = 394;
}
);
leftKerningGroup = B;
note = Idieresis;
rightKerningGroup = H;
unicode = 00CF;
},
{
glyphname = Idotaccent;
lastChange = "2019-09-04 12:33:25 +0000";
layers = (
{
hints = (
{
horizontal = 1;
place = "{0, 52.79}";
type = Stem;
},
{
horizontal = 1;
place = "{684.21, 52.79}";
type = Stem;
},
{
horizontal = 1;
place = "{794.25, 110.71}";
type = Stem;
},
{
place = "{63.33, 397.67}";
type = Stem;
}
);
layerId = "EE67F182-E529-43D3-8004-363E3BB4E65C";
paths = (
{
closed = 1;
nodes = (
"331 0 LINE",
"340.29 52.79 LINE",
"234.98 52.79 LINE",
"346.32 684.21 LINE",
"451.66 684.21 LINE",
"461 737 LINE",
"193.33 737 LINE",
"184 684.21 LINE",
"289.56 684.21 LINE",
"178.22 52.79 LINE",
"72.62 52.79 LINE",
"63.33 0 LINE"
);
},
{
closed = 1;
nodes = (
"364.71 794.25 LINE",
"384.25 904.96 LINE",
"329.25 904.96 LINE",
"309.71 794.25 LINE"
);
}
);
width = 394;
}
);
leftKerningGroup = B;
note = Idotaccent;
rightKerningGroup = H;
unicode = 0130;
},
{
glyphname = uni1ECA;
lastChange = "2019-09-04 12:33:25 +0000";
layers = (
{
hints = (
{
horizontal = 1;
place = "{-167.96, 110.71}";
type = Stem;
},
{
horizontal = 1;
place = "{0, 52.79}";
type = Stem;
},
{
horizontal = 1;
place = "{684.21, 52.79}";
type = Stem;
},
{
place = "{63.33, 397.67}";
type = Stem;
}
);
layerId = "EE67F182-E529-43D3-8004-363E3BB4E65C";
paths = (
{
closed = 1;
nodes = (
"331 0 LINE",
"340.29 52.79 LINE",
"234.98 52.79 LINE",
"346.32 684.21 LINE",
"451.66 684.21 LINE",
"461 737 LINE",
"193.33 737 LINE",
"184 684.21 LINE",
"289.56 684.21 LINE",
"178.22 52.79 LINE",
"72.62 52.79 LINE",
"63.33 0 LINE"
);
},
{
closed = 1;
nodes = (
"195.36 -167.96 LINE",
"214.9 -57.25 LINE",
"159.9 -57.25 LINE",
"140.36 -167.96 LINE"
);
}
);
width = 394;
}
);
leftKerningGroup = B;
note = uni1ECA;
rightKerningGroup = H;
unicode = 1ECA;
},
{
glyphname = Igrave;
lastChange = "2019-09-04 12:33:25 +0000";
layers = (
{
hints = (
{
horizontal = 1;
place = "{0, 52.79}";
type = Stem;
},
{
horizontal = 1;
place = "{684.21, 52.79}";
type = Stem;
},
{
horizontal = 1;
place = "{794.25, 143.66}";
type = Stem;
},
{
place = "{63.33, 397.67}";
type = Stem;
}
);
layerId = "EE67F182-E529-43D3-8004-363E3BB4E65C";
paths = (
{
closed = 1;
nodes = (
"331 0 LINE",
"340.29 52.79 LINE",
"234.98 52.79 LINE",
"346.32 684.21 LINE",
"451.66 684.21 LINE",
"461 737 LINE",
"193.33 737 LINE",
"184 684.21 LINE",
"289.56 684.21 LINE",
"178.22 52.79 LINE",
"72.62 52.79 LINE",
"63.33 0 LINE"
);
},
{
closed = 1;
nodes = (
"343.65 794.25 LINE",
"278.78 937.91 LINE",
"210.13 937.91 LINE",
"297.57 794.25 LINE"
);
}
);
width = 394;
}
);
leftKerningGroup = B;
note = Igrave;
rightKerningGroup = H;
unicode = 00CC;
},
{
glyphname = uni1EC8;
lastChange = "2019-09-04 12:33:25 +0000";
layers = (
{
hints = (
{
horizontal = 1;
place = "{0, 52.79}";
type = Stem;
},
{
horizontal = 1;
place = "{684.21, 52.79}";
type = Stem;
},
{
horizontal = 1;
place = "{953.66, 38.09}";
type = Stem;
},
{
place = "{318.25, 39.23}";
type = Stem;
}
);
layerId = "EE67F182-E529-43D3-8004-363E3BB4E65C";
paths = (
{
closed = 1;
nodes = (
"331 0 LINE",
"340.29 52.79 LINE",
"234.98 52.79 LINE",
"346.32 684.21 LINE",
"451.66 684.21 LINE",
"461 737 LINE",
"193.33 737 LINE",
"184 684.21 LINE",
"289.56 684.21 LINE",
"178.22 52.79 LINE",
"72.62 52.79 LINE",
"63.33 0 LINE"
);
},
{
closed = 1;
nodes = (
"355.08 794.25 LINE",
"359.89 820.94 LINE",
"439.75 882.98 LINE",
"451.16 947.69 LINE",
"416.3 991.75 LINE",
"328.11 991.75 LINE",
"281.05 950.35 LINE",
"307.08 919.54 LINE",
"346 953.66 LINE",
"393.03 953.66 LINE",
"405.93 937.21 LINE",
"399.92 903.37 LINE",
"322.46 841.79 LINE",
"314.04 794.25 LINE"
);
}
);
width = 394;
}
);
leftKerningGroup = B;
note = uni1EC8;
rightKerningGroup = H;
unicode = 1EC8;
},
{
glyphname = uni020A;
lastChange = "2019-09-04 12:33:25 +0000";
layers = (
{
hints = (
{
horizontal = 1;
place = "{0, 52.79}";
type = Stem;
},
{
horizontal = 1;
place = "{684.21, 52.79}";
type = Stem;
},
{
horizontal = 1;
place = "{879.62, 39.96}";
type = Stem;
},
{
place = "{63.33, 409.77}";
type = Stem;
}
);
layerId = "EE67F182-E529-43D3-8004-363E3BB4E65C";
paths = (
{
closed = 1;
nodes = (
"331 0 LINE",
"340.29 52.79 LINE",
"234.98 52.79 LINE",
"346.32 684.21 LINE",
"451.66 684.21 LINE",
"461 737 LINE",
"193.33 737 LINE",
"184 684.21 LINE",
"289.56 684.21 LINE",
"178.22 52.79 LINE",
"72.62 52.79 LINE",
"63.33 0 LINE"
);
},
{
closed = 1;
nodes = (
"252.25 794.25 LINE",
"262 849.25 LINE",
"297.71 879.62 LINE",
"405.54 879.62 LINE",
"430.58 849.25 LINE",
"420.83 794.25 LINE",
"461.63 794.25 LINE",
"473.1 858.75 LINE",
"423.04 919.58 LINE",
"284.75 919.58 LINE",
"224.62 868.5 LINE",
"211.46 794.25 LINE"
);
}
);
width = 394;
}
);
leftKerningGroup = B;
note = uni020A;
rightKerningGroup = H;
unicode = 020A;
},
{
glyphname = Imacron;
lastChange = "2019-09-04 12:33:25 +0000";
layers = (
{
hints = (
{
horizontal = 1;
place = "{0, 52.79}";
type = Stem;
},
{
horizontal = 1;
place = "{684.21, 52.79}";
type = Stem;
},
{
horizontal = 1;
place = "{794.25, 43.96}";
type = Stem;
},
{
place = "{63.33, 442.13}";
type = Stem;
}
);
layerId = "EE67F182-E529-43D3-8004-363E3BB4E65C";
paths = (
{
closed = 1;
nodes = (
"331 0 LINE",
"340.29 52.79 LINE",
"234.98 52.79 LINE",
"346.32 684.21 LINE",
"451.66 684.21 LINE",
"461 737 LINE",
"193.33 737 LINE",
"184 684.21 LINE",
"289.56 684.21 LINE",
"178.22 52.79 LINE",
"72.62 52.79 LINE",
"63.33 0 LINE"
);
},
{
closed = 1;
nodes = (
"497.63 794.25 LINE",
"505.46 838.21 LINE",
"184.63 838.21 LINE",
"176.79 794.25 LINE"
);
}
);
width = 394;
}
);
leftKerningGroup = B;
note = Imacron;
rightKerningGroup = H;
unicode = 012A;
},
{
glyphname = Iogonek;
lastChange = "2019-09-04 12:33:25 +0000";
layers = (
{
hints = (
{
horizontal = 1;
place = "{-149.63, 41.79}";
type = Stem;
},
{
horizontal = 1;
place = "{0, 52.79}";
type = Stem;
},
{
horizontal = 1;
place = "{684.21, 52.79}";
type = Stem;
},
{
place = "{63.33, 397.67}";
type = Stem;
}
);
layerId = "EE67F182-E529-43D3-8004-363E3BB4E65C";
paths = (
{
closed = 1;
nodes = (
"304.58 -149.63 LINE",
"311.96 -107.84 LINE",
"286.66 -107.84 LINE",
"263.37 -79.59 LINE",
"270.21 -41.25 LINE",
"331 0 LINE",
"340.29 52.79 LINE",
"234.98 52.79 LINE",
"346.32 684.21 LINE",
"451.66 684.21 LINE",
"461 737 LINE",
"193.33 737 LINE",
"184 684.21 LINE",
"289.56 684.21 LINE",
"178.22 52.79 LINE",
"72.62 52.79 LINE",
"63.33 0 LINE",
"275.95 0 LINE",
"232.13 -29.71 LINE",
"221.25 -91.96 LINE",
"268.6 -149.63 LINE"
);
}
);
width = 394;
}
);
leftKerningGroup = B;
note = Iogonek;
rightKerningGroup = H;
unicode = 012E;
},
{
glyphname = Itilde;
lastChange = "2019-09-04 12:33:25 +0000";
layers = (
{
hints = (
{
horizontal = 1;
place = "{0, 52.79}";
type = Stem;
},
{
horizontal = 1;
place = "{684.21, 52.79}";
type = Stem;
},
{
horizontal = 1;
place = "{794.25, 39.21}";
type = Stem;
},
{
horizontal = 1;
place = "{867.58, 39.21}";
type = Stem;
},
{
place = "{63.33, 456.03}";
type = Stem;
}
);
layerId = "EE67F182-E529-43D3-8004-363E3BB4E65C";
paths = (
{
closed = 1;
nodes = (
"331 0 LINE",
"340.29 52.79 LINE",
"234.98 52.79 LINE",
"346.32 684.21 LINE",
"451.66 684.21 LINE",
"461 737 LINE",
"193.33 737 LINE",
"184 684.21 LINE",
"289.56 684.21 LINE",
"178.22 52.79 LINE",
"72.62 52.79 LINE",
"63.33 0 LINE"
);
},
{
closed = 1;
nodes = (
"449.09 794.25 LINE",
"507.76 845.23 LINE",
"519.36 905.66 LINE",
"485.08 905.66 LINE",
"476.63 869.71 LINE",
"432.08 833.46 LINE",
"395.08 833.46 LINE",
"333.75 906.79 LINE",
"249.08 906.79 LINE",
"190.28 855.33 LINE",
"178.66 795.33 LINE",
"213.04 795.33 LINE",
"221.58 831.21 LINE",
"266.08 867.58 LINE",
"311.48 867.58 LINE",
"372.75 794.25 LINE"
);
}
);
width = 394;
}
);
leftKerningGroup = B;
note = Itilde;
rightKerningGroup = H;
unicode = 0128;
},
{
glyphname = J;
lastChange = "2019-09-04 12:33:25 +0000";
layers = (
{
hints = (
{
horizontal = 1;
place = "{-0.02, 51.33}";
type = Stem;
},
{
place = "{73.61, 524.33}";
type = Stem;
}
);
layerId = "EE67F182-E529-43D3-8004-363E3BB4E65C";
paths = (
{
closed = 1;
nodes = (
"484.06 91.65 LINE",
"597.94 737 LINE",
"541.48 737 LINE",
"432.27 117.33 LINE",
"355.27 51.37 LINE",
"185.85 51.25 LINE",
"132.35 117.33 LINE",
"158.56 266.58 LINE",
"102.1 266.58 LINE",
"73.61 105.02 LINE",
"159.32 0 LINE",
"376.94 -0.04 LINE"
);
}
);
width = 566;
}
);
leftKerningGroup = J;
note = J;
unicode = 004A;
},
{
glyphname = Jcircumflex;
lastChange = "2019-09-04 12:33:25 +0000";
layers = (
{
hints = (
{
horizontal = 1;
place = "{-0.02, 51.33}";
type = Stem;
},
{
horizontal = 1;
place = "{895.37, 38.21}";
type = Stem;
},
{
place = "{73.61, 643.07}";
type = Stem;
}
);
layerId = "EE67F182-E529-43D3-8004-363E3BB4E65C";
paths = (
{
closed = 1;
nodes = (
"484.06 91.65 LINE",
"597.94 737 LINE",
"541.48 737 LINE",
"432.27 117.33 LINE",
"355.27 51.37 LINE",
"185.85 51.25 LINE",
"132.35 117.33 LINE",
"158.56 266.58 LINE",
"102.1 266.58 LINE",
"73.61 105.02 LINE",
"159.32 0 LINE",
"376.94 -0.04 LINE"
);
},
{
closed = 1;
nodes = (
"484.8 794.25 LINE",
"589.59 895.37 LINE",
"601.25 895.37 LINE",
"670.38 794.25 LINE",
"716.68 794.25 LINE",
"633.8 933.58 LINE",
"559.55 933.58 LINE",
"433.46 794.25 LINE"
);
}
);
width = 566;
}
);
note = Jcircumflex;
unicode = 0134;
},
{
glyphname = K;
lastChange = "2019-09-30 12:23:56 +0000";
layers = (
{
hints = (
{
horizontal = 1;
place = "{0, 737.01}";
type = Stem;
},
{
place = "{93.33, 634.6}";
type = Stem;
}
);
layerId = "EE67F182-E529-43D3-8004-363E3BB4E65C";
paths = (
{
closed = 1;
nodes = (
"150.09 0 LINE",
"190.68 230.2 LINE",
"343.07 373.96 LINE",
"538.07 0 LINE",
"600.04 0 LINE",
"385.54 414.04 LINE",
"727.93 737 LINE",
"654.37 737 LINE",
"206.278 318.377 LINE",
"280.04 737 LINE",
"223.28 737 LINE",
"93.33 0 LINE"
);
}
);
width = 632;
}
);
leftKerningGroup = B;
note = K;
rightKerningGroup = K;
unicode = 004B;
},
{
glyphname = uni0136;
lastChange = "2019-09-30 12:24:06 +0000";
layers = (
{
hints = (
{
horizontal = 1;
place = "{-224.42, 167.17}";
type = Stem;
},
{
place = "{93.33, 634.6}";
type = Stem;
}
);
layerId = "EE67F182-E529-43D3-8004-363E3BB4E65C";
paths = (
{
closed = 1;
nodes = (
"275.83 -224.41 LINE",
"369.15 -57.24 LINE",
"307.21 -57.24 LINE",
"239.21 -224.41 LINE"
);
},
{
closed = 1;
nodes = (
"150.09 0 LINE",
"190.68 230.2 LINE",
"343.07 373.96 LINE",
"538.07 0 LINE",
"600.04 0 LINE",
"385.54 414.04 LINE",
"727.93 737 LINE",
"654.37 737 LINE",
"206.278 318.377 LINE",
"280.04 737 LINE",
"223.28 737 LINE",
"93.33 0 LINE"
);
}
);
width = 632;
}
);
leftKerningGroup = B;
note = uni0136;
rightKerningGroup = K;
unicode = 0136;
},
{
glyphname = L;
lastChange = "2019-09-04 12:33:25 +0000";
layers = (
{
hints = (
{
horizontal = 1;
place = "{0, 52.79}";
type = Stem;
},
{
place = "{93.33, 452.88}";
type = Stem;
}
);
layerId = "EE67F182-E529-43D3-8004-363E3BB4E65C";
paths = (
{
closed = 1;
nodes = (
"536.91 0 LINE",
"546.21 52.79 LINE",
"159.4 52.79 LINE",
"280.04 737 LINE",
"223.28 737 LINE",
"93.33 0 LINE"
);
}
);
width = 547;
}
);
leftKerningGroup = B;
note = L;
rightKerningGroup = L;
unicode = 004C;
},
{
glyphname = uni01C7;
lastChange = "2019-09-04 12:33:25 +0000";
layers = (
{
hints = (
{
horizontal = 1;
place = "{0, 52.79}";
type = Stem;
},
{
place = "{93.33, 1072.19}";
type = Stem;
}
);
layerId = "EE67F182-E529-43D3-8004-363E3BB4E65C";
paths = (
{
closed = 1;
nodes = (
"1051.64 91.65 LINE",
"1165.52 737 LINE",
"1109.06 737 LINE",
"999.85 117.33 LINE",
"922.85 51.37 LINE",
"753.44 51.25 LINE",
"699.94 117.33 LINE",
"726.15 266.58 LINE",
"669.69 266.58 LINE",
"641.19 105.02 LINE",
"726.9 0 LINE",
"944.53 -0.04 LINE"
);
},
{
closed = 1;
nodes = (
"536.91 0 LINE",
"546.21 52.79 LINE",
"159.4 52.79 LINE",
"280.04 737 LINE",
"223.28 737 LINE",
"93.33 0 LINE"
);
}
);
width = 1134;
}
);
note = uni01C7;
unicode = 01C7;
},
{
glyphname = Lacute;
lastChange = "2019-09-04 12:33:25 +0000";
layers = (
{
hints = (
{
horizontal = 1;
place = "{0, 52.79}";
type = Stem;
},
{
horizontal = 1;
place = "{794.25, 143.66}";
type = Stem;
},
{
place = "{93.33, 452.88}";
type = Stem;
}
);
layerId = "EE67F182-E529-43D3-8004-363E3BB4E65C";
paths = (
{
closed = 1;
nodes = (
"536.91 0 LINE",
"546.21 52.79 LINE",
"159.4 52.79 LINE",
"280.04 737 LINE",
"223.28 737 LINE",
"93.33 0 LINE"
);
},
{
closed = 1;
nodes = (
"289.24 794.25 LINE",
"428.68 937.91 LINE",
"351.62 937.91 LINE",
"236 794.25 LINE"
);
}
);
width = 547;
}
);
leftKerningGroup = B;
note = Lacute;
rightKerningGroup = L;
unicode = 0139;
},
{
glyphname = Lcaron;
lastChange = "2019-09-04 12:33:25 +0000";
layers = (
{
hints = (
{
horizontal = 1;
place = "{0, 52.79}";
type = Stem;
},
{
horizontal = 1;
place = "{569.83, 167.17}";
type = Stem;
},
{
place = "{93.33, 452.88}";
type = Stem;
}
);
layerId = "EE67F182-E529-43D3-8004-363E3BB4E65C";
paths = (
{
closed = 1;
nodes = (
"536.91 0 LINE",
"546.21 52.79 LINE",
"159.4 52.79 LINE",
"280.04 737 LINE",
"223.28 737 LINE",
"93.33 0 LINE"
);
},
{
closed = 1;
nodes = (
"450.12 569.83 LINE",
"543.43 737 LINE",
"481.5 737 LINE",
"413.5 569.83 LINE"
);
}
);
width = 545;
}
);
leftKerningGroup = B;
note = Lcaron;
rightKerningGroup = L;
unicode = 013D;
},
{
glyphname = uni013B;
lastChange = "2019-09-04 12:33:25 +0000";
layers = (
{
hints = (
{
horizontal = 1;
place = "{-224.42, 167.17}";
type = Stem;
},
{
horizontal = 1;
place = "{0, 52.79}";
type = Stem;
},
{
place = "{93.33, 452.88}";
type = Stem;
}
);
layerId = "EE67F182-E529-43D3-8004-363E3BB4E65C";
paths = (
{
closed = 1;
nodes = (
"536.91 0 LINE",
"546.21 52.79 LINE",
"159.4 52.79 LINE",
"280.04 737 LINE",
"223.28 737 LINE",
"93.33 0 LINE"
);
},
{
closed = 1;
nodes = (
"244.03 -224.42 LINE",
"337.35 -57.25 LINE",
"275.41 -57.25 LINE",
"207.41 -224.42 LINE"
);
}
);
width = 547;
}
);
leftKerningGroup = B;
note = uni013B;
rightKerningGroup = L;
unicode = 013B;
},
{
glyphname = Ldot;
lastChange = "2019-09-04 12:33:25 +0000";
layers = (
{
hints = (
{
horizontal = 1;
place = "{0, 52.79}";
type = Stem;
},
{
horizontal = 1;
place = "{331.12, 110.71}";
type = Stem;
},
{
place = "{93.33, 452.88}";
type = Stem;
}
);
layerId = "EE67F182-E529-43D3-8004-363E3BB4E65C";
paths = (
{
closed = 1;
nodes = (
"536.91 0 LINE",
"546.21 52.79 LINE",
"159.4 52.79 LINE",
"280.04 737 LINE",
"223.28 737 LINE",
"93.33 0 LINE"
);
},
{
closed = 1;
nodes = (
"450.55 331.12 LINE",
"470.08 441.83 LINE",
"415.08 441.83 LINE",
"395.55 331.12 LINE"
);
}
);
width = 547;
}
);
leftKerningGroup = B;
note = Ldot;
rightKerningGroup = L;
unicode = 013F;
},
{
glyphname = uni01C8;
lastChange = "2019-09-04 12:33:25 +0000";
layers = (
{
hints = (
{
horizontal = 1;
place = "{-187, 47.66}";
type = Stem;
},
{
horizontal = 1;
place = "{0, 52.79}";
type = Stem;
},
{
horizontal = 1;
place = "{579.75, 110.71}";
type = Stem;
},
{
place = "{93.33, 736.88}";
type = Stem;
}
);
layerId = "EE67F182-E529-43D3-8004-363E3BB4E65C";
paths = (
{
closed = 1;
nodes = (
"536.91 0 LINE",
"546.21 52.79 LINE",
"159.4 52.79 LINE",
"280.04 737 LINE",
"223.28 737 LINE",
"93.33 0 LINE"
);
},
{
closed = 1;
nodes = (
"598.35 -187 LINE",
"689.1 -110.28 LINE",
"800.66 522.5 LINE",
"745.66 522.5 LINE",
"638.66 -84.71 LINE",
"575.7 -139.34 LINE",
"476.78 -139.34 LINE",
"468.37 -187 LINE"
);
},
{
closed = 1;
nodes = (
"810.66 579.75 LINE",
"830.21 690.46 LINE",
"775.21 690.46 LINE",
"755.66 579.75 LINE"
);
}
);
width = 797;
}
);
leftKerningGroup = B;
note = uni01C8;
unicode = 01C8;
},
{
glyphname = Lslash;
lastChange = "2019-09-04 12:33:25 +0000";
layers = (
{
hints = (
{
horizontal = 1;
place = "{0, 52.79}";
type = Stem;
},
{
place = "{74.29, 471.92}";
type = Stem;
}
);
layerId = "EE67F182-E529-43D3-8004-363E3BB4E65C";
paths = (
{
closed = 1;
nodes = (
"536.91 0 LINE",
"546.21 52.79 LINE",
"159.4 52.79 LINE",
"213.4 359.03 LINE",
"417.93 442.21 LINE",
"428.61 502.8 LINE",
"224.08 419.62 LINE",
"280.04 737 LINE",
"223.28 737 LINE",
"162.94 394.75 LINE",
"84.97 363.05 LINE",
"74.29 302.46 LINE",
"152.25 334.16 LINE",
"93.33 0 LINE"
);
}
);
width = 547;
}
);
leftKerningGroup = B;
note = Lslash;
rightKerningGroup = L;
unicode = 0141;
},
{
glyphname = M;
lastChange = "2019-09-04 12:33:25 +0000";
layers = (
{
hints = (
{
horizontal = 1;
place = "{648.25, 88.75}";
type = Stem;
},
{
place = "{93.33, 818.17}";
type = Stem;
}
);
layerId = "EE67F182-E529-43D3-8004-363E3BB4E65C";
paths = (
{
closed = 1;
nodes = (
"150.09 0 LINE",
"264.4 648.25 LINE",
"277.37 648.25 LINE",
"421.12 0 LINE",
"453.46 0 LINE",
"825.87 648.25 LINE",
"839.09 648.25 LINE",
"724.79 0 LINE",
"781.55 0 LINE",
"911.5 737 LINE",
"818.12 737 LINE",
"450.6 94.19 LINE",
"309.96 737 LINE",
"223.28 737 LINE",
"93.33 0 LINE"
);
}
);
width = 875;
}
);
note = M;
unicode = 004D;
},
{
glyphname = N;
lastChange = "2019-09-04 12:33:25 +0000";
layers = (
{
hints = (
{
horizontal = 1;
place = "{0, 84.33}";
type = Stem;
},
{
horizontal = 1;
place = "{648.25, 88.75}";
type = Stem;
},
{
place = "{93.33, 640.59}";
type = Stem;
}
);
layerId = "EE67F182-E529-43D3-8004-363E3BB4E65C";
paths = (
{
closed = 1;
nodes = (
"150.09 0 LINE",
"264.4 648.25 LINE",
"285.33 648.25 LINE",
"524.04 0 LINE",
"603.97 0 LINE",
"733.92 737 LINE",
"677.16 737 LINE",
"562.18 84.94 LINE",
"548.83 83.71 LINE",
"307.77 737 LINE",
"223.28 737 LINE",
"93.33 0 LINE"
);
}
);
width = 697;
}
);
leftKerningGroup = B;
note = N;
rightKerningGroup = H;
unicode = 004E;
},
{
glyphname = uni01CA;
lastChange = "2019-09-04 12:33:25 +0000";
layers = (
{
hints = (
{
horizontal = 1;
place = "{0, 84.33}";
type = Stem;
},
{
horizontal = 1;
place = "{648.25, 88.75}";
type = Stem;
},
{
place = "{93.33, 1225.15}";
type = Stem;
},
{
horizontal = 1;
place = "{-0.02, 51.33}";
type = Stem;
}
);
layerId = "EE67F182-E529-43D3-8004-363E3BB4E65C";
paths = (
{
closed = 1;
nodes = (
"150.09 0 LINE",
"264.4 648.25 LINE",
"285.33 648.25 LINE",
"524.04 0 LINE",
"603.97 0 LINE",
"733.92 737 LINE",
"677.16 737 LINE",
"562.18 84.94 LINE",
"548.83 83.71 LINE",
"307.77 737 LINE",
"223.28 737 LINE",
"93.33 0 LINE"
);
},
{
closed = 1;
nodes = (
"1204.6 91.65 LINE",
"1318.48 737 LINE",
"1262.02 737 LINE",
"1152.81 117.33 LINE",
"1075.81 51.37 LINE",
"906.4 51.25 LINE",
"852.9 117.33 LINE",
"879.1 266.58 LINE",
"822.65 266.58 LINE",
"794.15 105.02 LINE",
"879.86 0 LINE",
"1097.48 -0.04 LINE"
);
}
);
width = 1287;
}
);
note = uni01CA;
unicode = 01CA;
},
{
glyphname = Nacute;
lastChange = "2019-09-04 12:33:25 +0000";
layers = (
{
hints = (
{
horizontal = 1;
place = "{0, 84.33}";
type = Stem;
},
{
horizontal = 1;
place = "{648.25, 88.75}";
type = Stem;
},
{
horizontal = 1;
place = "{794.25, 143.66}";
type = Stem;
},
{
place = "{93.33, 640.59}";
type = Stem;
}
);
layerId = "EE67F182-E529-43D3-8004-363E3BB4E65C";
paths = (
{
closed = 1;
nodes = (
"150.08 0 LINE",
"264.39 648.25 LINE",
"285.32 648.25 LINE",
"524.03 0 LINE",
"603.96 0 LINE",
"733.91 737 LINE",
"677.15 737 LINE",
"562.17 84.94 LINE",
"548.82 83.71 LINE",
"307.76 737 LINE",
"223.27 737 LINE",
"93.32 0 LINE"
);
},
{
closed = 1;
nodes = (
"516.15 794.25 LINE",
"655.6 937.91 LINE",
"578.54 937.91 LINE",
"462.91 794.25 LINE"
);
}
);
width = 697;
}
);
note = Nacute;
unicode = 0143;
},
{
glyphname = Ncaron;
lastChange = "2019-09-04 12:33:25 +0000";
layers = (
{
hints = (
{
horizontal = 1;
place = "{0, 84.33}";
type = Stem;
},
{
horizontal = 1;
place = "{648.25, 88.75}";
type = Stem;
},
{
horizontal = 1;
place = "{794.24, 38.21}";
type = Stem;
},
{
place = "{93.33, 640.59}";
type = Stem;
}
);
layerId = "EE67F182-E529-43D3-8004-363E3BB4E65C";
paths = (
{
closed = 1;
nodes = (
"150.09 0 LINE",
"264.4 648.25 LINE",
"285.33 648.25 LINE",
"524.04 0 LINE",
"603.97 0 LINE",
"733.92 737 LINE",
"677.16 737 LINE",
"562.18 84.94 LINE",
"548.83 83.71 LINE",
"307.77 737 LINE",
"223.28 737 LINE",
"93.33 0 LINE"
);
},
{
closed = 1;
nodes = (
"522.09 794.24 LINE",
"648.17 933.58 LINE",
"596.84 933.58 LINE",
"492.05 832.45 LINE",
"480.38 832.45 LINE",
"411.25 933.58 LINE",
"364.95 933.58 LINE",
"447.84 794.24 LINE"
);
}
);
width = 697;
}
);
note = Ncaron;
unicode = 0147;
},
{
glyphname = uni0145;
lastChange = "2019-09-04 12:33:25 +0000";
layers = (
{
hints = (
{
horizontal = 1;
place = "{-224.42, 167.17}";
type = Stem;
},
{
horizontal = 1;
place = "{0, 84.33}";
type = Stem;
},
{
horizontal = 1;
place = "{648.25, 88.75}";
type = Stem;
},
{
place = "{93.33, 640.59}";
type = Stem;
}
);
layerId = "EE67F182-E529-43D3-8004-363E3BB4E65C";
paths = (
{
closed = 1;
nodes = (
"150.09 0 LINE",
"264.4 648.25 LINE",
"285.33 648.25 LINE",
"524.04 0 LINE",
"603.97 0 LINE",
"733.92 737 LINE",
"677.16 737 LINE",
"562.18 84.94 LINE",
"548.83 83.71 LINE",
"307.77 737 LINE",
"223.28 737 LINE",
"93.33 0 LINE"
);
},
{
closed = 1;
nodes = (
"272.62 -224.42 LINE",
"365.93 -57.25 LINE",
"304 -57.25 LINE",
"236 -224.42 LINE"
);
}
);
width = 697;
}
);
note = uni0145;
unicode = 0145;
},
{
glyphname = Eng;
lastChange = "2019-09-04 12:33:25 +0000";
layers = (
{
hints = (
{
horizontal = 1;
place = "{-187, 47.75}";
type = Stem;
},
{
horizontal = 1;
place = "{0, 88.62}";
type = Stem;
},
{
horizontal = 1;
place = "{648.25, 88.75}";
type = Stem;
},
{
place = "{93.32, 640.63}";
type = Stem;
}
);
layerId = "EE67F182-E529-43D3-8004-363E3BB4E65C";
paths = (
{
closed = 1;
nodes = (
"490.2 -187 LINE",
"585.7 -103.38 LINE",
"733.95 737 LINE",
"677.32 737 LINE",
"562.96 88.62 LINE",
"549.7 88.62 LINE",
"312.07 737 LINE",
"223.28 737 LINE",
"93.32 0 LINE",
"150.08 0 LINE",
"264.39 648.25 LINE",
"285.32 648.25 LINE",
"523.07 0 LINE",
"547.35 0 LINE",
"532.7 -83.13 LINE",
"470.82 -139.25 LINE",
"377.57 -139.25 LINE",
"369.07 -187 LINE"
);
}
);
width = 697;
}
);
note = Eng;
unicode = 014A;
},
{
glyphname = uni01CB;
lastChange = "2019-09-04 12:33:25 +0000";
layers = (
{
hints = (
{
horizontal = 1;
place = "{-187, 47.66}";
type = Stem;
},
{
horizontal = 1;
place = "{0, 84.33}";
type = Stem;
},
{
horizontal = 1;
place = "{648.25, 88.75}";
type = Stem;
},
{
place = "{93.33, 908}";
type = Stem;
},
{
horizontal = 1;
place = "{579.75, 110.71}";
type = Stem;
}
);
layerId = "EE67F182-E529-43D3-8004-363E3BB4E65C";
paths = (
{
closed = 1;
nodes = (
"150.09 0 LINE",
"264.4 648.25 LINE",
"285.33 648.25 LINE",
"524.04 0 LINE",
"603.97 0 LINE",
"733.92 737 LINE",
"677.16 737 LINE",
"562.18 84.94 LINE",
"548.83 83.71 LINE",
"307.77 737 LINE",
"223.28 737 LINE",
"93.33 0 LINE"
);
},
{
closed = 1;
nodes = (
"769.47 -187 LINE",
"860.22 -110.28 LINE",
"971.79 522.5 LINE",
"916.79 522.5 LINE",
"809.78 -84.71 LINE",
"746.83 -139.34 LINE",
"647.91 -139.34 LINE",
"639.49 -187 LINE"
);
},
{
closed = 1;
nodes = (
"981.79 579.75 LINE",
"1001.33 690.46 LINE",
"946.33 690.46 LINE",
"926.79 579.75 LINE"
);
}
);
width = 968;
}
);
note = uni01CB;
unicode = 01CB;
},
{
glyphname = Ntilde;
lastChange = "2019-09-04 12:33:25 +0000";
layers = (
{
hints = (
{
horizontal = 1;
place = "{0, 84.33}";
type = Stem;
},
{
horizontal = 1;
place = "{648.25, 88.75}";
type = Stem;
},
{
horizontal = 1;
place = "{794.25, 39.21}";
type = Stem;
},
{
horizontal = 1;
place = "{867.58, 39.21}";
type = Stem;
},
{
place = "{93.33, 640.59}";
type = Stem;
}
);
layerId = "EE67F182-E529-43D3-8004-363E3BB4E65C";
paths = (
{
closed = 1;
nodes = (
"150.09 0 LINE",
"264.4 648.25 LINE",
"285.33 648.25 LINE",
"524.04 0 LINE",
"603.97 0 LINE",
"733.92 737 LINE",
"677.16 737 LINE",
"562.18 84.94 LINE",
"548.83 83.71 LINE",
"307.77 737 LINE",
"223.28 737 LINE",
"93.33 0 LINE"
);
},
{
closed = 1;
nodes = (
"600.34 794.25 LINE",
"659 845.23 LINE",
"670.6 905.66 LINE",
"636.33 905.66 LINE",
"627.87 869.71 LINE",
"583.33 833.46 LINE",
"546.33 833.46 LINE",
"485 906.79 LINE",
"400.33 906.79 LINE",
"341.53 855.33 LINE",
"329.91 795.33 LINE",
"364.29 795.33 LINE",
"372.83 831.21 LINE",
"417.33 867.58 LINE",
"462.73 867.58 LINE",
"524 794.25 LINE"
);
}
);
width = 697;
}
);
leftKerningGroup = B;
note = Ntilde;
rightKerningGroup = H;
unicode = 00D1;
},
{
glyphname = O;
lastChange = "2019-09-04 12:33:25 +0000";
layers = (
{
hints = (
{
horizontal = 1;
place = "{0, 51.35}";
type = Stem;
},
{
horizontal = 1;
place = "{685.65, 51.35}";
type = Stem;
},
{
place = "{95.63, 624.61}";
type = Stem;
}
);
layerId = "EE67F182-E529-43D3-8004-363E3BB4E65C";
paths = (
{
closed = 1;
nodes = (
"517.84 0 LINE",
"624.96 91.7 LINE",
"720.24 632.02 LINE",
"634.66 737 LINE",
"298.12 737 LINE",
"190.89 645.29 LINE",
"95.63 105.02 LINE",
"181.35 0 LINE"
);
},
{
closed = 1;
nodes = (
"154.38 117.33 LINE",
"242.75 619.66 LINE",
"319.75 685.58 LINE",
"608 685.71 LINE",
"661.5 619.66 LINE",
"573.09 117.37 LINE",
"496.17 51.41 LINE",
"207.92 51.29 LINE"
);
}
);
width = 685;
}
);
leftKerningGroup = C;
note = O;
rightKerningGroup = O;
unicode = 004F;
},
{
glyphname = Oacute;
lastChange = "2019-09-04 12:33:25 +0000";
layers = (
{
hints = (
{
horizontal = 1;
place = "{0, 51.35}";
type = Stem;
},
{
horizontal = 1;
place = "{685.65, 51.35}";
type = Stem;
},
{
horizontal = 1;
place = "{794.25, 143.66}";
type = Stem;
},
{
place = "{95.63, 624.61}";
type = Stem;
}
);
layerId = "EE67F182-E529-43D3-8004-363E3BB4E65C";
paths = (
{
closed = 1;
nodes = (
"517.84 0 LINE",
"624.96 91.7 LINE",
"720.24 632.02 LINE",
"634.66 737 LINE",
"298.12 737 LINE",
"190.89 645.29 LINE",
"95.63 105.02 LINE",
"181.35 0 LINE"
);
},
{
closed = 1;
nodes = (
"154.38 117.33 LINE",
"242.75 619.66 LINE",
"319.75 685.58 LINE",
"608 685.71 LINE",
"661.5 619.66 LINE",
"573.09 117.37 LINE",
"496.17 51.41 LINE",
"207.92 51.29 LINE"
);
},
{
closed = 1;
nodes = (
"508 794.25 LINE",
"647.45 937.91 LINE",
"570.39 937.91 LINE",
"454.76 794.25 LINE"
);
}
);
width = 685;
}
);
leftKerningGroup = C;
note = Oacute;
rightKerningGroup = O;
unicode = 00D3;
},
{
glyphname = Obreve;
lastChange = "2019-09-04 12:33:25 +0000";
layers = (
{
hints = (
{
horizontal = 1;
place = "{0, 51.35}";
type = Stem;
},
{
horizontal = 1;
place = "{685.65, 51.35}";
type = Stem;
},
{
horizontal = 1;
place = "{794.24, 39.92}";
type = Stem;
},
{
place = "{95.63, 624.61}";
type = Stem;
}
);
layerId = "EE67F182-E529-43D3-8004-363E3BB4E65C";
paths = (
{
closed = 1;
nodes = (
"517.84 0 LINE",
"624.96 91.7 LINE",
"720.24 632.02 LINE",
"634.66 737 LINE",
"298.12 737 LINE",
"190.89 645.29 LINE",
"95.63 105.02 LINE",
"181.35 0 LINE"
);
},
{
closed = 1;
nodes = (
"154.38 117.33 LINE",
"242.75 619.66 LINE",
"319.75 685.58 LINE",
"608 685.71 LINE",
"661.5 619.66 LINE",
"573.09 117.37 LINE",
"496.17 51.41 LINE",
"207.92 51.29 LINE"
);
},
{
closed = 1;
nodes = (
"548.95 794.25 LINE",
"609 845.18 LINE",
"622.22 919.58 LINE",
"581.43 919.58 LINE",
"571.68 864.58 LINE",
"535.97 834.16 LINE",
"428.14 834.16 LINE",
"403.1 864.58 LINE",
"412.85 919.58 LINE",
"372.06 919.58 LINE",
"360.54 854.38 LINE",
"410.66 794.22 LINE"
);
}
);
width = 685;
}
);
leftKerningGroup = C;
note = Obreve;
rightKerningGroup = O;
unicode = 014E;
},
{
glyphname = Ocircumflex;
lastChange = "2019-09-04 12:33:25 +0000";
layers = (
{
hints = (
{
horizontal = 1;
place = "{0, 51.35}";
type = Stem;
},
{
horizontal = 1;
place = "{685.65, 51.35}";
type = Stem;
},
{
horizontal = 1;
place = "{895.37, 38.21}";
type = Stem;
},
{
place = "{95.63, 624.61}";
type = Stem;
}
);
layerId = "EE67F182-E529-43D3-8004-363E3BB4E65C";
paths = (
{
closed = 1;
nodes = (
"517.84 0 LINE",
"624.96 91.7 LINE",
"720.24 632.02 LINE",
"634.66 737 LINE",
"298.12 737 LINE",
"190.89 645.29 LINE",
"95.63 105.02 LINE",
"181.35 0 LINE"
);
},
{
closed = 1;
nodes = (
"154.38 117.33 LINE",
"242.75 619.66 LINE",
"319.75 685.58 LINE",
"608 685.71 LINE",
"661.5 619.66 LINE",
"573.09 117.37 LINE",
"496.17 51.41 LINE",
"207.92 51.29 LINE"
);
},
{
closed = 1;
nodes = (
"386.18 794.25 LINE",
"490.97 895.37 LINE",
"502.64 895.37 LINE",
"571.76 794.25 LINE",
"618.07 794.25 LINE",
"535.18 933.58 LINE",
"460.93 933.58 LINE",
"334.85 794.25 LINE"
);
}
);
width = 685;
}
);
leftKerningGroup = C;
note = Ocircumflex;
rightKerningGroup = O;
unicode = 00D4;
},
{
glyphname = uni1ED0;
lastChange = "2019-09-04 12:33:25 +0000";
layers = (
{
hints = (
{
horizontal = 1;
place = "{0, 51.35}";
type = Stem;
},
{
horizontal = 1;
place = "{685.65, 51.35}";
type = Stem;
},
{
horizontal = 1;
place = "{865.39, 143.67}";
type = Stem;
},
{
place = "{95.63, 715.69}";
type = Stem;
},
{
horizontal = 1;
place = "{895.37, 38.21}";
type = Stem;
}
);
layerId = "EE67F182-E529-43D3-8004-363E3BB4E65C";
paths = (
{
closed = 1;
nodes = (
"517.84 0 LINE",
"624.96 91.7 LINE",
"720.24 632.02 LINE",
"634.66 737 LINE",
"298.12 737 LINE",
"190.89 645.29 LINE",
"95.63 105.02 LINE",
"181.35 0 LINE"
);
},
{
closed = 1;
nodes = (
"154.38 117.33 LINE",
"242.75 619.66 LINE",
"319.75 685.58 LINE",
"608 685.71 LINE",
"661.5 619.66 LINE",
"573.09 117.37 LINE",
"496.17 51.41 LINE",
"207.92 51.29 LINE"
);
},
{
closed = 1;
nodes = (
"386.18 794.25 LINE",
"490.97 895.37 LINE",
"502.64 895.37 LINE",
"571.76 794.25 LINE",
"618.07 794.25 LINE",
"535.18 933.58 LINE",
"460.93 933.58 LINE",
"334.85 794.25 LINE"
);
},
{
closed = 1;
nodes = (
"671.88 865.39 LINE",
"811.32 1009.06 LINE",
"734.27 1009.06 LINE",
"618.64 865.39 LINE"
);
}
);
width = 685;
}
);
leftKerningGroup = C;
note = uni1ED0;
rightKerningGroup = O;
unicode = 1ED0;
},
{
glyphname = uni1ED8;
lastChange = "2019-09-04 12:33:25 +0000";
layers = (
{
hints = (
{
horizontal = 1;
place = "{-167.96, 110.71}";
type = Stem;
},
{
horizontal = 1;
place = "{0, 51.35}";
type = Stem;
},
{
horizontal = 1;
place = "{685.65, 51.35}";
type = Stem;
},
{
horizontal = 1;
place = "{895.37, 38.21}";
type = Stem;
},
{
place = "{95.63, 624.61}";
type = Stem;
}
);
layerId = "EE67F182-E529-43D3-8004-363E3BB4E65C";
paths = (
{
closed = 1;
nodes = (
"517.84 0 LINE",
"624.96 91.7 LINE",
"720.24 632.02 LINE",
"634.66 737 LINE",
"298.12 737 LINE",
"190.89 645.29 LINE",
"95.63 105.02 LINE",
"181.35 0 LINE"
);
},
{
closed = 1;
nodes = (
"342.2 -167.96 LINE",
"361.74 -57.25 LINE",
"306.74 -57.25 LINE",
"287.2 -167.96 LINE"
);
},
{
closed = 1;
nodes = (
"154.38 117.33 LINE",
"242.75 619.66 LINE",
"319.75 685.58 LINE",
"608 685.71 LINE",
"661.5 619.66 LINE",
"573.09 117.37 LINE",
"496.17 51.41 LINE",
"207.92 51.29 LINE"
);
},
{
closed = 1;
nodes = (
"386.18 794.25 LINE",
"490.97 895.37 LINE",
"502.64 895.37 LINE",
"571.76 794.25 LINE",
"618.07 794.25 LINE",
"535.18 933.58 LINE",
"460.93 933.58 LINE",
"334.85 794.25 LINE"
);
}
);
width = 685;
}
);
leftKerningGroup = C;
note = uni1ED8;
rightKerningGroup = O;
unicode = 1ED8;
},
{
glyphname = uni1ED2;
lastChange = "2019-09-04 12:33:25 +0000";
layers = (
{
hints = (
{
horizontal = 1;
place = "{0, 51.35}";
type = Stem;
},
{
horizontal = 1;
place = "{685.65, 51.35}";
type = Stem;
},
{
horizontal = 1;
place = "{865.38, 143.66}";
type = Stem;
},
{
place = "{95.63, 624.61}";
type = Stem;
},
{
horizontal = 1;
place = "{895.37, 38.21}";
type = Stem;
}
);
layerId = "EE67F182-E529-43D3-8004-363E3BB4E65C";
paths = (
{
closed = 1;
nodes = (
"517.84 0 LINE",
"624.96 91.7 LINE",
"720.24 632.02 LINE",
"634.66 737 LINE",
"298.12 737 LINE",
"190.89 645.29 LINE",
"95.63 105.02 LINE",
"181.35 0 LINE"
);
},
{
closed = 1;
nodes = (
"154.38 117.33 LINE",
"242.75 619.66 LINE",
"319.75 685.58 LINE",
"608 685.71 LINE",
"661.5 619.66 LINE",
"573.09 117.37 LINE",
"496.17 51.41 LINE",
"207.92 51.29 LINE"
);
},
{
closed = 1;
nodes = (
"351.94 865.38 LINE",
"287.06 1009.04 LINE",
"218.42 1009.04 LINE",
"305.86 865.38 LINE"
);
},
{
closed = 1;
nodes = (
"386.18 794.25 LINE",
"490.97 895.37 LINE",
"502.64 895.37 LINE",
"571.76 794.25 LINE",
"618.07 794.25 LINE",
"535.18 933.58 LINE",
"460.93 933.58 LINE",
"334.85 794.25 LINE"
);
}
);
width = 685;
}
);
leftKerningGroup = C;
note = uni1ED2;
rightKerningGroup = O;
unicode = 1ED2;
},
{
glyphname = uni1ED4;
lastChange = "2019-09-04 12:33:25 +0000";
layers = (
{
hints = (
{
horizontal = 1;
place = "{0, 51.35}";
type = Stem;
},
{
horizontal = 1;
place = "{685.65, 51.35}";
type = Stem;
},
{
horizontal = 1;
place = "{895.37, 38.21}";
type = Stem;
},
{
horizontal = 1;
place = "{1024.83, 38.08}";
type = Stem;
},
{
place = "{611.43, 39.23}";
type = Stem;
}
);
layerId = "EE67F182-E529-43D3-8004-363E3BB4E65C";
paths = (
{
closed = 1;
nodes = (
"517.84 0 LINE",
"624.96 91.7 LINE",
"720.24 632.02 LINE",
"634.66 737 LINE",
"298.12 737 LINE",
"190.89 645.29 LINE",
"95.63 105.02 LINE",
"181.35 0 LINE"
);
},
{
closed = 1;
nodes = (
"154.38 117.33 LINE",
"242.75 619.66 LINE",
"319.75 685.58 LINE",
"608 685.71 LINE",
"661.5 619.66 LINE",
"573.09 117.37 LINE",
"496.17 51.41 LINE",
"207.92 51.29 LINE"
);
},
{
closed = 1;
nodes = (
"386.18 794.25 LINE",
"490.97 895.37 LINE",
"502.64 895.37 LINE",
"571.76 794.25 LINE",
"618.07 794.25 LINE",
"535.18 933.58 LINE",
"460.93 933.58 LINE",
"334.85 794.25 LINE"
);
},
{
closed = 1;
nodes = (
"648.26 865.41 LINE",
"653.06 892.11 LINE",
"732.93 954.15 LINE",
"744.34 1018.85 LINE",
"709.48 1062.91 LINE",
"621.29 1062.91 LINE",
"574.23 1021.51 LINE",
"600.26 990.71 LINE",
"639.18 1024.83 LINE",
"686.21 1024.83 LINE",
"699.11 1008.37 LINE",
"693.1 974.54 LINE",
"615.64 912.96 LINE",
"607.22 865.41 LINE"
);
}
);
width = 685;
}
);
leftKerningGroup = C;
note = uni1ED4;
rightKerningGroup = O;
unicode = 1ED4;
},
{
glyphname = uni1ED6;
lastChange = "2019-09-04 12:33:25 +0000";
layers = (
{
hints = (
{
horizontal = 1;
place = "{0, 51.35}";
type = Stem;
},
{
horizontal = 1;
place = "{685.65, 51.35}";
type = Stem;
},
{
horizontal = 1;
place = "{957.54, 39.21}";
type = Stem;
},
{
horizontal = 1;
place = "{1030.87, 39.21}";
type = Stem;
},
{
place = "{95.63, 624.61}";
type = Stem;
},
{
horizontal = 1;
place = "{895.37, 38.21}";
type = Stem;
}
);
layerId = "EE67F182-E529-43D3-8004-363E3BB4E65C";
paths = (
{
closed = 1;
nodes = (
"517.84 0 LINE",
"624.96 91.7 LINE",
"720.24 632.02 LINE",
"634.66 737 LINE",
"298.12 737 LINE",
"190.89 645.29 LINE",
"95.63 105.02 LINE",
"181.35 0 LINE"
);
},
{
closed = 1;
nodes = (
"154.38 117.33 LINE",
"242.75 619.66 LINE",
"319.75 685.58 LINE",
"608 685.71 LINE",
"661.5 619.66 LINE",
"573.09 117.37 LINE",
"496.17 51.41 LINE",
"207.92 51.29 LINE"
);
},
{
closed = 1;
nodes = (
"386.18 794.25 LINE",
"490.97 895.37 LINE",
"502.64 895.37 LINE",
"571.76 794.25 LINE",
"618.07 794.25 LINE",
"535.18 933.58 LINE",
"460.93 933.58 LINE",
"334.85 794.25 LINE"
);
},
{
closed = 1;
nodes = (
"610.73 957.54 LINE",
"669.39 1008.53 LINE",
"680.99 1068.96 LINE",
"646.72 1068.96 LINE",
"638.26 1033 LINE",
"593.72 996.75 LINE",
"556.72 996.75 LINE",
"495.39 1070.08 LINE",
"410.72 1070.08 LINE",
"351.92 1018.62 LINE",
"340.3 958.62 LINE",
"374.68 958.62 LINE",
"383.22 994.5 LINE",
"427.72 1030.87 LINE",
"473.12 1030.87 LINE",
"534.39 957.54 LINE"
);
}
);
width = 685;
}
);
leftKerningGroup = C;
note = uni1ED6;
rightKerningGroup = O;
unicode = 1ED6;
},
{
glyphname = uni020C;
lastChange = "2019-09-04 12:33:25 +0000";
layers = (
{
hints = (
{
horizontal = 1;
place = "{0, 51.35}";
type = Stem;
},
{
horizontal = 1;
place = "{685.65, 51.35}";
type = Stem;
},
{
horizontal = 1;
place = "{794.25, 143.66}";
type = Stem;
},
{
place = "{95.63, 624.61}";
type = Stem;
}
);
layerId = "EE67F182-E529-43D3-8004-363E3BB4E65C";
paths = (
{
closed = 1;
nodes = (
"517.84 0 LINE",
"624.96 91.7 LINE",
"720.24 632.02 LINE",
"634.66 737 LINE",
"298.12 737 LINE",
"190.89 645.29 LINE",
"95.63 105.02 LINE",
"181.35 0 LINE"
);
},
{
closed = 1;
nodes = (
"154.38 117.33 LINE",
"242.75 619.66 LINE",
"319.75 685.58 LINE",
"608 685.71 LINE",
"661.5 619.66 LINE",
"573.09 117.37 LINE",
"496.17 51.41 LINE",
"207.92 51.29 LINE"
);
},
{
closed = 1;
nodes = (
"419.24 794.25 LINE",
"354.37 937.91 LINE",
"285.72 937.91 LINE",
"373.16 794.25 LINE"
);
},
{
closed = 1;
nodes = (
"557.34 794.25 LINE",
"492.47 937.91 LINE",
"423.83 937.91 LINE",
"511.26 794.25 LINE"
);
}
);
width = 685;
}
);
leftKerningGroup = C;
note = uni020C;
rightKerningGroup = O;
unicode = 020C;
},
{
glyphname = Odieresis;
lastChange = "2019-09-04 12:33:25 +0000";
layers = (
{
hints = (
{
horizontal = 1;
place = "{0, 51.35}";
type = Stem;
},
{
horizontal = 1;
place = "{685.65, 51.35}";
type = Stem;
},
{
horizontal = 1;
place = "{794.25, 110.83}";
type = Stem;
},
{
place = "{95.63, 624.61}";
type = Stem;
}
);
layerId = "EE67F182-E529-43D3-8004-363E3BB4E65C";
paths = (
{
closed = 1;
nodes = (
"517.84 0 LINE",
"624.96 91.7 LINE",
"720.24 632.02 LINE",
"634.66 737 LINE",
"298.12 737 LINE",
"190.89 645.29 LINE",
"95.63 105.02 LINE",
"181.35 0 LINE"
);
},
{
closed = 1;
nodes = (
"154.38 117.33 LINE",
"242.75 619.66 LINE",
"319.75 685.58 LINE",
"608 685.71 LINE",
"661.5 619.66 LINE",
"573.09 117.37 LINE",
"496.17 51.41 LINE",
"207.92 51.29 LINE"
);
},
{
closed = 1;
nodes = (
"373.22 794.25 LINE",
"392.76 905.08 LINE",
"337.76 905.08 LINE",
"318.22 794.25 LINE"
);
},
{
closed = 1;
nodes = (
"639.06 794.25 LINE",
"658.6 905.08 LINE",
"603.6 905.08 LINE",
"584.06 794.25 LINE"
);
}
);
width = 685;
}
);
leftKerningGroup = C;
note = Odieresis;
rightKerningGroup = O;
unicode = 00D6;
},
{
glyphname = uni022A;
lastChange = "2019-09-04 12:33:25 +0000";
layers = (
{
hints = (
{
horizontal = 1;
place = "{0, 51.35}";
type = Stem;
},
{
horizontal = 1;
place = "{685.65, 51.35}";
type = Stem;
},
{
horizontal = 1;
place = "{794.25, 110.83}";
type = Stem;
},
{
horizontal = 1;
place = "{937.11, 43.95}";
type = Stem;
},
{
place = "{95.63, 624.61}";
type = Stem;
}
);
layerId = "EE67F182-E529-43D3-8004-363E3BB4E65C";
paths = (
{
closed = 1;
nodes = (
"517.84 0 LINE",
"624.96 91.7 LINE",
"720.24 632.02 LINE",
"634.66 737 LINE",
"298.12 737 LINE",
"190.89 645.29 LINE",
"95.63 105.02 LINE",
"181.35 0 LINE"
);
},
{
closed = 1;
nodes = (
"154.38 117.33 LINE",
"242.75 619.66 LINE",
"319.75 685.58 LINE",
"608 685.71 LINE",
"661.5 619.66 LINE",
"573.09 117.37 LINE",
"496.17 51.41 LINE",
"207.92 51.29 LINE"
);
},
{
closed = 1;
nodes = (
"373.22 794.25 LINE",
"392.76 905.08 LINE",
"337.76 905.08 LINE",
"318.22 794.25 LINE"
);
},
{
closed = 1;
nodes = (
"664.17 937.11 LINE",
"672 981.06 LINE",
"351.17 981.06 LINE",
"343.34 937.11 LINE"
);
},
{
closed = 1;
nodes = (
"639.06 794.25 LINE",
"658.6 905.08 LINE",
"603.6 905.08 LINE",
"584.06 794.25 LINE"
);
}
);
width = 685;
}
);
leftKerningGroup = C;
note = uni022A;
rightKerningGroup = O;
unicode = 022A;
},
{
glyphname = uni0230;
lastChange = "2019-09-04 12:33:25 +0000";
layers = (
{
hints = (
{
horizontal = 1;
place = "{0, 51.35}";
type = Stem;
},
{
horizontal = 1;
place = "{685.65, 51.35}";
type = Stem;
},
{
horizontal = 1;
place = "{794.25, 110.71}";
type = Stem;
},
{
horizontal = 1;
place = "{937.11, 43.95}";
type = Stem;
},
{
place = "{95.63, 624.61}";
type = Stem;
}
);
layerId = "EE67F182-E529-43D3-8004-363E3BB4E65C";
paths = (
{
closed = 1;
nodes = (
"517.84 0 LINE",
"624.96 91.7 LINE",
"720.24 632.02 LINE",
"634.66 737 LINE",
"298.12 737 LINE",
"190.89 645.29 LINE",
"95.63 105.02 LINE",
"181.35 0 LINE"
);
},
{
closed = 1;
nodes = (
"154.38 117.33 LINE",
"242.75 619.66 LINE",
"319.75 685.58 LINE",
"608 685.71 LINE",
"661.5 619.66 LINE",
"573.09 117.37 LINE",
"496.17 51.41 LINE",
"207.92 51.29 LINE"
);
},
{
closed = 1;
nodes = (
"507.81 794.25 LINE",
"527.35 904.96 LINE",
"472.35 904.96 LINE",
"452.81 794.25 LINE"
);
},
{
closed = 1;
nodes = (
"664.17 937.11 LINE",
"672 981.06 LINE",
"351.17 981.06 LINE",
"343.34 937.11 LINE"
);
}
);
width = 685;
}
);
leftKerningGroup = C;
note = uni0230;
rightKerningGroup = O;
unicode = 0230;
},
{
glyphname = uni1ECC;
lastChange = "2019-09-04 12:33:25 +0000";
layers = (
{
hints = (
{
horizontal = 1;
place = "{-167.96, 110.71}";
type = Stem;
},
{
horizontal = 1;
place = "{0, 51.35}";
type = Stem;
},
{
horizontal = 1;
place = "{685.65, 51.35}";
type = Stem;
},
{
place = "{95.63, 624.61}";
type = Stem;
}
);
layerId = "EE67F182-E529-43D3-8004-363E3BB4E65C";
paths = (
{
closed = 1;
nodes = (
"517.84 0 LINE",
"624.96 91.7 LINE",
"720.24 632.02 LINE",
"634.66 737 LINE",
"298.12 737 LINE",
"190.89 645.29 LINE",
"95.63 105.02 LINE",
"181.35 0 LINE"
);
},
{
closed = 1;
nodes = (
"342.2 -167.96 LINE",
"361.74 -57.25 LINE",
"306.74 -57.25 LINE",
"287.2 -167.96 LINE"
);
},
{
closed = 1;
nodes = (
"154.38 117.33 LINE",
"242.75 619.66 LINE",
"319.75 685.58 LINE",
"608 685.71 LINE",
"661.5 619.66 LINE",
"573.09 117.37 LINE",
"496.17 51.41 LINE",
"207.92 51.29 LINE"
);
}
);
width = 685;
}
);
leftKerningGroup = C;
note = uni1ECC;
rightKerningGroup = O;
unicode = 1ECC;
},
{
glyphname = Ograve;
lastChange = "2019-09-04 12:33:25 +0000";
layers = (
{
hints = (
{
horizontal = 1;
place = "{0, 51.35}";
type = Stem;
},
{
horizontal = 1;
place = "{685.65, 51.35}";
type = Stem;
},
{
horizontal = 1;
place = "{794.25, 143.66}";
type = Stem;
},
{
place = "{95.63, 624.61}";
type = Stem;
}
);
layerId = "EE67F182-E529-43D3-8004-363E3BB4E65C";
paths = (
{
closed = 1;
nodes = (
"517.84 0 LINE",
"624.96 91.7 LINE",
"720.24 632.02 LINE",
"634.66 737 LINE",
"298.12 737 LINE",
"190.89 645.29 LINE",
"95.63 105.02 LINE",
"181.35 0 LINE"
);
},
{
closed = 1;
nodes = (
"154.38 117.33 LINE",
"242.75 619.66 LINE",
"319.75 685.58 LINE",
"608 685.71 LINE",
"661.5 619.66 LINE",
"573.09 117.37 LINE",
"496.17 51.41 LINE",
"207.92 51.29 LINE"
);
},
{
closed = 1;
nodes = (
"486.75 794.25 LINE",
"421.87 937.91 LINE",
"353.23 937.91 LINE",
"440.66 794.25 LINE"
);
}
);
width = 685;
}
);
leftKerningGroup = C;
note = Ograve;
rightKerningGroup = O;
unicode = 00D2;
},
{
glyphname = uni1ECE;
lastChange = "2019-09-04 12:33:25 +0000";
layers = (
{
hints = (
{
horizontal = 1;
place = "{0, 51.35}";
type = Stem;
},
{
horizontal = 1;
place = "{685.65, 51.35}";
type = Stem;
},
{
horizontal = 1;
place = "{953.66, 38.09}";
type = Stem;
},
{
place = "{461.35, 39.23}";
type = Stem;
}
);
layerId = "EE67F182-E529-43D3-8004-363E3BB4E65C";
paths = (
{
closed = 1;
nodes = (
"517.84 0 LINE",
"624.96 91.7 LINE",
"720.24 632.02 LINE",
"634.66 737 LINE",
"298.12 737 LINE",
"190.89 645.29 LINE",
"95.63 105.02 LINE",
"181.35 0 LINE"
);
},
{
closed = 1;
nodes = (
"154.38 117.33 LINE",
"242.75 619.66 LINE",
"319.75 685.58 LINE",
"608 685.71 LINE",
"661.5 619.66 LINE",
"573.09 117.37 LINE",
"496.17 51.41 LINE",
"207.92 51.29 LINE"
);
},
{
closed = 1;
nodes = (
"498.18 794.25 LINE",
"502.98 820.94 LINE",
"582.84 882.98 LINE",
"594.26 947.69 LINE",
"559.4 991.75 LINE",
"471.21 991.75 LINE",
"424.15 950.35 LINE",
"450.18 919.54 LINE",
"489.1 953.66 LINE",
"536.13 953.66 LINE",
"549.02 937.21 LINE",
"543.01 903.37 LINE",
"465.56 841.79 LINE",
"457.14 794.25 LINE"
);
}
);
width = 685;
}
);
leftKerningGroup = C;
note = uni1ECE;
rightKerningGroup = O;
unicode = 1ECE;
},
{
glyphname = Ohorn;
lastChange = "2019-09-04 12:33:25 +0000";
layers = (
{
hints = (
{
horizontal = 1;
place = "{0, 51.35}";
type = Stem;
},
{
horizontal = 1;
place = "{685.65, 51.35}";
type = Stem;
},
{
place = "{95.63, 759.32}";
type = Stem;
},
{
horizontal = 1;
place = "{624.46, 39.95}";
type = Stem;
}
);
layerId = "EE67F182-E529-43D3-8004-363E3BB4E65C";
paths = (
{
closed = 1;
nodes = (
"517.84 0 LINE",
"624.96 91.7 LINE",
"718.9 624.46 LINE",
"768.1 624.46 LINE",
"854.95 802.54 LINE",
"790.75 802.54 LINE",
"737.96 664.41 LINE",
"693.83 664.41 LINE",
"634.66 737 LINE",
"298.12 737 LINE",
"190.89 645.29 LINE",
"95.63 105.02 LINE",
"181.35 0 LINE"
);
},
{
closed = 1;
nodes = (
"154.39 117.33 LINE",
"242.76 619.66 LINE",
"319.76 685.58 LINE",
"608.01 685.71 LINE",
"661.51 619.66 LINE",
"573.1 117.37 LINE",
"496.18 51.41 LINE",
"207.93 51.29 LINE"
);
}
);
width = 685;
}
);
leftKerningGroup = C;
note = Ohorn;
rightKerningGroup = O;
unicode = 01A0;
},
{
glyphname = uni1EDA;
lastChange = "2019-09-04 12:33:25 +0000";
layers = (
{
hints = (
{
horizontal = 1;
place = "{0, 51.35}";
type = Stem;
},
{
horizontal = 1;
place = "{685.65, 51.35}";
type = Stem;
},
{
horizontal = 1;
place = "{794.25, 143.66}";
type = Stem;
},
{
place = "{95.63, 759.32}";
type = Stem;
},
{
horizontal = 1;
place = "{624.46, 39.95}";
type = Stem;
}
);
layerId = "EE67F182-E529-43D3-8004-363E3BB4E65C";
paths = (
{
closed = 1;
nodes = (
"517.84 0 LINE",
"624.96 91.7 LINE",
"718.9 624.46 LINE",
"768.1 624.46 LINE",
"854.95 802.54 LINE",
"790.75 802.54 LINE",
"737.96 664.41 LINE",
"693.83 664.41 LINE",
"634.66 737 LINE",
"298.12 737 LINE",
"190.89 645.29 LINE",
"95.63 105.02 LINE",
"181.35 0 LINE"
);
},
{
closed = 1;
nodes = (
"154.39 117.33 LINE",
"242.76 619.66 LINE",
"319.76 685.58 LINE",
"608.01 685.71 LINE",
"661.51 619.66 LINE",
"573.1 117.37 LINE",
"496.18 51.41 LINE",
"207.93 51.29 LINE"
);
},
{
closed = 1;
nodes = (
"508 794.25 LINE",
"647.45 937.91 LINE",
"570.39 937.91 LINE",
"454.76 794.25 LINE"
);
}
);
width = 685;
}
);
leftKerningGroup = C;
note = uni1EDA;
rightKerningGroup = O;
unicode = 1EDA;
},
{
glyphname = uni1EE2;
lastChange = "2019-09-04 12:33:25 +0000";
layers = (
{
hints = (
{
horizontal = 1;
place = "{0, 51.35}";
type = Stem;
},
{
horizontal = 1;
place = "{685.65, 51.35}";
type = Stem;
},
{
place = "{95.63, 759.32}";
type = Stem;
},
{
horizontal = 1;
place = "{624.46, 39.95}";
type = Stem;
},
{
horizontal = 1;
place = "{-167.96, 110.71}";
type = Stem;
}
);
layerId = "EE67F182-E529-43D3-8004-363E3BB4E65C";
paths = (
{
closed = 1;
nodes = (
"517.84 0 LINE",
"624.96 91.7 LINE",
"718.9 624.46 LINE",
"768.1 624.46 LINE",
"854.95 802.54 LINE",
"790.75 802.54 LINE",
"737.96 664.41 LINE",
"693.83 664.41 LINE",
"634.66 737 LINE",
"298.12 737 LINE",
"190.89 645.29 LINE",
"95.63 105.02 LINE",
"181.35 0 LINE"
);
},
{
closed = 1;
nodes = (
"342.21 -167.96 LINE",
"361.75 -57.25 LINE",
"306.75 -57.25 LINE",
"287.21 -167.96 LINE"
);
},
{
closed = 1;
nodes = (
"154.39 117.33 LINE",
"242.76 619.66 LINE",
"319.76 685.58 LINE",
"608.01 685.71 LINE",
"661.51 619.66 LINE",
"573.1 117.37 LINE",
"496.18 51.41 LINE",
"207.93 51.29 LINE"
);
}
);
width = 685;
}
);
leftKerningGroup = C;
note = uni1EE2;
rightKerningGroup = O;
unicode = 1EE2;
},
{
glyphname = uni1EDC;
lastChange = "2019-09-04 12:33:25 +0000";
layers = (
{
hints = (
{
horizontal = 1;
place = "{0, 51.35}";
type = Stem;
},
{
horizontal = 1;
place = "{685.65, 51.35}";
type = Stem;
},
{
horizontal = 1;
place = "{794.25, 143.66}";
type = Stem;
},
{
place = "{95.63, 759.32}";
type = Stem;
},
{
horizontal = 1;
place = "{624.46, 39.95}";
type = Stem;
}
);
layerId = "EE67F182-E529-43D3-8004-363E3BB4E65C";
paths = (
{
closed = 1;
nodes = (
"517.84 0 LINE",
"624.96 91.7 LINE",
"718.9 624.46 LINE",
"768.1 624.46 LINE",
"854.95 802.54 LINE",
"790.75 802.54 LINE",
"737.96 664.41 LINE",
"693.83 664.41 LINE",
"634.66 737 LINE",
"298.12 737 LINE",
"190.89 645.29 LINE",
"95.63 105.02 LINE",
"181.35 0 LINE"
);
},
{
closed = 1;
nodes = (
"154.39 117.33 LINE",
"242.76 619.66 LINE",
"319.76 685.58 LINE",
"608.01 685.71 LINE",
"661.51 619.66 LINE",
"573.1 117.37 LINE",
"496.18 51.41 LINE",
"207.93 51.29 LINE"
);
},
{
closed = 1;
nodes = (
"486.75 794.25 LINE",
"421.87 937.91 LINE",
"353.23 937.91 LINE",
"440.66 794.25 LINE"
);
}
);
width = 685;
}
);
leftKerningGroup = C;
note = uni1EDC;
rightKerningGroup = O;
unicode = 1EDC;
},
{
glyphname = uni1EDE;
lastChange = "2019-09-04 12:33:25 +0000";
layers = (
{
hints = (
{
horizontal = 1;
place = "{0, 51.35}";
type = Stem;
},
{
horizontal = 1;
place = "{624.46, 39.95}";
type = Stem;
},
{
horizontal = 1;
place = "{685.65, 51.35}";
type = Stem;
},
{
horizontal = 1;
place = "{953.66, 38.09}";
type = Stem;
},
{
place = "{461.35, 39.23}";
type = Stem;
},
{
place = "{95.63, 759.32}";
type = Stem;
}
);
layerId = "EE67F182-E529-43D3-8004-363E3BB4E65C";
paths = (
{
closed = 1;
nodes = (
"517.84 0 LINE",
"624.96 91.7 LINE",
"718.9 624.46 LINE",
"768.1 624.46 LINE",
"854.95 802.54 LINE",
"790.75 802.54 LINE",
"737.96 664.41 LINE",
"693.83 664.41 LINE",
"634.66 737 LINE",
"298.12 737 LINE",
"190.89 645.29 LINE",
"95.63 105.02 LINE",
"181.35 0 LINE"
);
},
{
closed = 1;
nodes = (
"154.39 117.33 LINE",
"242.76 619.66 LINE",
"319.76 685.58 LINE",
"608.01 685.71 LINE",
"661.51 619.66 LINE",
"573.1 117.37 LINE",
"496.18 51.41 LINE",
"207.93 51.29 LINE"
);
},
{
closed = 1;
nodes = (
"498.18 794.25 LINE",
"502.98 820.94 LINE",
"582.84 882.98 LINE",
"594.26 947.69 LINE",
"559.4 991.75 LINE",
"471.21 991.75 LINE",
"424.15 950.35 LINE",
"450.18 919.54 LINE",
"489.1 953.66 LINE",
"536.13 953.66 LINE",
"549.02 937.21 LINE",
"543.01 903.37 LINE",
"465.56 841.79 LINE",
"457.14 794.25 LINE"
);
}
);
width = 685;
}
);
leftKerningGroup = C;
note = uni1EDE;
rightKerningGroup = O;
unicode = 1EDE;
},
{
glyphname = uni1EE0;
lastChange = "2019-09-04 12:33:25 +0000";
layers = (
{
hints = (
{
horizontal = 1;
place = "{0, 51.35}";
type = Stem;
},
{
horizontal = 1;
place = "{685.65, 51.35}";
type = Stem;
},
{
horizontal = 1;
place = "{794.25, 39.21}";
type = Stem;
},
{
horizontal = 1;
place = "{867.58, 39.21}";
type = Stem;
},
{
place = "{95.63, 759.32}";
type = Stem;
},
{
horizontal = 1;
place = "{624.46, 39.95}";
type = Stem;
}
);
layerId = "EE67F182-E529-43D3-8004-363E3BB4E65C";
paths = (
{
closed = 1;
nodes = (
"517.84 0 LINE",
"624.96 91.7 LINE",
"718.9 624.46 LINE",
"768.1 624.46 LINE",
"854.95 802.54 LINE",
"790.75 802.54 LINE",
"737.96 664.41 LINE",
"693.83 664.41 LINE",
"634.66 737 LINE",
"298.12 737 LINE",
"190.89 645.29 LINE",
"95.63 105.02 LINE",
"181.35 0 LINE"
);
},
{
closed = 1;
nodes = (
"154.39 117.33 LINE",
"242.76 619.66 LINE",
"319.76 685.58 LINE",
"608.01 685.71 LINE",
"661.51 619.66 LINE",
"573.1 117.37 LINE",
"496.18 51.41 LINE",
"207.93 51.29 LINE"
);
},
{
closed = 1;
nodes = (
"592.19 794.25 LINE",
"650.85 845.23 LINE",
"662.45 905.66 LINE",
"628.18 905.66 LINE",
"619.72 869.71 LINE",
"575.18 833.46 LINE",
"538.18 833.46 LINE",
"476.85 906.79 LINE",
"392.17 906.79 LINE",
"333.38 855.33 LINE",
"321.76 795.33 LINE",
"356.14 795.33 LINE",
"364.68 831.21 LINE",
"409.18 867.58 LINE",
"454.58 867.58 LINE",
"515.85 794.25 LINE"
);
}
);
width = 685;
}
);
leftKerningGroup = C;
note = uni1EE0;
rightKerningGroup = O;
unicode = 1EE0;
},
{
glyphname = Ohungarumlaut;
lastChange = "2019-09-04 12:33:25 +0000";
layers = (
{
hints = (
{
horizontal = 1;
place = "{0, 51.35}";
type = Stem;
},
{
horizontal = 1;
place = "{685.65, 51.35}";
type = Stem;
},
{
horizontal = 1;
place = "{794.25, 143.66}";
type = Stem;
},
{
place = "{95.63, 624.61}";
type = Stem;
}
);
layerId = "EE67F182-E529-43D3-8004-363E3BB4E65C";
paths = (
{
closed = 1;
nodes = (
"517.84 0 LINE",
"624.96 91.7 LINE",
"720.24 632.02 LINE",
"634.66 737 LINE",
"298.12 737 LINE",
"190.89 645.29 LINE",
"95.63 105.02 LINE",
"181.35 0 LINE"
);
},
{
closed = 1;
nodes = (
"154.38 117.33 LINE",
"242.75 619.66 LINE",
"319.75 685.58 LINE",
"608 685.71 LINE",
"661.5 619.66 LINE",
"573.09 117.37 LINE",
"496.17 51.41 LINE",
"207.92 51.29 LINE"
);
},
{
closed = 1;
nodes = (
"429.38 794.25 LINE",
"568.82 937.91 LINE",
"491.76 937.91 LINE",
"376.14 794.25 LINE"
);
},
{
closed = 1;
nodes = (
"567.25 794.25 LINE",
"706.7 937.91 LINE",
"629.64 937.91 LINE",
"514.01 794.25 LINE"
);
}
);
width = 685;
}
);
leftKerningGroup = C;
note = Ohungarumlaut;
rightKerningGroup = O;
unicode = 0150;
},
{
glyphname = uni020E;
lastChange = "2019-09-04 12:33:25 +0000";
layers = (
{
hints = (
{
horizontal = 1;
place = "{0, 51.35}";
type = Stem;
},
{
horizontal = 1;
place = "{685.65, 51.35}";
type = Stem;
},
{
horizontal = 1;
place = "{879.62, 39.96}";
type = Stem;
},
{
place = "{95.63, 624.61}";
type = Stem;
}
);
layerId = "EE67F182-E529-43D3-8004-363E3BB4E65C";
paths = (
{
closed = 1;
nodes = (
"517.84 0 LINE",
"624.96 91.7 LINE",
"720.24 632.02 LINE",
"634.66 737 LINE",
"298.12 737 LINE",
"190.89 645.29 LINE",
"95.63 105.02 LINE",
"181.35 0 LINE"
);
},
{
closed = 1;
nodes = (
"154.38 117.33 LINE",
"242.75 619.66 LINE",
"319.75 685.58 LINE",
"608 685.71 LINE",
"661.5 619.66 LINE",
"573.09 117.37 LINE",
"496.17 51.41 LINE",
"207.92 51.29 LINE"
);
},
{
closed = 1;
nodes = (
"395.35 794.25 LINE",
"405.1 849.25 LINE",
"440.81 879.62 LINE",
"548.64 879.62 LINE",
"573.68 849.25 LINE",
"563.93 794.25 LINE",
"604.72 794.25 LINE",
"616.2 858.75 LINE",
"566.14 919.58 LINE",
"427.84 919.58 LINE",
"367.71 868.5 LINE",
"354.56 794.25 LINE"
);
}
);
width = 685;
}
);
leftKerningGroup = C;
note = uni020E;
rightKerningGroup = O;
unicode = 020E;
},
{
glyphname = Omacron;
lastChange = "2019-09-04 12:33:25 +0000";
layers = (
{
hints = (
{
horizontal = 1;
place = "{0, 51.35}";
type = Stem;
},
{
horizontal = 1;
place = "{685.65, 51.35}";
type = Stem;
},
{
horizontal = 1;
place = "{794.25, 43.96}";
type = Stem;
},
{
place = "{95.63, 624.61}";
type = Stem;
}
);
layerId = "EE67F182-E529-43D3-8004-363E3BB4E65C";
paths = (
{
closed = 1;
nodes = (
"517.84 0 LINE",
"624.96 91.7 LINE",
"720.24 632.02 LINE",
"634.66 737 LINE",
"298.12 737 LINE",
"190.89 645.29 LINE",
"95.63 105.02 LINE",
"181.35 0 LINE"
);
},
{
closed = 1;
nodes = (
"154.38 117.33 LINE",
"242.75 619.66 LINE",
"319.75 685.58 LINE",
"608 685.71 LINE",
"661.5 619.66 LINE",
"573.09 117.37 LINE",
"496.17 51.41 LINE",
"207.92 51.29 LINE"
);
},
{
closed = 1;
nodes = (
"640.72 794.25 LINE",
"648.56 838.21 LINE",
"327.72 838.21 LINE",
"319.89 794.25 LINE"
);
}
);
width = 685;
}
);
leftKerningGroup = C;
note = Omacron;
rightKerningGroup = O;
unicode = 014C;
},
{
glyphname = uni01EA;
lastChange = "2019-09-04 12:33:25 +0000";
layers = (
{
hints = (
{
horizontal = 1;
place = "{-149.63, 41.79}";
type = Stem;
},
{
horizontal = 1;
place = "{0, 51.35}";
type = Stem;
},
{
horizontal = 1;
place = "{685.65, 51.35}";
type = Stem;
},
{
place = "{95.63, 624.61}";
type = Stem;
}
);
layerId = "EE67F182-E529-43D3-8004-363E3BB4E65C";
paths = (
{
closed = 1;
nodes = (
"504.25 -149.63 LINE",
"511.61 -107.84 LINE",
"486.32 -107.84 LINE",
"463.1 -79.59 LINE",
"469.59 -42.75 LINE",
"517.84 0 LINE",
"624.96 91.7 LINE",
"720.24 632.02 LINE",
"634.66 737 LINE",
"298.12 737 LINE",
"190.89 645.29 LINE",
"95.63 105.02 LINE",
"181.35 0 LINE",
"472.35 0 LINE",
"431.21 -33.82 LINE",
"420.95 -91.96 LINE",
"468.3 -149.63 LINE"
);
},
{
closed = 1;
nodes = (
"154.38 117.33 LINE",
"242.75 619.66 LINE",
"319.75 685.58 LINE",
"608 685.71 LINE",
"661.5 619.66 LINE",
"573.09 117.37 LINE",
"496.17 51.41 LINE",
"207.92 51.29 LINE"
);
}
);
width = 684;
}
);
leftKerningGroup = C;
note = uni01EA;
rightKerningGroup = O;
unicode = 01EA;
},
{
glyphname = Oslash;
lastChange = "2019-09-04 12:33:25 +0000";
layers = (
{
hints = (
{
horizontal = 1;
place = "{0, 51.35}";
type = Stem;
},
{
horizontal = 1;
place = "{685.65, 51.35}";
type = Stem;
},
{
place = "{95.63, 624.61}";
type = Stem;
}
);
layerId = "EE67F182-E529-43D3-8004-363E3BB4E65C";
paths = (
{
closed = 1;
nodes = (
"517.84 0 LINE",
"624.96 91.7 LINE",
"720.24 632.02 LINE",
"634.66 737 LINE",
"298.12 737 LINE",
"190.89 645.29 LINE",
"95.63 105.02 LINE",
"181.35 0 LINE"
);
},
{
closed = 1;
nodes = (
"193.35 69.26 LINE",
"652.41 630.89 LINE",
"661.5 619.66 LINE",
"573.09 117.37 LINE",
"496.17 51.41 LINE",
"207.92 51.29 LINE"
);
},
{
closed = 1;
nodes = (
"154.38 117.33 LINE",
"242.75 619.66 LINE",
"319.75 685.58 LINE",
"608 685.71 LINE",
"622.17 668.22 LINE",
"163.11 106.57 LINE"
);
}
);
width = 685;
}
);
leftKerningGroup = C;
note = Oslash;
rightKerningGroup = O;
unicode = 00D8;
},
{
glyphname = Oslashacute;
lastChange = "2019-09-04 12:33:25 +0000";
layers = (
{
hints = (
{
horizontal = 1;
place = "{0, 51.35}";
type = Stem;
},
{
horizontal = 1;
place = "{685.65, 51.35}";
type = Stem;
},
{
horizontal = 1;
place = "{794.25, 143.66}";
type = Stem;
},
{
place = "{95.63, 624.61}";
type = Stem;
}
);
layerId = "EE67F182-E529-43D3-8004-363E3BB4E65C";
paths = (
{
closed = 1;
nodes = (
"517.84 0 LINE",
"624.96 91.7 LINE",
"720.24 632.02 LINE",
"634.66 737 LINE",
"298.12 737 LINE",
"190.89 645.29 LINE",
"95.63 105.02 LINE",
"181.35 0 LINE"
);
},
{
closed = 1;
nodes = (
"193.35 69.26 LINE",
"652.41 630.89 LINE",
"661.5 619.66 LINE",
"573.09 117.37 LINE",
"496.17 51.41 LINE",
"207.92 51.29 LINE"
);
},
{
closed = 1;
nodes = (
"154.38 117.33 LINE",
"242.75 619.66 LINE",
"319.75 685.58 LINE",
"608 685.71 LINE",
"622.17 668.22 LINE",
"163.11 106.57 LINE"
);
},
{
closed = 1;
nodes = (
"508 794.25 LINE",
"647.45 937.91 LINE",
"570.39 937.91 LINE",
"454.76 794.25 LINE"
);
}
);
width = 685;
}
);
leftKerningGroup = C;
note = Oslashacute;
rightKerningGroup = O;
unicode = 01FE;
},
{
glyphname = Otilde;
lastChange = "2019-09-04 12:33:25 +0000";
layers = (
{
hints = (
{
horizontal = 1;
place = "{0, 51.35}";
type = Stem;
},
{
horizontal = 1;
place = "{685.65, 51.35}";
type = Stem;
},
{
horizontal = 1;
place = "{794.25, 39.21}";
type = Stem;
},
{
horizontal = 1;
place = "{867.58, 39.21}";
type = Stem;
},
{
place = "{95.63, 624.61}";
type = Stem;
}
);
layerId = "EE67F182-E529-43D3-8004-363E3BB4E65C";
paths = (
{
closed = 1;
nodes = (
"517.84 0 LINE",
"624.96 91.7 LINE",
"720.24 632.02 LINE",
"634.66 737 LINE",
"298.12 737 LINE",
"190.89 645.29 LINE",
"95.63 105.02 LINE",
"181.35 0 LINE"
);
},
{
closed = 1;
nodes = (
"154.38 117.33 LINE",
"242.75 619.66 LINE",
"319.75 685.58 LINE",
"608 685.71 LINE",
"661.5 619.66 LINE",
"573.09 117.37 LINE",
"496.17 51.41 LINE",
"207.92 51.29 LINE"
);
},
{
closed = 1;
nodes = (
"592.19 794.25 LINE",
"650.85 845.23 LINE",
"662.45 905.66 LINE",
"628.18 905.66 LINE",
"619.72 869.71 LINE",
"575.18 833.46 LINE",
"538.18 833.46 LINE",
"476.85 906.79 LINE",
"392.17 906.79 LINE",
"333.38 855.33 LINE",
"321.76 795.33 LINE",
"356.14 795.33 LINE",
"364.68 831.21 LINE",
"409.18 867.58 LINE",
"454.58 867.58 LINE",
"515.85 794.25 LINE"
);
}
);
width = 685;
}
);
leftKerningGroup = C;
note = Otilde;
rightKerningGroup = O;
unicode = 00D5;
},
{
glyphname = uni022C;
lastChange = "2019-09-04 12:33:25 +0000";
layers = (
{
hints = (
{
horizontal = 1;
place = "{0, 51.35}";
type = Stem;
},
{
horizontal = 1;
place = "{685.65, 51.35}";
type = Stem;
},
{
horizontal = 1;
place = "{794.25, 39.21}";
type = Stem;
},
{
horizontal = 1;
place = "{867.58, 39.21}";
type = Stem;
},
{
horizontal = 1;
place = "{938.79, 43.95}";
type = Stem;
},
{
place = "{95.63, 624.61}";
type = Stem;
}
);
layerId = "EE67F182-E529-43D3-8004-363E3BB4E65C";
paths = (
{
closed = 1;
nodes = (
"517.84 0 LINE",
"624.96 91.7 LINE",
"720.24 632.02 LINE",
"634.66 737 LINE",
"298.12 737 LINE",
"190.89 645.29 LINE",
"95.63 105.02 LINE",
"181.35 0 LINE"
);
},
{
closed = 1;
nodes = (
"154.38 117.33 LINE",
"242.75 619.66 LINE",
"319.75 685.58 LINE",
"608 685.71 LINE",
"661.5 619.66 LINE",
"573.09 117.37 LINE",
"496.17 51.41 LINE",
"207.92 51.29 LINE"
);
},
{
closed = 1;
nodes = (
"592.19 794.25 LINE",
"650.85 845.23 LINE",
"662.45 905.66 LINE",
"628.18 905.66 LINE",
"619.72 869.71 LINE",
"575.18 833.46 LINE",
"538.18 833.46 LINE",
"476.85 906.79 LINE",
"392.17 906.79 LINE",
"333.38 855.33 LINE",
"321.76 795.33 LINE",
"356.14 795.33 LINE",
"364.68 831.21 LINE",
"409.18 867.58 LINE",
"454.58 867.58 LINE",
"515.85 794.25 LINE"
);
},
{
closed = 1;
nodes = (
"669.06 938.79 LINE",
"676.89 982.74 LINE",
"356.06 982.74 LINE",
"348.22 938.79 LINE"
);
}
);
width = 685;
}
);
leftKerningGroup = C;
note = uni022C;
rightKerningGroup = O;
unicode = 022C;
},
{
glyphname = OE;
lastChange = "2019-09-04 12:33:25 +0000";
layers = (
{
hints = (
{
horizontal = 1;
place = "{0, 52.79}";
type = Stem;
},
{
horizontal = 1;
place = "{362.62, 52.79}";
type = Stem;
},
{
horizontal = 1;
place = "{684.21, 52.79}";
type = Stem;
},
{
place = "{95.63, 1054.7}";
type = Stem;
}
);
layerId = "EE67F182-E529-43D3-8004-363E3BB4E65C";
paths = (
{
closed = 1;
nodes = (
"1020.34 0 LINE",
"1029.63 52.79 LINE",
"617.95 52.79 LINE",
"672.74 362.62 LINE",
"1033.67 362.62 LINE",
"1042.97 415.41 LINE",
"682.05 415.41 LINE",
"729.29 684.21 LINE",
"1141 684.21 LINE",
"1150.33 737 LINE",
"681.83 736.96 LINE",
"673.45 689.43 LINE",
"634.67 737 LINE",
"298.13 737 LINE",
"190.9 645.29 LINE",
"95.64 105.02 LINE",
"181.36 0 LINE",
"517.85 0 LINE",
"557.93 34.31 LINE",
"551.88 -0.04 LINE"
);
},
{
closed = 1;
nodes = (
"154.39 117.33 LINE",
"242.76 619.66 LINE",
"319.76 685.58 LINE",
"608.01 685.71 LINE",
"661.21 620.04 LINE",
"572.49 116.85 LINE",
"496.18 51.41 LINE",
"207.93 51.29 LINE"
);
}
);
width = 1074;
}
);
leftKerningGroup = C;
note = OE;
rightKerningGroup = AE;
unicode = 0152;
},
{
glyphname = P;
lastChange = "2019-09-04 12:33:25 +0000";
layers = (
{
hints = (
{
horizontal = 1;
place = "{293.71, 51.37}";
type = Stem;
},
{
horizontal = 1;
place = "{685.71, 51.29}";
type = Stem;
},
{
place = "{93.33, 572.73}";
type = Stem;
}
);
layerId = "EE67F182-E529-43D3-8004-363E3BB4E65C";
paths = (
{
closed = 1;
nodes = (
"150.09 0 LINE",
"201.88 293.71 LINE",
"515.41 293.71 LINE",
"622.52 385.4 LINE",
"666.06 632.07 LINE",
"582.03 737 LINE",
"223.28 737 LINE",
"93.33 0 LINE"
);
},
{
closed = 1;
nodes = (
"270.99 685.67 LINE",
"553.83 685.75 LINE",
"607.29 619.66 LINE",
"570.65 411.08 LINE",
"493.73 345.12 LINE",
"210.93 345.04 LINE"
);
}
);
width = 595;
}
);
leftKerningGroup = B;
note = P;
rightKerningGroup = P;
unicode = 0050;
},
{
glyphname = Thorn;
lastChange = "2019-09-04 12:33:25 +0000";
layers = (
{
hints = (
{
horizontal = 1;
place = "{157.62, 51.38}";
type = Stem;
},
{
horizontal = 1;
place = "{549.63, 51.28}";
type = Stem;
},
{
place = "{93.33, 548.84}";
type = Stem;
}
);
layerId = "EE67F182-E529-43D3-8004-363E3BB4E65C";
paths = (
{
closed = 1;
nodes = (
"150.09 -0.75 LINE",
"178.02 157.62 LINE",
"491.52 157.62 LINE",
"598.64 249.32 LINE",
"642.17 495.98 LINE",
"558.14 600.91 LINE",
"256.18 600.91 LINE",
"280.04 736.25 LINE",
"223.28 736.25 LINE",
"93.33 -0.75 LINE"
);
},
{
closed = 1;
nodes = (
"247.13 549.59 LINE",
"529.94 549.66 LINE",
"583.4 483.58 LINE",
"546.77 275 LINE",
"469.84 209.04 LINE",
"187.07 208.96 LINE"
);
}
);
width = 595;
}
);
note = Thorn;
rightKerningGroup = Thorn;
unicode = 00DE;
},
{
glyphname = Q;
lastChange = "2019-09-04 12:33:25 +0000";
layers = (
{
hints = (
{
horizontal = 1;
place = "{0, 51.39}";
type = Stem;
},
{
horizontal = 1;
place = "{685.65, 51.35}";
type = Stem;
},
{
place = "{95.63, 624.61}";
type = Stem;
}
);
layerId = "EE67F182-E529-43D3-8004-363E3BB4E65C";
paths = (
{
closed = 1;
nodes = (
"347.71 -115.54 LINE",
"368.09 0 LINE",
"517.84 0 LINE",
"624.96 91.7 LINE",
"720.24 632.02 LINE",
"634.66 737 LINE",
"298.12 737 LINE",
"190.89 645.29 LINE",
"95.63 105.02 LINE",
"181.35 0 LINE",
"316.84 0 LINE",
"296.46 -115.54 LINE"
);
},
{
closed = 1;
nodes = (
"154.38 117.33 LINE",
"242.75 619.66 LINE",
"319.75 685.58 LINE",
"608 685.71 LINE",
"661.5 619.66 LINE",
"573.09 117.37 LINE",
"496.17 51.41 LINE",
"377.15 51.36 LINE",
"397.33 165.75 LINE",
"346.08 165.75 LINE",
"325.9 51.34 LINE",
"207.92 51.29 LINE"
);
}
);
width = 685;
}
);
leftKerningGroup = C;
note = Q;
rightKerningGroup = O;
unicode = 0051;
},
{
glyphname = R;
lastChange = "2019-09-04 12:33:25 +0000";
layers = (
{
hints = (
{
horizontal = 1;
place = "{313.75, 51.5}";
type = Stem;
},
{
horizontal = 1;
place = "{685.62, 51.38}";
type = Stem;
},
{
place = "{93.32, 587.3}";
type = Stem;
}
);
layerId = "EE67F182-E529-43D3-8004-363E3BB4E65C";
paths = (
{
closed = 1;
nodes = (
"150.08 0 LINE",
"205.4 313.75 LINE",
"444.2 313.75 LINE",
"536.25 0 LINE",
"596.5 0 LINE",
"504.45 313.75 LINE",
"525.57 313.75 LINE",
"640.9 412.75 LINE",
"680.62 638 LINE",
"600.2 737 LINE",
"223.27 737 LINE",
"93.32 0 LINE"
);
},
{
closed = 1;
nodes = (
"270.97 685.62 LINE",
"567.77 685.62 LINE",
"621 619.62 LINE",
"587.79 431.25 LINE",
"511.28 365.25 LINE",
"214.48 365.25 LINE"
);
}
);
width = 660;
}
);
leftKerningGroup = B;
note = R;
rightKerningGroup = R;
unicode = 0052;
},
{
glyphname = Racute;
lastChange = "2019-09-04 12:33:25 +0000";
layers = (
{
hints = (
{
horizontal = 1;
place = "{313.75, 51.5}";
type = Stem;
},
{
horizontal = 1;
place = "{685.62, 51.38}";
type = Stem;
},
{
horizontal = 1;
place = "{794.25, 143.66}";
type = Stem;
},
{
place = "{93.32, 587.3}";
type = Stem;
}
);
layerId = "EE67F182-E529-43D3-8004-363E3BB4E65C";
paths = (
{
closed = 1;
nodes = (
"150.08 0 LINE",
"205.4 313.75 LINE",
"444.2 313.75 LINE",
"536.25 0 LINE",
"596.5 0 LINE",
"504.45 313.75 LINE",
"525.57 313.75 LINE",
"640.9 412.75 LINE",
"680.62 638 LINE",
"600.2 737 LINE",
"223.27 737 LINE",
"93.32 0 LINE"
);
},
{
closed = 1;
nodes = (
"270.97 685.62 LINE",
"567.77 685.62 LINE",
"621 619.62 LINE",
"587.79 431.25 LINE",
"511.28 365.25 LINE",
"214.48 365.25 LINE"
);
},
{
closed = 1;
nodes = (
"471.15 794.25 LINE",
"610.59 937.91 LINE",
"533.53 937.91 LINE",
"417.91 794.25 LINE"
);
}
);
width = 660;
}
);
note = Racute;
rightKerningGroup = R;
unicode = 0154;
},
{
glyphname = Rcaron;
lastChange = "2019-09-04 12:33:25 +0000";
layers = (
{
hints = (
{
horizontal = 1;
place = "{313.75, 51.5}";
type = Stem;
},
{
horizontal = 1;
place = "{685.62, 51.38}";
type = Stem;
},
{
horizontal = 1;
place = "{794.24, 38.21}";
type = Stem;
},
{
place = "{93.32, 587.3}";
type = Stem;
}
);
layerId = "EE67F182-E529-43D3-8004-363E3BB4E65C";
paths = (
{
closed = 1;
nodes = (
"150.08 0 LINE",
"205.4 313.75 LINE",
"444.2 313.75 LINE",
"536.25 0 LINE",
"596.5 0 LINE",
"504.45 313.75 LINE",
"525.57 313.75 LINE",
"640.9 412.75 LINE",
"680.62 638 LINE",
"600.2 737 LINE",
"223.27 737 LINE",
"93.32 0 LINE"
);
},
{
closed = 1;
nodes = (
"270.97 685.62 LINE",
"567.77 685.62 LINE",
"621 619.62 LINE",
"587.79 431.25 LINE",
"511.28 365.25 LINE",
"214.48 365.25 LINE"
);
},
{
closed = 1;
nodes = (
"477.08 794.24 LINE",
"603.16 933.58 LINE",
"551.83 933.58 LINE",
"447.04 832.45 LINE",
"435.37 832.45 LINE",
"366.25 933.58 LINE",
"319.95 933.58 LINE",
"402.83 794.24 LINE"
);
}
);
width = 660;
}
);
note = Rcaron;
rightKerningGroup = R;
unicode = 0158;
},
{
glyphname = uni0156;
lastChange = "2019-09-04 12:33:25 +0000";
layers = (
{
hints = (
{
horizontal = 1;
place = "{-224.42, 167.17}";
type = Stem;
},
{
horizontal = 1;
place = "{313.75, 51.5}";
type = Stem;
},
{
horizontal = 1;
place = "{685.62, 51.38}";
type = Stem;
},
{
place = "{93.32, 587.3}";
type = Stem;
}
);
layerId = "EE67F182-E529-43D3-8004-363E3BB4E65C";
paths = (
{
closed = 1;
nodes = (
"150.08 0 LINE",
"205.4 313.75 LINE",
"444.2 313.75 LINE",
"536.25 0 LINE",
"596.5 0 LINE",
"504.45 313.75 LINE",
"525.57 313.75 LINE",
"640.9 412.75 LINE",
"680.62 638 LINE",
"600.2 737 LINE",
"223.27 737 LINE",
"93.32 0 LINE"
);
},
{
closed = 1;
nodes = (
"258.7 -224.42 LINE",
"352.02 -57.25 LINE",
"290.08 -57.25 LINE",
"222.08 -224.42 LINE"
);
},
{
closed = 1;
nodes = (
"270.97 685.62 LINE",
"567.77 685.62 LINE",
"621 619.62 LINE",
"587.79 431.25 LINE",
"511.28 365.25 LINE",
"214.48 365.25 LINE"
);
}
);
width = 660;
}
);
note = uni0156;
rightKerningGroup = R;
unicode = 0156;
},
{
glyphname = uni0210;
lastChange = "2019-09-04 12:33:25 +0000";
layers = (
{
hints = (
{
horizontal = 1;
place = "{313.75, 51.5}";
type = Stem;
},
{
horizontal = 1;
place = "{685.62, 51.38}";
type = Stem;
},
{
horizontal = 1;
place = "{794.25, 143.66}";
type = Stem;
},
{
place = "{93.32, 587.3}";
type = Stem;
}
);
layerId = "EE67F182-E529-43D3-8004-363E3BB4E65C";
paths = (
{
closed = 1;
nodes = (
"150.08 0 LINE",
"205.4 313.75 LINE",
"444.2 313.75 LINE",
"536.25 0 LINE",
"596.5 0 LINE",
"504.45 313.75 LINE",
"525.57 313.75 LINE",
"640.9 412.75 LINE",
"680.62 638 LINE",
"600.2 737 LINE",
"223.27 737 LINE",
"93.32 0 LINE"
);
},
{
closed = 1;
nodes = (
"270.97 685.62 LINE",
"567.77 685.62 LINE",
"621 619.62 LINE",
"587.79 431.25 LINE",
"511.28 365.25 LINE",
"214.48 365.25 LINE"
);
},
{
closed = 1;
nodes = (
"382.39 794.25 LINE",
"317.51 937.91 LINE",
"248.87 937.91 LINE",
"336.3 794.25 LINE"
);
},
{
closed = 1;
nodes = (
"520.49 794.25 LINE",
"455.61 937.91 LINE",
"386.97 937.91 LINE",
"474.41 794.25 LINE"
);
}
);
width = 660;
}
);
note = uni0210;
unicode = 0210;
},
{
glyphname = uni0212;
lastChange = "2019-09-04 12:33:25 +0000";
layers = (
{
hints = (
{
horizontal = 1;
place = "{313.75, 51.5}";
type = Stem;
},
{
horizontal = 1;
place = "{685.62, 51.38}";
type = Stem;
},
{
horizontal = 1;
place = "{879.62, 39.96}";
type = Stem;
},
{
place = "{93.32, 587.3}";
type = Stem;
}
);
layerId = "EE67F182-E529-43D3-8004-363E3BB4E65C";
paths = (
{
closed = 1;
nodes = (
"150.08 0 LINE",
"205.4 313.75 LINE",
"444.2 313.75 LINE",
"536.25 0 LINE",
"596.5 0 LINE",
"504.45 313.75 LINE",
"525.57 313.75 LINE",
"640.9 412.75 LINE",
"680.62 638 LINE",
"600.2 737 LINE",
"223.27 737 LINE",
"93.32 0 LINE"
);
},
{
closed = 1;
nodes = (
"270.97 685.62 LINE",
"567.77 685.62 LINE",
"621 619.62 LINE",
"587.79 431.25 LINE",
"511.28 365.25 LINE",
"214.48 365.25 LINE"
);
},
{
closed = 1;
nodes = (
"358.49 794.25 LINE",
"368.24 849.25 LINE",
"403.95 879.62 LINE",
"511.78 879.62 LINE",
"536.83 849.25 LINE",
"527.08 794.25 LINE",
"567.87 794.25 LINE",
"579.34 858.75 LINE",
"529.28 919.58 LINE",
"390.99 919.58 LINE",
"330.86 868.5 LINE",
"317.7 794.25 LINE"
);
}
);
width = 660;
}
);
note = uni0212;
unicode = 0212;
},
{
glyphname = S;
lastChange = "2019-09-04 12:33:25 +0000";
layers = (
{
hints = (
{
horizontal = 1;
place = "{0, 52.83}";
type = Stem;
},
{
horizontal = 1;
place = "{354.62, 51.23}";
type = Stem;
},
{
horizontal = 1;
place = "{684.17, 52.83}";
type = Stem;
},
{
place = "{92.54, 575.46}";
type = Stem;
}
);
layerId = "EE67F182-E529-43D3-8004-363E3BB4E65C";
paths = (
{
closed = 1;
nodes = (
"481.85 0 LINE",
"590.74 93.15 LINE",
"627.7 302.5 LINE",
"543.35 405.91 LINE",
"258.33 405.79 LINE",
"204.71 471.91 LINE",
"230.37 618.21 LINE",
"307.41 684.12 LINE",
"658.66 684.21 LINE",
"668 737 LINE",
"287.47 737 LINE",
"178.51 643.83 LINE",
"145.74 457.89 LINE",
"230.14 354.58 LINE",
"515.12 354.66 LINE",
"568.62 288.58 LINE",
"538.87 118.83 LINE",
"461.91 52.87 LINE",
"101.83 52.79 LINE",
"92.54 0 LINE"
);
}
);
width = 646;
}
);
leftKerningGroup = S;
note = S;
rightKerningGroup = S;
unicode = 0053;
},
{
glyphname = Sacute;
lastChange = "2019-09-04 12:33:25 +0000";
layers = (
{
hints = (
{
horizontal = 1;
place = "{0, 52.83}";
type = Stem;
},
{
horizontal = 1;
place = "{354.62, 51.23}";
type = Stem;
},
{
horizontal = 1;
place = "{684.17, 52.83}";
type = Stem;
},
{
horizontal = 1;
place = "{794.25, 143.66}";
type = Stem;
},
{
place = "{92.54, 575.46}";
type = Stem;
}
);
layerId = "EE67F182-E529-43D3-8004-363E3BB4E65C";
paths = (
{
closed = 1;
nodes = (
"481.85 0 LINE",
"590.74 93.15 LINE",
"627.7 302.5 LINE",
"543.35 405.91 LINE",
"258.33 405.79 LINE",
"204.71 471.91 LINE",
"230.37 618.21 LINE",
"307.41 684.12 LINE",
"658.66 684.21 LINE",
"668 737 LINE",
"287.47 737 LINE",
"178.51 643.83 LINE",
"145.74 457.89 LINE",
"230.14 354.58 LINE",
"515.12 354.66 LINE",
"568.62 288.58 LINE",
"538.87 118.83 LINE",
"461.91 52.87 LINE",
"101.83 52.79 LINE",
"92.54 0 LINE"
);
},
{
closed = 1;
nodes = (
"482.78 794.25 LINE",
"622.22 937.91 LINE",
"545.16 937.91 LINE",
"429.54 794.25 LINE"
);
}
);
width = 646;
}
);
leftKerningGroup = S;
note = Sacute;
rightKerningGroup = S;
unicode = 015A;
},
{
glyphname = Scaron;
lastChange = "2019-09-04 12:33:25 +0000";
layers = (
{
hints = (
{
horizontal = 1;
place = "{0, 52.83}";
type = Stem;
},
{
horizontal = 1;
place = "{354.62, 51.23}";
type = Stem;
},
{
horizontal = 1;
place = "{684.17, 52.83}";
type = Stem;
},
{
horizontal = 1;
place = "{794.24, 38.21}";
type = Stem;
},
{
place = "{92.54, 575.46}";
type = Stem;
}
);
layerId = "EE67F182-E529-43D3-8004-363E3BB4E65C";
paths = (
{
closed = 1;
nodes = (
"481.85 0 LINE",
"590.74 93.15 LINE",
"627.7 302.5 LINE",
"543.35 405.91 LINE",
"258.33 405.79 LINE",
"204.71 471.91 LINE",
"230.37 618.21 LINE",
"307.41 684.12 LINE",
"658.66 684.21 LINE",
"668 737 LINE",
"287.47 737 LINE",
"178.51 643.83 LINE",
"145.74 457.89 LINE",
"230.14 354.58 LINE",
"515.12 354.66 LINE",
"568.62 288.58 LINE",
"538.87 118.83 LINE",
"461.91 52.87 LINE",
"101.83 52.79 LINE",
"92.54 0 LINE"
);
},
{
closed = 1;
nodes = (
"488.71 794.24 LINE",
"614.79 933.58 LINE",
"563.46 933.58 LINE",
"458.67 832.45 LINE",
"447 832.45 LINE",
"377.88 933.58 LINE",
"331.58 933.58 LINE",
"414.46 794.24 LINE"
);
}
);
width = 646;
}
);
leftKerningGroup = S;
note = Scaron;
rightKerningGroup = S;
unicode = 0160;
},
{
glyphname = Scedilla;
lastChange = "2019-09-04 12:33:25 +0000";
layers = (
{
hints = (
{
horizontal = 1;
place = "{0, 52.83}";
type = Stem;
},
{
horizontal = 1;
place = "{354.62, 51.23}";
type = Stem;
},
{
horizontal = 1;
place = "{684.17, 52.83}";
type = Stem;
},
{
place = "{92.54, 575.46}";
type = Stem;
}
);
layerId = "EE67F182-E529-43D3-8004-363E3BB4E65C";
paths = (
{
closed = 1;
nodes = (
"280.45 -129.79 LINE",
"342.67 0 LINE",
"481.85 0 LINE",
"590.74 93.15 LINE",
"627.7 302.5 LINE",
"543.35 405.91 LINE",
"258.33 405.79 LINE",
"204.71 471.91 LINE",
"230.37 618.21 LINE",
"307.41 684.12 LINE",
"658.66 684.21 LINE",
"668 737 LINE",
"287.47 737 LINE",
"178.51 643.83 LINE",
"145.74 457.89 LINE",
"230.14 354.58 LINE",
"515.12 354.66 LINE",
"568.62 288.58 LINE",
"538.87 118.83 LINE",
"461.91 52.87 LINE",
"101.83 52.79 LINE",
"92.54 0 LINE",
"289.46 0 LINE",
"235.04 -129.79 LINE"
);
}
);
width = 646;
}
);
leftKerningGroup = S;
note = Scedilla;
rightKerningGroup = S;
unicode = 015E;
},
{
glyphname = Scircumflex;
lastChange = "2019-09-04 12:33:25 +0000";
layers = (
{
hints = (
{
horizontal = 1;
place = "{0, 52.83}";
type = Stem;
},
{
horizontal = 1;
place = "{354.62, 51.23}";
type = Stem;
},
{
horizontal = 1;
place = "{684.17, 52.83}";
type = Stem;
},
{
horizontal = 1;
place = "{895.37, 38.21}";
type = Stem;
},
{
place = "{92.54, 575.46}";
type = Stem;
}
);
layerId = "EE67F182-E529-43D3-8004-363E3BB4E65C";
paths = (
{
closed = 1;
nodes = (
"481.85 0 LINE",
"590.74 93.15 LINE",
"627.7 302.5 LINE",
"543.35 405.91 LINE",
"258.33 405.79 LINE",
"204.71 471.91 LINE",
"230.37 618.21 LINE",
"307.41 684.12 LINE",
"658.66 684.21 LINE",
"668 737 LINE",
"287.47 737 LINE",
"178.51 643.83 LINE",
"145.74 457.89 LINE",
"230.14 354.58 LINE",
"515.12 354.66 LINE",
"568.62 288.58 LINE",
"538.87 118.83 LINE",
"461.91 52.87 LINE",
"101.83 52.79 LINE",
"92.54 0 LINE"
);
},
{
closed = 1;
nodes = (
"360.96 794.25 LINE",
"465.75 895.37 LINE",
"477.41 895.37 LINE",
"546.54 794.25 LINE",
"592.84 794.25 LINE",
"509.96 933.58 LINE",
"435.7 933.58 LINE",
"309.62 794.25 LINE"
);
}
);
width = 646;
}
);
note = Scircumflex;
unicode = 015C;
},
{
glyphname = uni0218;
lastChange = "2019-09-04 12:33:25 +0000";
layers = (
{
hints = (
{
horizontal = 1;
place = "{-224.42, 167.17}";
type = Stem;
},
{
horizontal = 1;
place = "{0, 52.83}";
type = Stem;
},
{
horizontal = 1;
place = "{354.62, 51.23}";
type = Stem;
},
{
horizontal = 1;
place = "{684.17, 52.83}";
type = Stem;
},
{
place = "{92.54, 575.46}";
type = Stem;
}
);
layerId = "EE67F182-E529-43D3-8004-363E3BB4E65C";
paths = (
{
closed = 1;
nodes = (
"481.85 0 LINE",
"590.74 93.15 LINE",
"627.7 302.5 LINE",
"543.35 405.91 LINE",
"258.33 405.79 LINE",
"204.71 471.91 LINE",
"230.37 618.21 LINE",
"307.41 684.12 LINE",
"658.66 684.21 LINE",
"668 737 LINE",
"287.47 737 LINE",
"178.51 643.83 LINE",
"145.74 457.89 LINE",
"230.14 354.58 LINE",
"515.12 354.66 LINE",
"568.62 288.58 LINE",
"538.87 118.83 LINE",
"461.91 52.87 LINE",
"101.83 52.79 LINE",
"92.54 0 LINE"
);
},
{
closed = 1;
nodes = (
"242.53 -224.42 LINE",
"335.85 -57.25 LINE",
"273.91 -57.25 LINE",
"205.91 -224.42 LINE"
);
}
);
width = 646;
}
);
leftKerningGroup = S;
note = uni0218;
rightKerningGroup = S;
unicode = 0218;
},
{
glyphname = uni1E9E;
lastChange = "2019-09-04 12:33:25 +0000";
layers = (
{
hints = (
{
horizontal = 1;
place = "{0, 51.35}";
type = Stem;
},
{
horizontal = 1;
place = "{378.83, 51.29}";
type = Stem;
},
{
horizontal = 1;
place = "{685.65, 51.35}";
type = Stem;
},
{
place = "{93.33, 565.06}";
type = Stem;
}
);
layerId = "EE67F182-E529-43D3-8004-363E3BB4E65C";
paths = (
{
closed = 1;
nodes = (
"149.75 0 LINE",
"258.96 619.66 LINE",
"335.96 685.58 LINE",
"532.22 685.71 LINE",
"586.82 618.23 LINE",
"365.83 422.79 LINE",
"358.08 378.79 LINE",
"529.71 378.87 LINE",
"599.67 287.99 LINE",
"570.76 122.66 LINE",
"487.68 51.41 LINE",
"339.31 51.29 LINE",
"268.38 138.36 LINE",
"228.07 103.94 LINE",
"312.74 0 LINE",
"509.35 0 LINE",
"622.52 96.82 LINE",
"658.39 300.24 LINE",
"556.62 430.12 LINE",
"441.96 430.12 LINE",
"634.29 601.33 LINE",
"640.62 636.81 LINE",
"558.88 737 LINE",
"314.33 737 LINE",
"207.09 645.28 LINE",
"93.33 0 LINE"
);
}
);
width = 675;
}
);
note = uni1E9E;
unicode = 1E9E;
},
{
glyphname = uni018F;
lastChange = "2019-09-04 12:33:25 +0000";
layers = (
{
hints = (
{
horizontal = 1;
place = "{0, 51.35}";
type = Stem;
},
{
horizontal = 1;
place = "{347.37, 49.38}";
type = Stem;
},
{
horizontal = 1;
place = "{685.65, 51.35}";
type = Stem;
},
{
place = "{95.64, 690.6}";
type = Stem;
}
);
layerId = "EE67F182-E529-43D3-8004-363E3BB4E65C";
paths = (
{
closed = 1;
nodes = (
"583.85 0 LINE",
"690.96 91.7 LINE",
"786.24 632.02 LINE",
"700.66 737 LINE",
"218.88 737 LINE",
"209.8 685.58 LINE",
"674.01 685.71 LINE",
"727.51 619.66 LINE",
"688.27 396.75 LINE",
"147.13 396.75 LINE",
"95.64 105.02 LINE",
"181.35 0 LINE"
);
},
{
closed = 1;
nodes = (
"154.38 117.33 LINE",
"194.88 347.37 LINE",
"679.58 347.37 LINE",
"639.09 117.37 LINE",
"562.17 51.41 LINE",
"207.92 51.29 LINE"
);
}
);
width = 751;
}
);
note = uni018F;
unicode = 018F;
},
{
glyphname = T;
lastChange = "2019-09-04 12:33:25 +0000";
layers = (
{
hints = (
{
horizontal = 1;
place = "{684.21, 52.79}";
type = Stem;
},
{
place = "{132.33, 531.5}";
type = Stem;
}
);
layerId = "EE67F182-E529-43D3-8004-363E3BB4E65C";
paths = (
{
closed = 1;
nodes = (
"301.59 0 LINE",
"422.24 684.21 LINE",
"654.5 684.21 LINE",
"663.83 737 LINE",
"141.66 737 LINE",
"132.33 684.21 LINE",
"365.48 684.21 LINE",
"244.83 0 LINE"
);
}
);
width = 546;
}
);
leftKerningGroup = T;
note = T;
rightKerningGroup = T;
unicode = 0054;
},
{
glyphname = Tbar;
lastChange = "2019-09-04 12:33:25 +0000";
layers = (
{
hints = (
{
horizontal = 1;
place = "{365.91, 45.46}";
type = Stem;
},
{
horizontal = 1;
place = "{684.21, 52.79}";
type = Stem;
},
{
place = "{132.33, 531.5}";
type = Stem;
}
);
layerId = "EE67F182-E529-43D3-8004-363E3BB4E65C";
paths = (
{
closed = 1;
nodes = (
"301.59 0 LINE",
"366.11 365.91 LINE",
"535.25 365.91 LINE",
"543.25 411.37 LINE",
"374.13 411.37 LINE",
"422.24 684.21 LINE",
"654.5 684.21 LINE",
"663.83 737 LINE",
"141.66 737 LINE",
"132.33 684.21 LINE",
"365.48 684.21 LINE",
"317.37 411.37 LINE",
"147.25 411.37 LINE",
"139.25 365.91 LINE",
"309.35 365.91 LINE",
"244.83 0 LINE"
);
}
);
width = 546;
}
);
leftKerningGroup = T;
note = Tbar;
rightKerningGroup = T;
unicode = 0166;
},
{
glyphname = Tcaron;
lastChange = "2019-09-04 12:33:25 +0000";
layers = (
{
hints = (
{
horizontal = 1;
place = "{684.21, 52.79}";
type = Stem;
},
{
horizontal = 1;
place = "{794.24, 38.21}";
type = Stem;
},
{
place = "{132.33, 531.5}";
type = Stem;
}
);
layerId = "EE67F182-E529-43D3-8004-363E3BB4E65C";
paths = (
{
closed = 1;
nodes = (
"301.59 0 LINE",
"422.24 684.21 LINE",
"654.5 684.21 LINE",
"663.83 737 LINE",
"141.66 737 LINE",
"132.33 684.21 LINE",
"365.48 684.21 LINE",
"244.83 0 LINE"
);
},
{
closed = 1;
nodes = (
"446.34 794.24 LINE",
"572.42 933.58 LINE",
"521.09 933.58 LINE",
"416.3 832.45 LINE",
"404.63 832.45 LINE",
"335.5 933.58 LINE",
"289.2 933.58 LINE",
"372.09 794.24 LINE"
);
}
);
width = 546;
}
);
leftKerningGroup = T;
note = Tcaron;
rightKerningGroup = T;
unicode = 0164;
},
{
glyphname = uni0162;
lastChange = "2019-09-04 12:33:25 +0000";
layers = (
{
hints = (
{
horizontal = 1;
place = "{684.21, 52.79}";
type = Stem;
},
{
place = "{132.33, 531.5}";
type = Stem;
}
);
layerId = "EE67F182-E529-43D3-8004-363E3BB4E65C";
paths = (
{
closed = 1;
nodes = (
"247.28 -129.79 LINE",
"301.45 0 LINE",
"301.6 0 LINE",
"422.25 684.21 LINE",
"654.51 684.21 LINE",
"663.83 737 LINE",
"141.66 737 LINE",
"132.33 684.21 LINE",
"365.48 684.21 LINE",
"244.83 0 LINE",
"252.16 0 LINE",
"205.16 -129.79 LINE"
);
}
);
width = 545;
}
);
leftKerningGroup = T;
note = uni0162;
rightKerningGroup = T;
unicode = 0162;
},
{
glyphname = uni021A;
lastChange = "2019-09-04 12:33:25 +0000";
layers = (
{
hints = (
{
horizontal = 1;
place = "{-224.42, 167.17}";
type = Stem;
},
{
horizontal = 1;
place = "{684.21, 52.79}";
type = Stem;
},
{
place = "{132.33, 531.5}";
type = Stem;
}
);
layerId = "EE67F182-E529-43D3-8004-363E3BB4E65C";
paths = (
{
closed = 1;
nodes = (
"301.59 0 LINE",
"422.24 684.21 LINE",
"654.5 684.21 LINE",
"663.83 737 LINE",
"141.66 737 LINE",
"132.33 684.21 LINE",
"365.48 684.21 LINE",
"244.83 0 LINE"
);
},
{
closed = 1;
nodes = (
"200.53 -224.42 LINE",
"293.85 -57.25 LINE",
"231.91 -57.25 LINE",
"163.91 -224.42 LINE"
);
}
);
width = 546;
}
);
leftKerningGroup = T;
note = uni021A;
rightKerningGroup = T;
unicode = 021A;
},
{
glyphname = U;
lastChange = "2019-09-04 12:33:25 +0000";
layers = (
{
hints = (
{
horizontal = 1;
place = "{0, 51.35}";
type = Stem;
},
{
place = "{93.78, 641.67}";
type = Stem;
}
);
layerId = "EE67F182-E529-43D3-8004-363E3BB4E65C";
paths = (
{
closed = 1;
nodes = (
"621.5 91.57 LINE",
"735.45 737 LINE",
"678.99 737 LINE",
"569.63 117.25 LINE",
"492.72 51.29 LINE",
"206.06 51.41 LINE",
"152.44 117.41 LINE",
"261.74 737 LINE",
"205.28 737 LINE",
"93.78 105.15 LINE",
"179.49 0.12 LINE",
"514.39 -0.13 LINE"
);
}
);
width = 694;
}
);
note = U;
unicode = 0055;
},
{
glyphname = Uacute;
lastChange = "2019-09-04 12:33:25 +0000";
layers = (
{
hints = (
{
horizontal = 1;
place = "{0, 51.35}";
type = Stem;
},
{
horizontal = 1;
place = "{794.25, 143.66}";
type = Stem;
},
{
place = "{93.78, 641.67}";
type = Stem;
}
);
layerId = "EE67F182-E529-43D3-8004-363E3BB4E65C";
paths = (
{
closed = 1;
nodes = (
"621.5 91.57 LINE",
"735.45 737 LINE",
"678.99 737 LINE",
"569.63 117.25 LINE",
"492.72 51.29 LINE",
"206.06 51.41 LINE",
"152.44 117.41 LINE",
"261.74 737 LINE",
"205.28 737 LINE",
"93.78 105.15 LINE",
"179.49 0.12 LINE",
"514.39 -0.13 LINE"
);
},
{
closed = 1;
nodes = (
"504.78 794.25 LINE",
"644.22 937.91 LINE",
"567.16 937.91 LINE",
"451.54 794.25 LINE"
);
}
);
width = 694;
}
);
note = Uacute;
unicode = 00DA;
},
{
glyphname = Ubreve;
lastChange = "2019-09-04 12:33:25 +0000";
layers = (
{
hints = (
{
horizontal = 1;
place = "{0, 51.35}";
type = Stem;
},
{
horizontal = 1;
place = "{794.24, 39.92}";
type = Stem;
},
{
place = "{93.78, 641.67}";
type = Stem;
}
);
layerId = "EE67F182-E529-43D3-8004-363E3BB4E65C";
paths = (
{
closed = 1;
nodes = (
"621.5 91.57 LINE",
"735.45 737 LINE",
"678.99 737 LINE",
"569.63 117.25 LINE",
"492.72 51.29 LINE",
"206.06 51.41 LINE",
"152.44 117.41 LINE",
"261.74 737 LINE",
"205.28 737 LINE",
"93.78 105.15 LINE",
"179.49 0.12 LINE",
"514.39 -0.13 LINE"
);
},
{
closed = 1;
nodes = (
"545.73 794.25 LINE",
"605.77 845.18 LINE",
"619 919.58 LINE",
"578.21 919.58 LINE",
"568.46 864.58 LINE",
"532.75 834.16 LINE",
"424.91 834.16 LINE",
"399.87 864.58 LINE",
"409.62 919.58 LINE",
"368.83 919.58 LINE",
"357.31 854.38 LINE",
"407.43 794.22 LINE"
);
}
);
width = 694;
}
);
note = Ubreve;
unicode = 016C;
},
{
glyphname = Ucircumflex;
lastChange = "2019-09-04 12:33:25 +0000";
layers = (
{
hints = (
{
horizontal = 1;
place = "{0, 51.35}";
type = Stem;
},
{
horizontal = 1;
place = "{895.37, 38.21}";
type = Stem;
},
{
place = "{93.78, 641.67}";
type = Stem;
}
);
layerId = "EE67F182-E529-43D3-8004-363E3BB4E65C";
paths = (
{
closed = 1;
nodes = (
"621.5 91.57 LINE",
"735.45 737 LINE",
"678.99 737 LINE",
"569.63 117.25 LINE",
"492.72 51.29 LINE",
"206.06 51.41 LINE",
"152.44 117.41 LINE",
"261.74 737 LINE",
"205.28 737 LINE",
"93.78 105.15 LINE",
"179.49 0.12 LINE",
"514.39 -0.13 LINE"
);
},
{
closed = 1;
nodes = (
"382.96 794.25 LINE",
"487.75 895.37 LINE",
"499.41 895.37 LINE",
"568.54 794.25 LINE",
"614.84 794.25 LINE",
"531.96 933.58 LINE",
"457.7 933.58 LINE",
"331.62 794.25 LINE"
);
}
);
width = 694;
}
);
note = Ucircumflex;
unicode = 00DB;
},
{
glyphname = uni0214;
lastChange = "2019-09-04 12:33:25 +0000";
layers = (
{
hints = (
{
horizontal = 1;
place = "{0, 51.35}";
type = Stem;
},
{
horizontal = 1;
place = "{794.25, 143.66}";
type = Stem;
},
{
place = "{93.78, 641.67}";
type = Stem;
}
);
layerId = "EE67F182-E529-43D3-8004-363E3BB4E65C";
paths = (
{
closed = 1;
nodes = (
"621.5 91.57 LINE",
"735.45 737 LINE",
"678.99 737 LINE",
"569.63 117.25 LINE",
"492.72 51.29 LINE",
"206.06 51.41 LINE",
"152.44 117.41 LINE",
"261.74 737 LINE",
"205.28 737 LINE",
"93.78 105.15 LINE",
"179.49 0.12 LINE",
"514.39 -0.13 LINE"
);
},
{
closed = 1;
nodes = (
"416.02 794.25 LINE",
"351.14 937.91 LINE",
"282.5 937.91 LINE",
"369.94 794.25 LINE"
);
},
{
closed = 1;
nodes = (
"554.12 794.25 LINE",
"489.24 937.91 LINE",
"420.6 937.91 LINE",
"508.04 794.25 LINE"
);
}
);
width = 694;
}
);
note = uni0214;
unicode = 0214;
},
{
glyphname = Udieresis;
lastChange = "2019-09-04 12:33:25 +0000";
layers = (
{
hints = (
{
horizontal = 1;
place = "{0, 51.35}";
type = Stem;
},
{
horizontal = 1;
place = "{794.25, 110.83}";
type = Stem;
},
{
place = "{93.78, 641.67}";
type = Stem;
}
);
layerId = "EE67F182-E529-43D3-8004-363E3BB4E65C";
paths = (
{
closed = 1;
nodes = (
"621.5 91.57 LINE",
"735.45 737 LINE",
"678.99 737 LINE",
"569.63 117.25 LINE",
"492.72 51.29 LINE",
"206.06 51.41 LINE",
"152.44 117.41 LINE",
"261.74 737 LINE",
"205.28 737 LINE",
"93.78 105.15 LINE",
"179.49 0.12 LINE",
"514.39 -0.13 LINE"
);
},
{
closed = 1;
nodes = (
"370 794.25 LINE",
"389.54 905.08 LINE",
"334.54 905.08 LINE",
"315 794.25 LINE"
);
},
{
closed = 1;
nodes = (
"635.83 794.25 LINE",
"655.37 905.08 LINE",
"600.37 905.08 LINE",
"580.83 794.25 LINE"
);
}
);
width = 694;
}
);
note = Udieresis;
unicode = 00DC;
},
{
glyphname = uni1EE4;
lastChange = "2019-09-04 12:33:25 +0000";
layers = (
{
hints = (
{
horizontal = 1;
place = "{-167.96, 110.71}";
type = Stem;
},
{
horizontal = 1;
place = "{0, 51.35}";
type = Stem;
},
{
place = "{93.78, 641.67}";
type = Stem;
}
);
layerId = "EE67F182-E529-43D3-8004-363E3BB4E65C";
paths = (
{
closed = 1;
nodes = (
"621.5 91.57 LINE",
"735.45 737 LINE",
"678.99 737 LINE",
"569.63 117.25 LINE",
"492.72 51.29 LINE",
"206.06 51.41 LINE",
"152.44 117.41 LINE",
"261.74 737 LINE",
"205.28 737 LINE",
"93.78 105.15 LINE",
"179.49 0.12 LINE",
"514.39 -0.13 LINE"
);
},
{
closed = 1;
nodes = (
"339.98 -167.96 LINE",
"359.52 -57.25 LINE",
"304.52 -57.25 LINE",
"284.98 -167.96 LINE"
);
}
);
width = 694;
}
);
note = uni1EE4;
unicode = 1EE4;
},
{
glyphname = Ugrave;
lastChange = "2019-09-04 12:33:25 +0000";
layers = (
{
hints = (
{
horizontal = 1;
place = "{0, 51.35}";
type = Stem;
},
{
horizontal = 1;
place = "{794.25, 143.66}";
type = Stem;
},
{
place = "{93.78, 641.67}";
type = Stem;
}
);
layerId = "EE67F182-E529-43D3-8004-363E3BB4E65C";
paths = (
{
closed = 1;
nodes = (
"621.5 91.57 LINE",
"735.45 737 LINE",
"678.99 737 LINE",
"569.63 117.25 LINE",
"492.72 51.29 LINE",
"206.06 51.41 LINE",
"152.44 117.41 LINE",
"261.74 737 LINE",
"205.28 737 LINE",
"93.78 105.15 LINE",
"179.49 0.12 LINE",
"514.39 -0.13 LINE"
);
},
{
closed = 1;
nodes = (
"483.52 794.25 LINE",
"418.65 937.91 LINE",
"350 937.91 LINE",
"437.44 794.25 LINE"
);
}
);
width = 694;
}
);
note = Ugrave;
unicode = 00D9;
},
{
glyphname = uni1EE6;
lastChange = "2019-09-04 12:33:25 +0000";
layers = (
{
hints = (
{
horizontal = 1;
place = "{0, 51.35}";
type = Stem;
},
{
horizontal = 1;
place = "{953.66, 38.09}";
type = Stem;
},
{
place = "{458.12, 39.24}";
type = Stem;
}
);
layerId = "EE67F182-E529-43D3-8004-363E3BB4E65C";
paths = (
{
closed = 1;
nodes = (
"621.5 91.57 LINE",
"735.45 737 LINE",
"678.99 737 LINE",
"569.63 117.25 LINE",
"492.72 51.29 LINE",
"206.06 51.41 LINE",
"152.44 117.41 LINE",
"261.74 737 LINE",
"205.28 737 LINE",
"93.78 105.15 LINE",
"179.49 0.12 LINE",
"514.39 -0.13 LINE"
);
},
{
closed = 1;
nodes = (
"494.96 794.25 LINE",
"499.76 820.94 LINE",
"579.62 882.98 LINE",
"591.04 947.69 LINE",
"556.17 991.75 LINE",
"467.98 991.75 LINE",
"420.92 950.35 LINE",
"446.96 919.54 LINE",
"485.87 953.66 LINE",
"532.9 953.66 LINE",
"545.8 937.21 LINE",
"539.79 903.37 LINE",
"462.33 841.79 LINE",
"453.91 794.25 LINE"
);
}
);
width = 694;
}
);
note = uni1EE6;
unicode = 1EE6;
},
{
glyphname = Uhorn;
lastChange = "2019-09-04 12:33:25 +0000";
layers = (
{
hints = (
{
horizontal = 1;
place = "{0, 51.35}";
type = Stem;
},
{
horizontal = 1;
place = "{624.46, 39.95}";
type = Stem;
},
{
place = "{93.78, 802.58}";
type = Stem;
}
);
layerId = "EE67F182-E529-43D3-8004-363E3BB4E65C";
paths = (
{
closed = 1;
nodes = (
"621.5 91.57 LINE",
"715.58 624.46 LINE",
"809.51 624.46 LINE",
"896.36 802.54 LINE",
"832.16 802.54 LINE",
"779.37 664.41 LINE",
"722.64 664.41 LINE",
"735.45 737 LINE",
"678.99 737 LINE",
"569.63 117.25 LINE",
"492.72 51.29 LINE",
"206.06 51.41 LINE",
"152.44 117.41 LINE",
"261.74 737 LINE",
"205.28 737 LINE",
"93.78 105.15 LINE",
"179.49 0.12 LINE",
"514.39 -0.13 LINE"
);
}
);
width = 694;
}
);
note = Uhorn;
unicode = 01AF;
},
{
glyphname = uni1EE8;
lastChange = "2019-09-04 12:33:25 +0000";
layers = (
{
hints = (
{
horizontal = 1;
place = "{0, 51.35}";
type = Stem;
},
{
horizontal = 1;
place = "{624.46, 39.95}";
type = Stem;
},
{
horizontal = 1;
place = "{794.25, 143.66}";
type = Stem;
},
{
place = "{93.78, 802.58}";
type = Stem;
}
);
layerId = "EE67F182-E529-43D3-8004-363E3BB4E65C";
paths = (
{
closed = 1;
nodes = (
"621.5 91.57 LINE",
"715.58 624.46 LINE",
"809.51 624.46 LINE",
"896.36 802.54 LINE",
"832.16 802.54 LINE",
"779.37 664.41 LINE",
"722.64 664.41 LINE",
"735.45 737 LINE",
"678.99 737 LINE",
"569.63 117.25 LINE",
"492.72 51.29 LINE",
"206.06 51.41 LINE",
"152.44 117.41 LINE",
"261.74 737 LINE",
"205.28 737 LINE",
"93.78 105.15 LINE",
"179.49 0.12 LINE",
"514.39 -0.13 LINE"
);
},
{
closed = 1;
nodes = (
"504.78 794.25 LINE",
"644.22 937.91 LINE",
"567.16 937.91 LINE",
"451.54 794.25 LINE"
);
}
);
width = 694;
}
);
note = uni1EE8;
unicode = 1EE8;
},
{
glyphname = uni1EF0;
lastChange = "2019-09-04 12:33:25 +0000";
layers = (
{
hints = (
{
horizontal = 1;
place = "{-167.96, 110.71}";
type = Stem;
},
{
horizontal = 1;
place = "{0, 51.35}";
type = Stem;
},
{
horizontal = 1;
place = "{624.46, 39.95}";
type = Stem;
},
{
place = "{93.78, 802.58}";
type = Stem;
}
);
layerId = "EE67F182-E529-43D3-8004-363E3BB4E65C";
paths = (
{
closed = 1;
nodes = (
"621.5 91.57 LINE",
"715.58 624.46 LINE",
"809.51 624.46 LINE",
"896.36 802.54 LINE",
"832.16 802.54 LINE",
"779.37 664.41 LINE",
"722.64 664.41 LINE",
"735.45 737 LINE",
"678.99 737 LINE",
"569.63 117.25 LINE",
"492.72 51.29 LINE",
"206.06 51.41 LINE",
"152.44 117.41 LINE",
"261.74 737 LINE",
"205.28 737 LINE",
"93.78 105.15 LINE",
"179.49 0.12 LINE",
"514.39 -0.13 LINE"
);
},
{
closed = 1;
nodes = (
"339.98 -167.96 LINE",
"359.52 -57.25 LINE",
"304.52 -57.25 LINE",
"284.98 -167.96 LINE"
);
}
);
width = 694;
}
);
note = uni1EF0;
unicode = 1EF0;
},
{
glyphname = uni1EEA;
lastChange = "2019-09-04 12:33:25 +0000";
layers = (
{
hints = (
{
horizontal = 1;
place = "{0, 51.35}";
type = Stem;
},
{
horizontal = 1;
place = "{624.46, 39.95}";
type = Stem;
},
{
horizontal = 1;
place = "{794.25, 143.66}";
type = Stem;
},
{
place = "{93.78, 802.58}";
type = Stem;
}
);
layerId = "EE67F182-E529-43D3-8004-363E3BB4E65C";
paths = (
{
closed = 1;
nodes = (
"621.5 91.57 LINE",
"715.58 624.46 LINE",
"809.51 624.46 LINE",
"896.36 802.54 LINE",
"832.16 802.54 LINE",
"779.37 664.41 LINE",
"722.64 664.41 LINE",
"735.45 737 LINE",
"678.99 737 LINE",
"569.63 117.25 LINE",
"492.72 51.29 LINE",
"206.06 51.41 LINE",
"152.44 117.41 LINE",
"261.74 737 LINE",
"205.28 737 LINE",
"93.78 105.15 LINE",
"179.49 0.12 LINE",
"514.39 -0.13 LINE"
);
},
{
closed = 1;
nodes = (
"483.52 794.25 LINE",
"418.65 937.91 LINE",
"350 937.91 LINE",
"437.44 794.25 LINE"
);
}
);
width = 694;
}
);
note = uni1EEA;
unicode = 1EEA;
},
{
glyphname = uni1EEC;
lastChange = "2019-09-04 12:33:25 +0000";
layers = (
{
hints = (
{
horizontal = 1;
place = "{0, 51.35}";
type = Stem;
},
{
horizontal = 1;
place = "{624.46, 39.95}";
type = Stem;
},
{
horizontal = 1;
place = "{953.66, 38.09}";
type = Stem;
},
{
place = "{458.12, 39.24}";
type = Stem;
}
);
layerId = "EE67F182-E529-43D3-8004-363E3BB4E65C";
paths = (
{
closed = 1;
nodes = (
"621.5 91.57 LINE",
"715.58 624.46 LINE",
"809.51 624.46 LINE",
"896.36 802.54 LINE",
"832.16 802.54 LINE",
"779.37 664.41 LINE",
"722.64 664.41 LINE",
"735.45 737 LINE",
"678.99 737 LINE",
"569.63 117.25 LINE",
"492.72 51.29 LINE",
"206.06 51.41 LINE",
"152.44 117.41 LINE",
"261.74 737 LINE",
"205.28 737 LINE",
"93.78 105.15 LINE",
"179.49 0.12 LINE",
"514.39 -0.13 LINE"
);
},
{
closed = 1;
nodes = (
"494.96 794.25 LINE",
"499.76 820.94 LINE",
"579.62 882.98 LINE",
"591.04 947.69 LINE",
"556.17 991.75 LINE",
"467.98 991.75 LINE",
"420.92 950.35 LINE",
"446.96 919.54 LINE",
"485.87 953.66 LINE",
"532.9 953.66 LINE",
"545.8 937.21 LINE",
"539.79 903.37 LINE",
"462.33 841.79 LINE",
"453.91 794.25 LINE"
);
}
);
width = 694;
}
);
note = uni1EEC;
unicode = 1EEC;
},
{
glyphname = uni1EEE;
lastChange = "2019-09-04 12:33:25 +0000";
layers = (
{
hints = (
{
horizontal = 1;
place = "{0, 51.35}";
type = Stem;
},
{
horizontal = 1;
place = "{624.46, 39.95}";
type = Stem;
},
{
horizontal = 1;
place = "{794.25, 39.21}";
type = Stem;
},
{
horizontal = 1;
place = "{867.58, 39.21}";
type = Stem;
},
{
place = "{93.78, 802.58}";
type = Stem;
}
);
layerId = "EE67F182-E529-43D3-8004-363E3BB4E65C";
paths = (
{
closed = 1;
nodes = (
"621.51 91.57 LINE",
"715.59 624.46 LINE",
"809.52 624.46 LINE",
"896.37 802.54 LINE",
"832.17 802.54 LINE",
"779.38 664.41 LINE",
"722.65 664.41 LINE",
"735.46 737 LINE",
"679 737 LINE",
"569.64 117.25 LINE",
"492.73 51.29 LINE",
"206.07 51.41 LINE",
"152.45 117.41 LINE",
"261.75 737 LINE",
"205.29 737 LINE",
"93.79 105.15 LINE",
"179.5 0.12 LINE",
"514.4 -0.13 LINE"
);
},
{
closed = 1;
nodes = (
"588.96 794.25 LINE",
"647.63 845.23 LINE",
"659.23 905.66 LINE",
"624.96 905.66 LINE",
"616.5 869.71 LINE",
"571.96 833.46 LINE",
"534.96 833.46 LINE",
"473.64 906.79 LINE",
"388.96 906.79 LINE",
"330.16 855.33 LINE",
"318.54 795.33 LINE",
"352.92 795.33 LINE",
"361.46 831.21 LINE",
"405.96 867.58 LINE",
"451.35 867.58 LINE",
"512.62 794.25 LINE"
);
}
);
width = 694;
}
);
note = uni1EEE;
unicode = 1EEE;
},
{
glyphname = Uhungarumlaut;
lastChange = "2019-09-04 12:33:25 +0000";
layers = (
{
hints = (
{
horizontal = 1;
place = "{0, 51.35}";
type = Stem;
},
{
horizontal = 1;
place = "{794.25, 143.66}";
type = Stem;
},
{
place = "{93.78, 641.67}";
type = Stem;
}
);
layerId = "EE67F182-E529-43D3-8004-363E3BB4E65C";
paths = (
{
closed = 1;
nodes = (
"621.5 91.57 LINE",
"735.45 737 LINE",
"678.99 737 LINE",
"569.63 117.25 LINE",
"492.72 51.29 LINE",
"206.06 51.41 LINE",
"152.44 117.41 LINE",
"261.74 737 LINE",
"205.28 737 LINE",
"93.78 105.15 LINE",
"179.49 0.12 LINE",
"514.39 -0.13 LINE"
);
},
{
closed = 1;
nodes = (
"426.15 794.25 LINE",
"565.6 937.91 LINE",
"488.54 937.91 LINE",
"372.91 794.25 LINE"
);
},
{
closed = 1;
nodes = (
"564.03 794.25 LINE",
"703.47 937.91 LINE",
"626.41 937.91 LINE",
"510.79 794.25 LINE"
);
}
);
width = 694;
}
);
note = Uhungarumlaut;
unicode = 0170;
},
{
glyphname = uni0216;
lastChange = "2019-09-04 12:33:25 +0000";
layers = (
{
hints = (
{
horizontal = 1;
place = "{0, 51.35}";
type = Stem;
},
{
horizontal = 1;
place = "{879.62, 39.96}";
type = Stem;
},
{
place = "{93.78, 641.67}";
type = Stem;
}
);
layerId = "EE67F182-E529-43D3-8004-363E3BB4E65C";
paths = (
{
closed = 1;
nodes = (
"621.5 91.57 LINE",
"735.45 737 LINE",
"678.99 737 LINE",
"569.63 117.25 LINE",
"492.72 51.29 LINE",
"206.06 51.41 LINE",
"152.44 117.41 LINE",
"261.74 737 LINE",
"205.28 737 LINE",
"93.78 105.15 LINE",
"179.49 0.12 LINE",
"514.39 -0.13 LINE"
);
},
{
closed = 1;
nodes = (
"392.12 794.25 LINE",
"401.87 849.25 LINE",
"437.58 879.62 LINE",
"545.41 879.62 LINE",
"570.46 849.25 LINE",
"560.71 794.25 LINE",
"601.5 794.25 LINE",
"612.97 858.75 LINE",
"562.91 919.58 LINE",
"424.62 919.58 LINE",
"364.49 868.5 LINE",
"351.33 794.25 LINE"
);
}
);
width = 694;
}
);
note = uni0216;
unicode = 0216;
},
{
glyphname = Umacron;
lastChange = "2019-09-04 12:33:25 +0000";
layers = (
{
hints = (
{
horizontal = 1;
place = "{0, 51.35}";
type = Stem;
},
{
horizontal = 1;
place = "{794.25, 43.96}";
type = Stem;
},
{
place = "{93.78, 641.67}";
type = Stem;
}
);
layerId = "EE67F182-E529-43D3-8004-363E3BB4E65C";
paths = (
{
closed = 1;
nodes = (
"621.51 91.57 LINE",
"735.46 737 LINE",
"679 737 LINE",
"569.64 117.25 LINE",
"492.73 51.29 LINE",
"206.07 51.41 LINE",
"152.45 117.41 LINE",
"261.75 737 LINE",
"205.29 737 LINE",
"93.79 105.15 LINE",
"179.5 0.12 LINE",
"514.4 -0.13 LINE"
);
},
{
closed = 1;
nodes = (
"637.5 794.25 LINE",
"645.33 838.21 LINE",
"324.5 838.21 LINE",
"316.66 794.25 LINE"
);
}
);
width = 694;
}
);
note = Umacron;
unicode = 016A;
},
{
glyphname = Uogonek;
lastChange = "2019-09-04 12:33:25 +0000";
layers = (
{
hints = (
{
horizontal = 1;
place = "{-149.63, 41.79}";
type = Stem;
},
{
horizontal = 1;
place = "{0.06, 51.29}";
type = Stem;
},
{
place = "{93.78, 641.67}";
type = Stem;
}
);
layerId = "EE67F182-E529-43D3-8004-363E3BB4E65C";
paths = (
{
closed = 1;
nodes = (
"368.25 -149.63 LINE",
"375.62 -107.84 LINE",
"350.33 -107.84 LINE",
"327.04 -79.59 LINE",
"333.87 -41.25 LINE",
"394.61 -0.04 LINE",
"514.39 -0.13 LINE",
"621.5 91.57 LINE",
"735.45 737 LINE",
"678.99 737 LINE",
"569.63 117.25 LINE",
"492.72 51.29 LINE",
"206.06 51.41 LINE",
"152.44 117.41 LINE",
"261.74 737 LINE",
"205.28 737 LINE",
"93.78 105.15 LINE",
"179.49 0.12 LINE",
"339.62 0 LINE",
"295.8 -29.71 LINE",
"284.92 -91.96 LINE",
"332.27 -149.63 LINE"
);
}
);
width = 694;
}
);
note = Uogonek;
unicode = 0172;
},
{
glyphname = Uring;
lastChange = "2019-09-04 12:33:25 +0000";
layers = (
{
hints = (
{
horizontal = 1;
place = "{0, 51.35}";
type = Stem;
},
{
horizontal = 1;
place = "{794.25, 35.54}";
type = Stem;
},
{
horizontal = 1;
place = "{940.5, 35.54}";
type = Stem;
},
{
place = "{93.78, 641.67}";
type = Stem;
}
);
layerId = "EE67F182-E529-43D3-8004-363E3BB4E65C";
paths = (
{
closed = 1;
nodes = (
"621.5 91.57 LINE",
"735.45 737 LINE",
"678.99 737 LINE",
"569.63 117.25 LINE",
"492.72 51.29 LINE",
"206.06 51.41 LINE",
"152.44 117.41 LINE",
"261.74 737 LINE",
"205.28 737 LINE",
"93.78 105.15 LINE",
"179.49 0.12 LINE",
"514.39 -0.13 LINE"
);
},
{
closed = 1;
nodes = (
"518.16 794.25 LINE",
"577.48 844.79 LINE",
"590.08 916.2 LINE",
"540.95 976.04 LINE",
"457.96 976.04 LINE",
"398.82 925.55 LINE",
"386.21 854.18 LINE",
"435.56 794.25 LINE"
);
},
{
closed = 1;
nodes = (
"428.62 862 LINE",
"436.79 908.21 LINE",
"474.87 940.5 LINE",
"521.04 940.5 LINE",
"547.62 908.21 LINE",
"539.46 862 LINE",
"501.5 829.79 LINE",
"455.33 829.79 LINE"
);
}
);
width = 694;
}
);
note = Uring;
unicode = 016E;
},
{
glyphname = Utilde;
lastChange = "2019-09-04 12:33:25 +0000";
layers = (
{
hints = (
{
horizontal = 1;
place = "{0, 51.35}";
type = Stem;
},
{
horizontal = 1;
place = "{794.25, 39.21}";
type = Stem;
},
{
horizontal = 1;
place = "{867.58, 39.21}";
type = Stem;
},
{
place = "{93.78, 641.67}";
type = Stem;
}
);
layerId = "EE67F182-E529-43D3-8004-363E3BB4E65C";
paths = (
{
closed = 1;
nodes = (
"621.51 91.57 LINE",
"735.46 737 LINE",
"679 737 LINE",
"569.64 117.25 LINE",
"492.73 51.29 LINE",
"206.07 51.41 LINE",
"152.45 117.41 LINE",
"261.75 737 LINE",
"205.29 737 LINE",
"93.79 105.15 LINE",
"179.5 0.12 LINE",
"514.4 -0.13 LINE"
);
},
{
closed = 1;
nodes = (
"588.96 794.25 LINE",
"647.63 845.23 LINE",
"659.23 905.66 LINE",
"624.96 905.66 LINE",
"616.5 869.71 LINE",
"571.96 833.46 LINE",
"534.96 833.46 LINE",
"473.64 906.79 LINE",
"388.96 906.79 LINE",
"330.16 855.33 LINE",
"318.53 795.33 LINE",
"352.91 795.33 LINE",
"361.46 831.21 LINE",
"405.96 867.58 LINE",
"451.35 867.58 LINE",
"512.62 794.25 LINE"
);
}
);
width = 694;
}
);
note = Utilde;
unicode = 0168;
},
{
glyphname = V;
lastChange = "2019-09-11 15:59:04 +0000";
layers = (
{
hints = (
{
horizontal = 1;
place = "{0, 54.25}";
type = Stem;
},
{
place = "{145.34, 614.49}";
type = Stem;
}
);
layerId = "EE67F182-E529-43D3-8004-363E3BB4E65C";
paths = (
{
closed = 1;
nodes = (
"370.94 0 LINE",
"759.83 737 LINE",
"696.94 737 LINE",
"341 54.25 LINE",
"319.75 54.25 LINE",
"201.29 737 LINE",
"145.34 737 LINE",
"275.5 0 LINE"
);
}
);
width = 646;
}
);
leftKerningGroup = V;
note = V;
rightKerningGroup = V;
unicode = 0056;
},
{
glyphname = W;
lastChange = "2019-09-11 15:58:34 +0000";
layers = (
{
hints = (
{
horizontal = 1;
place = "{0, 54.25}";
type = Stem;
},
{
place = "{138.66, 868.5}";
type = Stem;
}
);
layerId = "EE67F182-E529-43D3-8004-363E3BB4E65C";
paths = (
{
closed = 1;
nodes = (
"298.42 0 LINE",
"551.04 615.04 LINE",
"585.99 0 LINE",
"684.29 0 LINE",
"1007.16 737 LINE",
"945.58 737 LINE",
"653.91 54.25 LINE",
"632.66 54.25 LINE",
"596.93 737 LINE",
"543.71 737 LINE",
"267.5 54.25 LINE",
"246.25 54.25 LINE",
"195.41 737 LINE",
"138.66 737 LINE",
"201.32 0 LINE"
);
}
);
width = 901;
}
);
leftKerningGroup = W;
note = W;
rightKerningGroup = W;
unicode = 0057;
},
{
glyphname = Wacute;
lastChange = "2019-09-04 12:33:25 +0000";
layers = (
{
hints = (
{
horizontal = 1;
place = "{0, 54.25}";
type = Stem;
},
{
horizontal = 1;
place = "{794.25, 143.66}";
type = Stem;
},
{
place = "{138.66, 868.5}";
type = Stem;
}
);
layerId = "EE67F182-E529-43D3-8004-363E3BB4E65C";
paths = (
{
closed = 1;
nodes = (
"298.42 0 LINE",
"551.04 615.04 LINE",
"585.99 0 LINE",
"684.29 0 LINE",
"1007.16 737 LINE",
"945.58 737 LINE",
"653.91 54.25 LINE",
"632.66 54.25 LINE",
"596.93 737 LINE",
"543.71 737 LINE",
"267.5 54.25 LINE",
"246.25 54.25 LINE",
"195.41 737 LINE",
"138.66 737 LINE",
"201.32 0 LINE"
);
},
{
closed = 1;
nodes = (
"608.19 794.25 LINE",
"747.64 937.91 LINE",
"670.58 937.91 LINE",
"554.96 794.25 LINE"
);
}
);
width = 901;
}
);
leftKerningGroup = W;
note = Wacute;
rightKerningGroup = W;
unicode = 1E82;
},
{
glyphname = Wcircumflex;
lastChange = "2019-09-04 12:33:25 +0000";
layers = (
{
hints = (
{
horizontal = 1;
place = "{0, 54.25}";
type = Stem;
},
{
horizontal = 1;
place = "{895.37, 38.21}";
type = Stem;
},
{
place = "{138.66, 868.5}";
type = Stem;
}
);
layerId = "EE67F182-E529-43D3-8004-363E3BB4E65C";
paths = (
{
closed = 1;
nodes = (
"298.42 0 LINE",
"551.04 615.04 LINE",
"585.99 0 LINE",
"684.29 0 LINE",
"1007.16 737 LINE",
"945.58 737 LINE",
"653.91 54.25 LINE",
"632.66 54.25 LINE",
"596.93 737 LINE",
"543.71 737 LINE",
"267.5 54.25 LINE",
"246.25 54.25 LINE",
"195.41 737 LINE",
"138.66 737 LINE",
"201.32 0 LINE"
);
},
{
closed = 1;
nodes = (
"486.37 794.25 LINE",
"591.16 895.37 LINE",
"602.83 895.37 LINE",
"671.96 794.25 LINE",
"718.26 794.25 LINE",
"635.37 933.58 LINE",
"561.12 933.58 LINE",
"435.04 794.25 LINE"
);
}
);
width = 901;
}
);
leftKerningGroup = W;
note = Wcircumflex;
rightKerningGroup = W;
unicode = 0174;
},
{
glyphname = Wdieresis;
lastChange = "2019-09-04 12:33:25 +0000";
layers = (
{
hints = (
{
horizontal = 1;
place = "{0, 54.25}";
type = Stem;
},
{
horizontal = 1;
place = "{794.25, 110.83}";
type = Stem;
},
{
place = "{138.66, 868.5}";
type = Stem;
}
);
layerId = "EE67F182-E529-43D3-8004-363E3BB4E65C";
paths = (
{
closed = 1;
nodes = (
"298.42 0 LINE",
"551.04 615.04 LINE",
"585.99 0 LINE",
"684.29 0 LINE",
"1007.16 737 LINE",
"945.58 737 LINE",
"653.91 54.25 LINE",
"632.66 54.25 LINE",
"596.93 737 LINE",
"543.71 737 LINE",
"267.5 54.25 LINE",
"246.25 54.25 LINE",
"195.41 737 LINE",
"138.66 737 LINE",
"201.32 0 LINE"
);
},
{
closed = 1;
nodes = (
"473.41 794.25 LINE",
"492.96 905.08 LINE",
"437.96 905.08 LINE",
"418.41 794.25 LINE"
);
},
{
closed = 1;
nodes = (
"739.25 794.25 LINE",
"758.79 905.08 LINE",
"703.79 905.08 LINE",
"684.25 794.25 LINE"
);
}
);
width = 901;
}
);
leftKerningGroup = W;
note = Wdieresis;
rightKerningGroup = W;
unicode = 1E84;
},
{
glyphname = Wgrave;
lastChange = "2019-09-04 12:33:25 +0000";
layers = (
{
hints = (
{
horizontal = 1;
place = "{0, 54.25}";
type = Stem;
},
{
horizontal = 1;
place = "{794.25, 143.66}";
type = Stem;
},
{
place = "{138.66, 868.5}";
type = Stem;
}
);
layerId = "EE67F182-E529-43D3-8004-363E3BB4E65C";
paths = (
{
closed = 1;
nodes = (
"298.42 0 LINE",
"551.04 615.04 LINE",
"585.99 0 LINE",
"684.29 0 LINE",
"1007.16 737 LINE",
"945.58 737 LINE",
"653.91 54.25 LINE",
"632.66 54.25 LINE",
"596.93 737 LINE",
"543.71 737 LINE",
"267.5 54.25 LINE",
"246.25 54.25 LINE",
"195.41 737 LINE",
"138.66 737 LINE",
"201.32 0 LINE"
);
},
{
closed = 1;
nodes = (
"586.94 794.25 LINE",
"522.06 937.91 LINE",
"453.42 937.91 LINE",
"540.86 794.25 LINE"
);
}
);
width = 901;
}
);
leftKerningGroup = W;
note = Wgrave;
rightKerningGroup = W;
unicode = 1E80;
},
{
glyphname = X;
lastChange = "2019-09-04 12:33:25 +0000";
layers = (
{
hints = (
{
horizontal = 1;
place = "{340.62, 62.71}";
type = Stem;
},
{
place = "{10.44, 707.7}";
type = Stem;
}
);
layerId = "EE67F182-E529-43D3-8004-363E3BB4E65C";
paths = (
{
closed = 1;
nodes = (
"80.66 0 LINE",
"348.58 340.62 LINE",
"371.16 340.62 LINE",
"519 0 LINE",
"578.7 0 LINE",
"418.74 364.93 LINE",
"718.14 737 LINE",
"648.21 737 LINE",
"381.71 403.33 LINE",
"359.46 403.33 LINE",
"210.87 737 LINE",
"151.69 737 LINE",
"312.06 380.8 LINE",
"10.44 0 LINE"
);
}
);
width = 600;
}
);
leftKerningGroup = X;
note = X;
rightKerningGroup = X;
unicode = 0058;
},
{
glyphname = Y;
lastChange = "2019-09-04 12:33:25 +0000";
layers = (
{
hints = (
{
horizontal = 1;
place = "{0, 737}";
type = Stem;
},
{
place = "{149.28, 572.38}";
type = Stem;
}
);
layerId = "EE67F182-E529-43D3-8004-363E3BB4E65C";
paths = (
{
closed = 1;
nodes = (
"330.87 0 LINE",
"385.89 314.15 LINE",
"721.66 737 LINE",
"651.75 737 LINE",
"378.21 386.83 LINE",
"362.79 386.83 LINE",
"208.75 737 LINE",
"149.28 737 LINE",
"331.66 328.21 LINE",
"273.71 0 LINE"
);
}
);
width = 605;
}
);
leftKerningGroup = Y;
note = Y;
rightKerningGroup = Y;
unicode = 0059;
},
{
glyphname = Yacute;
lastChange = "2019-09-04 12:33:25 +0000";
layers = (
{
hints = (
{
horizontal = 1;
place = "{793.91, 143.67}";
type = Stem;
},
{
place = "{149.28, 572.38}";
type = Stem;
}
);
layerId = "EE67F182-E529-43D3-8004-363E3BB4E65C";
paths = (
{
closed = 1;
nodes = (
"330.87 0 LINE",
"385.89 314.15 LINE",
"721.66 737 LINE",
"651.75 737 LINE",
"378.21 386.83 LINE",
"362.79 386.83 LINE",
"208.75 737 LINE",
"149.28 737 LINE",
"331.66 328.21 LINE",
"273.71 0 LINE"
);
},
{
closed = 1;
nodes = (
"470.15 793.91 LINE",
"609.6 937.58 LINE",
"532.54 937.58 LINE",
"416.91 793.91 LINE"
);
}
);
width = 605;
}
);
leftKerningGroup = Y;
note = Yacute;
rightKerningGroup = Y;
unicode = 00DD;
},
{
glyphname = Ycircumflex;
lastChange = "2019-09-04 12:33:25 +0000";
layers = (
{
hints = (
{
horizontal = 1;
place = "{895.04, 38.21}";
type = Stem;
},
{
place = "{149.28, 572.38}";
type = Stem;
}
);
layerId = "EE67F182-E529-43D3-8004-363E3BB4E65C";
paths = (
{
closed = 1;
nodes = (
"330.87 0 LINE",
"385.89 314.15 LINE",
"721.66 737 LINE",
"651.75 737 LINE",
"378.21 386.83 LINE",
"362.79 386.83 LINE",
"208.75 737 LINE",
"149.28 737 LINE",
"331.66 328.21 LINE",
"273.71 0 LINE"
);
},
{
closed = 1;
nodes = (
"348.33 793.91 LINE",
"453.12 895.04 LINE",
"464.79 895.04 LINE",
"533.91 793.91 LINE",
"580.22 793.91 LINE",
"497.33 933.25 LINE",
"423.08 933.25 LINE",
"297 793.91 LINE"
);
}
);
width = 605;
}
);
leftKerningGroup = Y;
note = Ycircumflex;
rightKerningGroup = Y;
unicode = 0176;
},
{
glyphname = Ydieresis;
lastChange = "2019-09-04 12:33:25 +0000";
layers = (
{
hints = (
{
horizontal = 1;
place = "{793.91, 110.84}";
type = Stem;
},
{
place = "{149.28, 572.38}";
type = Stem;
}
);
layerId = "EE67F182-E529-43D3-8004-363E3BB4E65C";
paths = (
{
closed = 1;
nodes = (
"330.87 0 LINE",
"385.89 314.15 LINE",
"721.66 737 LINE",
"651.75 737 LINE",
"378.21 386.83 LINE",
"362.79 386.83 LINE",
"208.75 737 LINE",
"149.28 737 LINE",
"331.66 328.21 LINE",
"273.71 0 LINE"
);
},
{
closed = 1;
nodes = (
"335.37 793.91 LINE",
"354.91 904.75 LINE",
"299.91 904.75 LINE",
"280.37 793.91 LINE"
);
},
{
closed = 1;
nodes = (
"601.21 793.91 LINE",
"620.75 904.75 LINE",
"565.75 904.75 LINE",
"546.21 793.91 LINE"
);
}
);
width = 605;
}
);
leftKerningGroup = Y;
note = Ydieresis;
rightKerningGroup = Y;
unicode = 0178;
},
{
glyphname = uni1EF4;
lastChange = "2019-09-04 12:33:25 +0000";
layers = (
{
hints = (
{
horizontal = 1;
place = "{-167.96, 110.71}";
type = Stem;
},
{
place = "{149.28, 572.38}";
type = Stem;
}
);
layerId = "EE67F182-E529-43D3-8004-363E3BB4E65C";
paths = (
{
closed = 1;
nodes = (
"330.87 0 LINE",
"385.89 314.15 LINE",
"721.66 737 LINE",
"651.75 737 LINE",
"378.21 386.83 LINE",
"362.79 386.83 LINE",
"208.75 737 LINE",
"149.28 737 LINE",
"331.66 328.21 LINE",
"273.71 0 LINE"
);
},
{
closed = 1;
nodes = (
"300.4 -167.96 LINE",
"319.94 -57.25 LINE",
"264.94 -57.25 LINE",
"245.4 -167.96 LINE"
);
}
);
width = 605;
}
);
leftKerningGroup = Y;
note = uni1EF4;
rightKerningGroup = Y;
unicode = 1EF4;
},
{
glyphname = Ygrave;
lastChange = "2019-09-04 12:33:25 +0000";
layers = (
{
hints = (
{
horizontal = 1;
place = "{793.91, 143.67}";
type = Stem;
},
{
place = "{149.28, 572.38}";
type = Stem;
}
);
layerId = "EE67F182-E529-43D3-8004-363E3BB4E65C";
paths = (
{
closed = 1;
nodes = (
"330.87 0 LINE",
"385.89 314.15 LINE",
"721.66 737 LINE",
"651.75 737 LINE",
"378.21 386.83 LINE",
"362.79 386.83 LINE",
"208.75 737 LINE",
"149.28 737 LINE",
"331.66 328.21 LINE",
"273.71 0 LINE"
);
},
{
closed = 1;
nodes = (
"448.9 793.91 LINE",
"384.02 937.58 LINE",
"315.38 937.58 LINE",
"402.82 793.91 LINE"
);
}
);
width = 605;
}
);
leftKerningGroup = Y;
note = Ygrave;
rightKerningGroup = Y;
unicode = 1EF2;
},
{
glyphname = uni1EF6;
lastChange = "2019-09-04 12:33:25 +0000";
layers = (
{
hints = (
{
horizontal = 1;
place = "{953.33, 38.08}";
type = Stem;
},
{
place = "{423.5, 39.23}";
type = Stem;
}
);
layerId = "EE67F182-E529-43D3-8004-363E3BB4E65C";
paths = (
{
closed = 1;
nodes = (
"330.87 0 LINE",
"385.89 314.15 LINE",
"721.66 737 LINE",
"651.75 737 LINE",
"378.21 386.83 LINE",
"362.79 386.83 LINE",
"208.75 737 LINE",
"149.28 737 LINE",
"331.66 328.21 LINE",
"273.71 0 LINE"
);
},
{
closed = 1;
nodes = (
"460.33 793.91 LINE",
"465.13 820.61 LINE",
"544.99 882.65 LINE",
"556.41 947.35 LINE",
"521.55 991.41 LINE",
"433.36 991.41 LINE",
"386.3 950.01 LINE",
"412.33 919.21 LINE",
"451.25 953.33 LINE",
"498.28 953.33 LINE",
"511.17 936.87 LINE",
"505.16 903.04 LINE",
"427.71 841.46 LINE",
"419.29 793.91 LINE"
);
}
);
width = 605;
}
);
leftKerningGroup = Y;
note = uni1EF6;
rightKerningGroup = Y;
unicode = 1EF6;
},
{
glyphname = uni0232;
lastChange = "2019-09-04 12:33:25 +0000";
layers = (
{
hints = (
{
horizontal = 1;
place = "{793.91, 43.96}";
type = Stem;
},
{
place = "{149.28, 572.38}";
type = Stem;
}
);
layerId = "EE67F182-E529-43D3-8004-363E3BB4E65C";
paths = (
{
closed = 1;
nodes = (
"330.87 0 LINE",
"385.89 314.15 LINE",
"721.66 737 LINE",
"651.75 737 LINE",
"378.21 386.83 LINE",
"362.79 386.83 LINE",
"208.75 737 LINE",
"149.28 737 LINE",
"331.66 328.21 LINE",
"273.71 0 LINE"
);
},
{
closed = 1;
nodes = (
"602.87 793.91 LINE",
"610.71 837.87 LINE",
"289.87 837.87 LINE",
"282.04 793.91 LINE"
);
}
);
width = 605;
}
);
leftKerningGroup = Y;
note = uni0232;
rightKerningGroup = Y;
unicode = 0232;
},
{
glyphname = uni1EF8;
lastChange = "2019-09-04 12:33:25 +0000";
layers = (
{
hints = (
{
horizontal = 1;
place = "{793.91, 39.21}";
type = Stem;
},
{
horizontal = 1;
place = "{867.25, 39.21}";
type = Stem;
},
{
place = "{149.28, 572.38}";
type = Stem;
}
);
layerId = "EE67F182-E529-43D3-8004-363E3BB4E65C";
paths = (
{
closed = 1;
nodes = (
"330.87 0 LINE",
"385.89 314.15 LINE",
"721.66 737 LINE",
"651.75 737 LINE",
"378.21 386.83 LINE",
"362.79 386.83 LINE",
"208.75 737 LINE",
"149.28 737 LINE",
"331.66 328.21 LINE",
"273.71 0 LINE"
);
},
{
closed = 1;
nodes = (
"554.34 793.91 LINE",
"613 844.9 LINE",
"624.6 905.33 LINE",
"590.33 905.33 LINE",
"581.87 869.37 LINE",
"537.33 833.12 LINE",
"500.33 833.12 LINE",
"439 906.46 LINE",
"354.33 906.46 LINE",
"295.53 855 LINE",
"283.91 795 LINE",
"318.29 795 LINE",
"326.83 830.87 LINE",
"371.33 867.25 LINE",
"416.73 867.25 LINE",
"478 793.91 LINE"
);
}
);
width = 605;
}
);
leftKerningGroup = Y;
note = uni1EF8;
rightKerningGroup = Y;
unicode = 1EF8;
},
{
glyphname = Z;
lastChange = "2019-09-04 12:33:25 +0000";
layers = (
{
hints = (
{
horizontal = 1;
place = "{0, 52.79}";
type = Stem;
},
{
horizontal = 1;
place = "{684.21, 52.79}";
type = Stem;
},
{
place = "{83.33, 621.75}";
type = Stem;
}
);
layerId = "EE67F182-E529-43D3-8004-363E3BB4E65C";
paths = (
{
closed = 1;
nodes = (
"584.66 0 LINE",
"593.96 52.79 LINE",
"163.04 52.79 LINE",
"166.83 74.04 LINE",
"692.28 665.9 LINE",
"705.08 737 LINE",
"233.16 737 LINE",
"223.83 684.21 LINE",
"621.41 684.21 LINE",
"617.66 662.96 LINE",
"96.76 76.77 LINE",
"83.33 0 LINE"
);
}
);
width = 668;
}
);
leftKerningGroup = Z;
note = Z;
rightKerningGroup = Z;
unicode = 005A;
},
{
glyphname = Zacute;
lastChange = "2019-09-04 12:33:25 +0000";
layers = (
{
hints = (
{
horizontal = 1;
place = "{0, 52.79}";
type = Stem;
},
{
horizontal = 1;
place = "{684.21, 52.79}";
type = Stem;
},
{
horizontal = 1;
place = "{794.25, 143.66}";
type = Stem;
},
{
place = "{83.33, 621.75}";
type = Stem;
}
);
layerId = "EE67F182-E529-43D3-8004-363E3BB4E65C";
paths = (
{
closed = 1;
nodes = (
"584.66 0 LINE",
"593.96 52.79 LINE",
"163.04 52.79 LINE",
"166.83 74.04 LINE",
"692.28 665.9 LINE",
"705.08 737 LINE",
"233.16 737 LINE",
"223.83 684.21 LINE",
"621.41 684.21 LINE",
"617.66 662.96 LINE",
"96.76 76.77 LINE",
"83.33 0 LINE"
);
},
{
closed = 1;
nodes = (
"509.19 794.25 LINE",
"648.64 937.91 LINE",
"571.58 937.91 LINE",
"455.96 794.25 LINE"
);
}
);
width = 668;
}
);
leftKerningGroup = Z;
note = Zacute;
rightKerningGroup = Z;
unicode = 0179;
},
{
glyphname = Zcaron;
lastChange = "2019-09-04 12:33:25 +0000";
layers = (
{
hints = (
{
horizontal = 1;
place = "{0, 52.79}";
type = Stem;
},
{
horizontal = 1;
place = "{684.21, 52.79}";
type = Stem;
},
{
horizontal = 1;
place = "{794.24, 38.21}";
type = Stem;
},
{
place = "{83.33, 621.75}";
type = Stem;
}
);
layerId = "EE67F182-E529-43D3-8004-363E3BB4E65C";
paths = (
{
closed = 1;
nodes = (
"584.66 0 LINE",
"593.96 52.79 LINE",
"163.04 52.79 LINE",
"166.83 74.04 LINE",
"692.28 665.9 LINE",
"705.08 737 LINE",
"233.16 737 LINE",
"223.83 684.21 LINE",
"621.41 684.21 LINE",
"617.66 662.96 LINE",
"96.76 76.77 LINE",
"83.33 0 LINE"
);
},
{
closed = 1;
nodes = (
"515.13 794.24 LINE",
"641.21 933.58 LINE",
"589.88 933.58 LINE",
"485.09 832.45 LINE",
"473.42 832.45 LINE",
"404.3 933.58 LINE",
"357.99 933.58 LINE",
"440.88 794.24 LINE"
);
}
);
width = 668;
}
);
leftKerningGroup = Z;
note = Zcaron;
rightKerningGroup = Z;
unicode = 017D;
},
{
glyphname = Zdotaccent;
lastChange = "2019-09-04 12:33:25 +0000";
layers = (
{
hints = (
{
horizontal = 1;
place = "{0, 52.79}";
type = Stem;
},
{
horizontal = 1;
place = "{684.21, 52.79}";
type = Stem;
},
{
horizontal = 1;
place = "{794.25, 110.71}";
type = Stem;
},
{
place = "{83.33, 621.75}";
type = Stem;
}
);
layerId = "EE67F182-E529-43D3-8004-363E3BB4E65C";
paths = (
{
closed = 1;
nodes = (
"584.66 0 LINE",
"593.96 52.79 LINE",
"163.04 52.79 LINE",
"166.83 74.04 LINE",
"692.28 665.9 LINE",
"705.08 737 LINE",
"233.16 737 LINE",
"223.83 684.21 LINE",
"621.41 684.21 LINE",
"617.66 662.96 LINE",
"96.76 76.77 LINE",
"83.33 0 LINE"
);
},
{
closed = 1;
nodes = (
"509 794.25 LINE",
"528.54 904.96 LINE",
"473.54 904.96 LINE",
"454 794.25 LINE"
);
}
);
width = 668;
}
);
leftKerningGroup = Z;
note = Zdotaccent;
rightKerningGroup = Z;
unicode = 017B;
},
{
glyphname = a;
lastChange = "2019-09-04 12:33:25 +0000";
layers = (
{
hints = (
{
horizontal = 1;
place = "{0, 45.79}";
type = Stem;
},
{
horizontal = 1;
place = "{277.12, 45.88}";
type = Stem;
},
{
horizontal = 1;
place = "{474.87, 47.63}";
type = Stem;
},
{
place = "{77.37, 487.5}";
type = Stem;
}
);
layerId = "EE67F182-E529-43D3-8004-363E3BB4E65C";
paths = (
{
closed = 1;
nodes = (
"352 0 LINE",
"451.42 84.75 LINE",
"436.5 0 LINE",
"491.5 0 LINE",
"564.87 416.24 LINE",
"478.19 522.5 LINE",
"218.46 522.5 LINE",
"210.04 474.83 LINE",
"455 474.91 LINE",
"508.49 408.83 LINE",
"493.37 323 LINE",
"208.58 323 LINE",
"100.41 230.39 LINE",
"77.37 98.62 LINE",
"159.83 0 LINE"
);
},
{
closed = 1;
nodes = (
"134.79 111.83 LINE",
"152.08 211.16 LINE",
"229.12 277.08 LINE",
"485.3 277.16 LINE",
"462.14 145.63 LINE",
"344.16 45.83 LINE",
"188.29 45.75 LINE"
);
}
);
width = 575;
}
);
leftKerningGroup = a;
note = a;
rightKerningGroup = a;
unicode = 0061;
},
{
glyphname = aacute;
lastChange = "2019-09-04 12:33:25 +0000";
layers = (
{
hints = (
{
horizontal = 1;
place = "{0, 45.79}";
type = Stem;
},
{
horizontal = 1;
place = "{277.12, 45.88}";
type = Stem;
},
{
horizontal = 1;
place = "{474.87, 47.63}";
type = Stem;
},
{
horizontal = 1;
place = "{579.75, 143.66}";
type = Stem;
},
{
place = "{77.37, 487.5}";
type = Stem;
}
);
layerId = "EE67F182-E529-43D3-8004-363E3BB4E65C";
paths = (
{
closed = 1;
nodes = (
"352 0 LINE",
"451.42 84.75 LINE",
"436.5 0 LINE",
"491.5 0 LINE",
"564.87 416.24 LINE",
"478.19 522.5 LINE",
"218.46 522.5 LINE",
"210.04 474.83 LINE",
"455 474.91 LINE",
"508.49 408.83 LINE",
"493.37 323 LINE",
"208.58 323 LINE",
"100.41 230.39 LINE",
"77.37 98.62 LINE",
"159.83 0 LINE"
);
},
{
closed = 1;
nodes = (
"134.79 111.83 LINE",
"152.08 211.16 LINE",
"229.12 277.08 LINE",
"485.3 277.16 LINE",
"462.14 145.63 LINE",
"344.16 45.83 LINE",
"188.29 45.75 LINE"
);
},
{
closed = 1;
nodes = (
"424.57 579.75 LINE",
"564.01 723.41 LINE",
"486.96 723.41 LINE",
"371.33 579.75 LINE"
);
}
);
width = 575;
}
);
leftKerningGroup = a;
note = aacute;
rightKerningGroup = a;
unicode = 00E1;
},
